<svg xmlns="http://www.w3.org/2000/svg" xmlns:xlink="http://www.w3.org/1999/xlink" width="500" zoomAndPan="magnify" viewBox="0 0 375 112.499997" height="150" preserveAspectRatio="xMidYMid meet" version="1.0"><defs><g/><clipPath id="17b513d4ff"><rect x="0" width="357" y="0" height="66"/></clipPath><clipPath id="1b6001aabd"><rect x="0" width="89" y="0" height="82"/></clipPath><clipPath id="fa1bce8de4"><path d="M 72 7 L 162 7 L 162 97 L 72 97 Z M 72 7 " clip-rule="nonzero"/></clipPath><clipPath id="88837a302a"><path d="M 61.515625 23.667969 L 173.042969 -12.445312 L 209.15625 99.082031 L 97.628906 135.195312 Z M 61.515625 23.667969 " clip-rule="nonzero"/></clipPath><clipPath id="3fd92a357b"><path d="M 61.515625 23.667969 L 173.042969 -12.445312 L 209.15625 99.082031 L 97.628906 135.195312 Z M 61.515625 23.667969 " clip-rule="nonzero"/></clipPath><clipPath id="707c659169"><path d="M 152 61 L 207 61 L 207 103 L 152 103 Z M 152 61 " clip-rule="nonzero"/></clipPath><clipPath id="9643972287"><path d="M 61.515625 23.667969 L 173.042969 -12.445312 L 209.15625 99.082031 L 97.628906 135.195312 Z M 61.515625 23.667969 " clip-rule="nonzero"/></clipPath><clipPath id="a850e31489"><path d="M 61.515625 23.667969 L 173.042969 -12.445312 L 209.15625 99.082031 L 97.628906 135.195312 Z M 61.515625 23.667969 " clip-rule="nonzero"/></clipPath><clipPath id="c103a5dd00"><path d="M 88 37 L 116 37 L 116 82 L 88 82 Z M 88 37 " clip-rule="nonzero"/></clipPath><clipPath id="c4fbc8ff32"><path d="M 61.515625 23.667969 L 173.042969 -12.445312 L 209.15625 99.082031 L 97.628906 135.195312 Z M 61.515625 23.667969 " clip-rule="nonzero"/></clipPath><clipPath id="1317b28f1f"><path d="M 61.515625 23.667969 L 173.042969 -12.445312 L 209.15625 99.082031 L 97.628906 135.195312 Z M 61.515625 23.667969 " clip-rule="nonzero"/></clipPath></defs><g transform="matrix(1, 0, 0, 1, 14, 21)"><g clip-path="url(#17b513d4ff)"><g fill="#cb6ce6" fill-opacity="1"><g transform="translate(1.954777, 51.942432)"><g><path d="M 6.207031 1.699219 C 4.449219 1.699219 3.054688 1.152344 2.023438 0.0546875 C 1.125 -0.902344 0.492188 -2.136719 0.117188 -3.648438 C -0.210938 -4.980469 -0.410156 -6.445312 -0.472656 -8.039062 C -0.535156 -9.542969 -0.566406 -11.046875 -0.566406 -12.550781 C -0.566406 -13.28125 -0.558594 -14.230469 -0.542969 -15.402344 L -0.5 -18.980469 C -0.484375 -20.214844 -0.460938 -21.3125 -0.429688 -22.273438 C -0.398438 -23.253906 -0.367188 -23.941406 -0.335938 -24.332031 L 1.359375 -24.191406 L -0.339844 -24.238281 C -0.269531 -26.707031 0.261719 -28.78125 1.257812 -30.453125 C 1.835938 -31.421875 2.566406 -32.15625 3.457031 -32.660156 C 4.339844 -33.160156 5.347656 -33.410156 6.476562 -33.410156 C 7.757812 -33.410156 8.859375 -33.117188 9.789062 -32.53125 C 10.742188 -31.933594 11.464844 -31.0625 11.957031 -29.914062 C 12.757812 -28.054688 13.160156 -25.46875 13.160156 -22.152344 L 13.160156 -20.792969 L 11.460938 -20.792969 L 9.96875 -21.605469 C 10.566406 -22.707031 11.296875 -23.902344 12.15625 -25.183594 C 13.03125 -26.488281 13.992188 -27.726562 15.042969 -28.902344 C 16.144531 -30.136719 17.320312 -31.152344 18.570312 -31.945312 C 19.964844 -32.832031 21.402344 -33.277344 22.878906 -33.277344 C 24.816406 -33.277344 26.417969 -32.542969 27.679688 -31.074219 C 28.871094 -29.683594 29.46875 -27.996094 29.46875 -26.003906 C 29.46875 -24.261719 28.96875 -22.582031 27.96875 -20.964844 C 27.027344 -19.4375 25.746094 -18.070312 24.125 -16.851562 C 22.539062 -15.664062 20.699219 -14.691406 18.605469 -13.941406 L 18.03125 -15.539062 L 18.738281 -17.082031 C 19.921875 -16.539062 21.113281 -15.894531 22.320312 -15.148438 C 23.558594 -14.386719 24.6875 -13.539062 25.71875 -12.609375 C 26.800781 -11.628906 27.675781 -10.5625 28.335938 -9.410156 C 29.0625 -8.152344 29.425781 -6.796875 29.425781 -5.347656 C 29.425781 -3.75 29.085938 -2.417969 28.414062 -1.355469 C 27.734375 -0.289062 26.851562 0.496094 25.765625 1 C 24.753906 1.464844 23.6875 1.699219 22.5625 1.699219 C 20.644531 1.699219 18.867188 1.085938 17.238281 -0.136719 C 15.765625 -1.238281 14.414062 -2.664062 13.179688 -4.410156 C 12.007812 -6.0625 10.925781 -7.792969 9.929688 -9.597656 L 11.417969 -10.417969 L 13.117188 -10.417969 C 13.117188 -9.042969 13.0625 -7.710938 12.949219 -6.425781 C 12.832031 -5.050781 12.585938 -3.804688 12.210938 -2.679688 C 11.777344 -1.375 11.085938 -0.332031 10.144531 0.449219 C 9.132812 1.28125 7.820312 1.699219 6.207031 1.699219 Z M 6.207031 -1.699219 C 7.007812 -1.699219 7.597656 -1.855469 7.976562 -2.171875 C 8.421875 -2.539062 8.757812 -3.066406 8.988281 -3.753906 C 9.277344 -4.621094 9.46875 -5.609375 9.566406 -6.714844 C 9.667969 -7.902344 9.71875 -9.140625 9.71875 -10.417969 L 12.902344 -11.242188 C 13.839844 -9.542969 14.855469 -7.921875 15.953125 -6.371094 C 16.980469 -4.917969 18.089844 -3.746094 19.277344 -2.855469 C 20.304688 -2.085938 21.398438 -1.699219 22.5625 -1.699219 C 23.1875 -1.699219 23.78125 -1.828125 24.339844 -2.085938 C 24.824219 -2.308594 25.222656 -2.671875 25.542969 -3.175781 C 25.867188 -3.683594 26.027344 -4.40625 26.027344 -5.347656 C 26.027344 -6.191406 25.816406 -6.980469 25.390625 -7.714844 C 24.90625 -8.554688 24.253906 -9.347656 23.4375 -10.089844 C 22.5625 -10.878906 21.59375 -11.605469 20.535156 -12.257812 C 19.445312 -12.933594 18.375 -13.511719 17.320312 -13.996094 L 13.542969 -15.730469 L 17.457031 -17.136719 C 19.230469 -17.773438 20.773438 -18.585938 22.085938 -19.570312 C 23.363281 -20.53125 24.363281 -21.589844 25.078125 -22.753906 C 25.742188 -23.824219 26.070312 -24.90625 26.070312 -26.003906 C 26.070312 -27.15625 25.746094 -28.105469 25.101562 -28.859375 C 24.519531 -29.539062 23.777344 -29.878906 22.878906 -29.878906 C 22.058594 -29.878906 21.230469 -29.609375 20.390625 -29.078125 C 19.40625 -28.453125 18.46875 -27.640625 17.578125 -26.640625 C 16.632812 -25.582031 15.765625 -24.464844 14.980469 -23.289062 C 14.179688 -22.097656 13.503906 -20.992188 12.953125 -19.984375 L 9.761719 -20.792969 L 9.761719 -22.152344 C 9.761719 -25 9.453125 -27.140625 8.835938 -28.570312 C 8.621094 -29.070312 8.335938 -29.433594 7.980469 -29.65625 C 7.601562 -29.894531 7.101562 -30.011719 6.476562 -30.011719 C 5.945312 -30.011719 5.496094 -29.910156 5.128906 -29.703125 C 4.765625 -29.496094 4.445312 -29.164062 4.179688 -28.714844 C 3.484375 -27.546875 3.109375 -26.023438 3.058594 -24.144531 L 3.050781 -24.050781 C 3.023438 -23.71875 2.996094 -23.089844 2.964844 -22.167969 C 2.9375 -21.226562 2.914062 -20.152344 2.898438 -18.9375 L 2.855469 -15.359375 C 2.839844 -14.203125 2.832031 -13.265625 2.832031 -12.550781 C 2.832031 -11.09375 2.863281 -9.636719 2.921875 -8.179688 C 2.976562 -6.8125 3.140625 -5.574219 3.417969 -4.460938 C 3.648438 -3.527344 4.007812 -2.796875 4.5 -2.273438 C 4.859375 -1.890625 5.429688 -1.699219 6.207031 -1.699219 Z M 6.207031 -1.699219 "/></g></g></g><g fill="#cb6ce6" fill-opacity="1"><g transform="translate(30.855805, 51.942432)"><g><path d="M 16.605469 1.746094 C 14.28125 1.777344 12.089844 1.355469 10.023438 0.476562 C 7.976562 -0.398438 6.160156 -1.640625 4.585938 -3.25 C 3.015625 -4.855469 1.78125 -6.722656 0.882812 -8.851562 C -0.015625 -10.984375 -0.5 -13.285156 -0.566406 -15.765625 C -0.601562 -18.1875 -0.179688 -20.457031 0.695312 -22.574219 C 1.5625 -24.679688 2.785156 -26.539062 4.359375 -28.144531 C 5.929688 -29.75 7.75 -31.011719 9.820312 -31.929688 C 11.914062 -32.855469 14.167969 -33.320312 16.582031 -33.320312 C 18.886719 -33.355469 21.074219 -32.929688 23.136719 -32.050781 C 25.183594 -31.179688 26.996094 -29.945312 28.570312 -28.355469 C 30.140625 -26.765625 31.382812 -24.910156 32.300781 -22.777344 C 33.21875 -20.640625 33.695312 -18.324219 33.726562 -15.832031 C 33.796875 -13.429688 33.382812 -11.164062 32.484375 -9.035156 C 31.601562 -6.929688 30.371094 -5.085938 28.796875 -3.492188 C 27.226562 -1.90625 25.398438 -0.652344 23.3125 0.265625 C 21.222656 1.183594 18.996094 1.675781 16.628906 1.742188 Z M 16.53125 -1.652344 C 18.457031 -1.707031 20.261719 -2.105469 21.945312 -2.847656 C 23.636719 -3.589844 25.113281 -4.601562 26.382812 -5.882812 C 27.648438 -7.164062 28.636719 -8.652344 29.351562 -10.355469 C 30.058594 -12.03125 30.382812 -13.84375 30.332031 -15.789062 C 30.304688 -17.828125 29.917969 -19.710938 29.175781 -21.4375 C 28.429688 -23.171875 27.425781 -24.683594 26.15625 -25.964844 C 24.890625 -27.242188 23.441406 -28.226562 21.804688 -28.925781 C 20.183594 -29.617188 18.441406 -29.949219 16.582031 -29.921875 C 14.644531 -29.921875 12.851562 -29.554688 11.199219 -28.824219 C 9.523438 -28.078125 8.054688 -27.0625 6.785156 -25.765625 C 5.519531 -24.472656 4.539062 -22.976562 3.835938 -21.277344 C 3.140625 -19.589844 2.804688 -17.785156 2.832031 -15.855469 C 2.886719 -13.804688 3.28125 -11.910156 4.011719 -10.175781 C 4.742188 -8.441406 5.742188 -6.925781 7.011719 -5.628906 C 8.273438 -4.339844 9.722656 -3.347656 11.359375 -2.648438 C 12.980469 -1.960938 14.710938 -1.625 16.554688 -1.652344 Z M 16.71875 -10.488281 C 17.589844 -10.488281 18.371094 -10.8125 19.054688 -11.46875 C 19.707031 -12.089844 20.023438 -12.984375 20 -14.148438 C 20 -15.382812 19.675781 -16.3125 19.023438 -16.945312 C 18.355469 -17.59375 17.585938 -17.917969 16.71875 -17.917969 C 15.847656 -17.917969 15.078125 -17.59375 14.410156 -16.945312 C 13.757812 -16.3125 13.433594 -15.390625 13.433594 -14.179688 C 13.433594 -13 13.757812 -12.089844 14.410156 -11.457031 C 15.078125 -10.8125 15.847656 -10.488281 16.71875 -10.488281 Z M 16.71875 -7.089844 C 14.929688 -7.089844 13.371094 -7.734375 12.046875 -9.019531 C 10.703125 -10.320312 10.035156 -12.039062 10.035156 -14.179688 C 10.035156 -16.351562 10.703125 -18.085938 12.046875 -19.386719 C 13.371094 -20.671875 14.929688 -21.316406 16.71875 -21.316406 C 18.503906 -21.316406 20.0625 -20.671875 21.386719 -19.386719 C 22.730469 -18.085938 23.398438 -16.359375 23.398438 -14.210938 C 23.4375 -12.054688 22.773438 -10.320312 21.402344 -9.011719 C 20.0625 -7.730469 18.5 -7.089844 16.71875 -7.089844 Z M 16.71875 -7.089844 "/></g></g></g><g fill="#cb6ce6" fill-opacity="1"><g transform="translate(64.017856, 51.942432)"><g/></g></g><g fill="#cb6ce6" fill-opacity="1"><g transform="translate(77.607681, 51.942432)"><g/></g></g><g fill="#cb6ce6" fill-opacity="1"><g transform="translate(91.197506, 51.942432)"><g/></g></g><g fill="#cb6ce6" fill-opacity="1"><g transform="translate(104.78733, 51.942432)"><g/></g></g><g fill="#cb6ce6" fill-opacity="1"><g transform="translate(118.377155, 51.942432)"><g/></g></g><g fill="#cb6ce6" fill-opacity="1"><g transform="translate(131.96698, 51.942432)"><g/></g></g><g fill="#cb6ce6" fill-opacity="1"><g transform="translate(145.560034, 51.942432)"><g><path d="M 16.113281 1.652344 C 12.636719 1.621094 9.671875 1.042969 7.21875 -0.0859375 C 4.625 -1.28125 2.664062 -3.191406 1.335938 -5.828125 C 0.0664062 -8.347656 -0.566406 -11.628906 -0.566406 -15.675781 C -0.566406 -19.210938 0.0195312 -22.28125 1.191406 -24.886719 C 2.402344 -27.582031 4.175781 -29.675781 6.515625 -31.171875 C 8.847656 -32.664062 11.675781 -33.410156 14.996094 -33.410156 C 17.832031 -33.410156 20.332031 -32.996094 22.492188 -32.164062 C 24.738281 -31.300781 26.523438 -30.046875 27.847656 -28.40625 C 29.207031 -26.722656 29.957031 -24.734375 30.101562 -22.441406 C 30.242188 -20.273438 29.867188 -18.367188 28.96875 -16.71875 C 28.105469 -15.136719 26.847656 -13.742188 25.191406 -12.535156 L 24.191406 -13.90625 L 24.480469 -15.582031 C 25.9375 -15.332031 27.226562 -14.554688 28.355469 -13.25 C 29.492188 -11.9375 30.058594 -10.359375 30.058594 -8.515625 C 30.058594 -7.335938 29.824219 -6.144531 29.351562 -4.949219 C 28.863281 -3.710938 28.0625 -2.578125 26.949219 -1.558594 C 25.84375 -0.539062 24.375 0.253906 22.550781 0.828125 C 20.796875 1.378906 18.65625 1.652344 16.128906 1.652344 Z M 16.128906 -1.746094 C 18.308594 -1.746094 20.109375 -1.96875 21.53125 -2.414062 C 22.875 -2.835938 23.914062 -3.386719 24.652344 -4.058594 C 25.378906 -4.730469 25.894531 -5.441406 26.191406 -6.195312 C 26.503906 -6.992188 26.660156 -7.765625 26.660156 -8.515625 C 26.660156 -9.515625 26.367188 -10.351562 25.78125 -11.03125 C 25.1875 -11.71875 24.5625 -12.121094 23.90625 -12.234375 L 19.941406 -12.914062 L 23.191406 -15.28125 C 24.433594 -16.1875 25.367188 -17.210938 25.984375 -18.34375 C 26.566406 -19.414062 26.808594 -20.710938 26.710938 -22.226562 C 26.609375 -23.800781 26.109375 -25.148438 25.203125 -26.273438 C 24.261719 -27.441406 22.949219 -28.347656 21.269531 -28.992188 C 19.503906 -29.671875 17.414062 -30.011719 14.996094 -30.011719 C 12.335938 -30.011719 10.121094 -29.445312 8.34375 -28.308594 C 6.574219 -27.179688 5.222656 -25.574219 4.289062 -23.496094 C 3.316406 -21.332031 2.832031 -18.722656 2.832031 -15.675781 C 2.832031 -12.167969 3.34375 -9.394531 4.371094 -7.355469 C 5.339844 -5.429688 6.761719 -4.035156 8.636719 -3.175781 C 10.652344 -2.25 13.15625 -1.773438 16.144531 -1.746094 Z M 13.671875 -18.503906 C 14.082031 -18.328125 14.605469 -18.246094 15.238281 -18.257812 C 15.78125 -18.265625 16.253906 -18.40625 16.65625 -18.675781 C 16.742188 -18.730469 16.804688 -18.796875 16.839844 -18.867188 C 16.894531 -18.980469 16.921875 -19.136719 16.921875 -19.34375 C 16.921875 -19.582031 16.875 -19.746094 16.785156 -19.839844 C 16.59375 -20.039062 16.34375 -20.183594 16.039062 -20.265625 C 15.609375 -20.382812 15.167969 -20.433594 14.714844 -20.410156 C 14.332031 -20.394531 14.03125 -20.324219 13.800781 -20.199219 L 13.765625 -20.183594 L 13.730469 -20.164062 C 13.613281 -20.109375 13.527344 -19.992188 13.476562 -19.8125 C 13.375 -19.476562 13.375 -19.140625 13.472656 -18.816406 C 13.523438 -18.648438 13.609375 -18.535156 13.730469 -18.480469 L 13.003906 -16.945312 Z M 12.332031 -15.382812 L 12.304688 -15.394531 L 12.273438 -15.40625 C 11.246094 -15.894531 10.5625 -16.703125 10.21875 -17.832031 C 9.925781 -18.808594 9.925781 -19.789062 10.21875 -20.777344 C 10.558594 -21.925781 11.242188 -22.746094 12.273438 -23.234375 L 13.003906 -21.699219 L 12.203125 -23.199219 C 12.878906 -23.5625 13.664062 -23.761719 14.550781 -23.804688 C 15.367188 -23.84375 16.164062 -23.757812 16.941406 -23.542969 C 17.84375 -23.292969 18.609375 -22.847656 19.230469 -22.199219 C 19.957031 -21.449219 20.320312 -20.496094 20.320312 -19.34375 C 20.320312 -18.613281 20.175781 -17.957031 19.890625 -17.375 C 19.585938 -16.753906 19.136719 -16.242188 18.542969 -15.847656 C 17.585938 -15.210938 16.503906 -14.878906 15.296875 -14.859375 C 14.179688 -14.839844 13.191406 -15.015625 12.332031 -15.382812 Z M 13.605469 -7.929688 C 14.035156 -7.765625 14.582031 -7.691406 15.238281 -7.703125 C 15.820312 -7.710938 16.324219 -7.839844 16.75 -8.085938 C 16.820312 -8.125 16.867188 -8.164062 16.882812 -8.195312 C 16.910156 -8.238281 16.921875 -8.316406 16.921875 -8.425781 C 16.921875 -8.535156 16.898438 -8.609375 16.855469 -8.652344 C 16.660156 -8.832031 16.402344 -8.960938 16.078125 -9.042969 C 15.648438 -9.148438 15.207031 -9.1875 14.753906 -9.15625 C 14.296875 -9.121094 13.921875 -9.046875 13.632812 -8.933594 C 13.546875 -8.894531 13.488281 -8.832031 13.453125 -8.738281 C 13.382812 -8.53125 13.382812 -8.324219 13.453125 -8.117188 C 13.488281 -8.023438 13.554688 -7.953125 13.660156 -7.910156 L 13.003906 -6.34375 Z M 12.398438 -4.753906 L 12.34375 -4.777344 C 11.300781 -5.214844 10.601562 -5.960938 10.238281 -7.015625 C 9.917969 -7.957031 9.917969 -8.898438 10.238281 -9.835938 C 10.601562 -10.890625 11.308594 -11.640625 12.371094 -12.089844 C 12.988281 -12.335938 13.703125 -12.488281 14.511719 -12.542969 C 15.328125 -12.601562 16.125 -12.535156 16.902344 -12.339844 C 17.789062 -12.117188 18.542969 -11.71875 19.164062 -11.144531 C 19.933594 -10.433594 20.320312 -9.523438 20.320312 -8.425781 C 20.320312 -7.722656 20.160156 -7.089844 19.84375 -6.527344 C 19.523438 -5.957031 19.058594 -5.496094 18.449219 -5.144531 C 17.515625 -4.605469 16.464844 -4.324219 15.296875 -4.304688 C 14.203125 -4.285156 13.234375 -4.433594 12.398438 -4.753906 Z M 12.398438 -4.753906 "/></g></g></g><g fill="#cb6ce6" fill-opacity="1"><g transform="translate(175.095251, 51.942432)"><g><path d="M 8.199219 1.789062 C 6.835938 1.789062 5.609375 1.453125 4.515625 0.777344 C 3.457031 0.125 2.558594 -0.828125 1.820312 -2.082031 C 0.492188 -4.339844 -0.289062 -7.246094 -0.519531 -10.808594 C -0.773438 -15.125 -0.296875 -18.957031 0.917969 -22.300781 C 2.164062 -25.742188 4.066406 -28.4375 6.625 -30.390625 C 9.226562 -32.375 12.300781 -33.367188 15.855469 -33.367188 C 19.441406 -33.367188 22.527344 -32.371094 25.113281 -30.386719 C 27.65625 -28.433594 29.550781 -25.746094 30.792969 -22.328125 C 32.007812 -18.992188 32.472656 -15.152344 32.183594 -10.804688 C 31.957031 -7.148438 31.171875 -4.21875 29.835938 -2.015625 C 29.09375 -0.796875 28.191406 0.132812 27.132812 0.765625 C 26.042969 1.417969 24.824219 1.746094 23.46875 1.746094 C 21.9375 1.746094 20.707031 1.425781 19.785156 0.785156 C 18.859375 0.148438 18.203125 -0.675781 17.824219 -1.6875 C 17.492188 -2.558594 17.328125 -3.457031 17.328125 -4.371094 C 17.328125 -5.179688 17.382812 -5.890625 17.488281 -6.5 L 19.164062 -6.207031 L 19.214844 -4.507812 C 18.238281 -4.476562 17.09375 -4.453125 15.785156 -4.441406 C 14.441406 -4.425781 13.308594 -4.449219 12.386719 -4.511719 L 12.503906 -6.207031 L 14.175781 -6.5 C 14.285156 -5.890625 14.339844 -5.179688 14.339844 -4.371094 C 14.339844 -3.457031 14.171875 -2.558594 13.84375 -1.6875 C 13.464844 -0.6875 12.820312 0.140625 11.90625 0.792969 C 10.976562 1.457031 9.742188 1.789062 8.199219 1.789062 Z M 8.199219 -1.609375 C 9.015625 -1.609375 9.589844 -1.730469 9.929688 -1.972656 C 10.285156 -2.226562 10.53125 -2.53125 10.664062 -2.886719 C 10.847656 -3.375 10.941406 -3.867188 10.941406 -4.371094 C 10.941406 -4.980469 10.902344 -5.496094 10.832031 -5.910156 L 10.453125 -8.050781 L 12.621094 -7.902344 C 13.449219 -7.84375 14.492188 -7.824219 15.746094 -7.835938 C 17.035156 -7.851562 18.15625 -7.875 19.109375 -7.90625 L 21.199219 -7.96875 L 20.835938 -5.910156 C 20.761719 -5.496094 20.726562 -4.980469 20.726562 -4.371094 C 20.726562 -3.867188 20.816406 -3.375 21 -2.886719 C 21.132812 -2.539062 21.371094 -2.246094 21.714844 -2.011719 C 22.058594 -1.773438 22.640625 -1.652344 23.46875 -1.652344 C 24.195312 -1.652344 24.835938 -1.820312 25.386719 -2.148438 C 25.964844 -2.496094 26.480469 -3.039062 26.929688 -3.78125 C 27.976562 -5.507812 28.597656 -7.921875 28.792969 -11.03125 C 29.050781 -14.898438 28.652344 -18.277344 27.601562 -21.164062 C 26.582031 -23.964844 25.0625 -26.140625 23.042969 -27.691406 C 21.070312 -29.210938 18.671875 -29.96875 15.855469 -29.96875 C 13.066406 -29.96875 10.679688 -29.207031 8.6875 -27.6875 C 6.65625 -26.140625 5.132812 -23.957031 4.113281 -21.144531 C 3.058594 -18.238281 2.644531 -14.867188 2.875 -11.027344 C 3.066406 -8.003906 3.691406 -5.597656 4.75 -3.808594 C 5.203125 -3.039062 5.71875 -2.472656 6.300781 -2.113281 C 6.847656 -1.777344 7.480469 -1.609375 8.199219 -1.609375 Z M 12.121094 -15.96875 C 14.550781 -16.0625 16.980469 -16.0625 19.410156 -15.96875 L 19.34375 -14.269531 L 17.664062 -14.511719 C 17.785156 -15.382812 17.777344 -16.210938 17.628906 -16.992188 C 17.507812 -17.628906 17.277344 -18.128906 16.933594 -18.492188 C 16.695312 -18.742188 16.289062 -18.867188 15.71875 -18.867188 C 15.160156 -18.867188 14.765625 -18.75 14.542969 -18.507812 C 14.210938 -18.148438 13.992188 -17.660156 13.882812 -17.035156 C 13.746094 -16.257812 13.742188 -15.414062 13.871094 -14.503906 L 12.1875 -14.269531 Z M 12.25 -12.574219 L 10.714844 -12.515625 L 10.503906 -14.035156 C 10.328125 -15.300781 10.339844 -16.496094 10.535156 -17.621094 C 10.757812 -18.902344 11.261719 -19.964844 12.050781 -20.816406 C 12.945312 -21.78125 14.167969 -22.265625 15.71875 -22.265625 C 17.261719 -22.265625 18.488281 -21.789062 19.398438 -20.832031 C 20.203125 -19.984375 20.726562 -18.914062 20.96875 -17.617188 C 21.183594 -16.46875 21.203125 -15.273438 21.027344 -14.03125 L 20.808594 -12.515625 L 19.28125 -12.574219 C 16.9375 -12.660156 14.59375 -12.660156 12.25 -12.574219 Z M 12.25 -12.574219 "/></g></g></g><g fill="#cb6ce6" fill-opacity="1"><g transform="translate(206.759542, 51.942432)"><g/></g></g><g fill="#cb6ce6" fill-opacity="1"><g transform="translate(220.349367, 51.942432)"><g><path d="M 11.960938 1.609375 C 10.289062 1.609375 8.9375 1 7.902344 -0.210938 C 7.035156 -1.234375 6.394531 -2.59375 5.980469 -4.289062 C 5.613281 -5.820312 5.363281 -7.585938 5.234375 -9.585938 L 6.929688 -9.695312 L 6.792969 -8 C 4.703125 -8.171875 3.042969 -8.605469 1.8125 -9.304688 C 1.007812 -9.757812 0.402344 -10.386719 -0.00390625 -11.191406 C -0.378906 -11.929688 -0.566406 -12.792969 -0.566406 -13.773438 C -0.566406 -14.75 -0.378906 -15.613281 -0.00390625 -16.355469 C 0.398438 -17.15625 1 -17.789062 1.796875 -18.253906 C 3.019531 -18.964844 4.675781 -19.425781 6.765625 -19.632812 L 6.929688 -17.941406 L 5.234375 -18.035156 C 5.394531 -20.871094 5.835938 -23.402344 6.5625 -25.625 C 7.351562 -28.046875 8.660156 -29.945312 10.484375 -31.324219 C 12.328125 -32.714844 14.828125 -33.410156 17.984375 -33.410156 C 19.851562 -33.410156 21.5 -32.964844 22.9375 -32.066406 C 23.785156 -31.539062 24.425781 -30.851562 24.859375 -30.007812 C 25.277344 -29.199219 25.484375 -28.269531 25.484375 -27.226562 C 25.484375 -25.050781 24.746094 -23.425781 23.269531 -22.34375 C 22.050781 -21.453125 20.609375 -20.847656 18.9375 -20.53125 C 18.324219 -20.414062 17.921875 -20.191406 17.726562 -19.863281 C 17.394531 -19.300781 17.183594 -18.621094 17.089844 -17.832031 L 15.402344 -18.03125 L 15.441406 -19.730469 C 18.34375 -19.664062 20.597656 -19.34375 22.203125 -18.769531 C 23.289062 -18.382812 24.113281 -17.738281 24.679688 -16.84375 C 25.214844 -16 25.484375 -14.976562 25.484375 -13.773438 C 25.484375 -12.113281 24.960938 -10.824219 23.914062 -9.894531 C 23.007812 -9.089844 21.765625 -8.558594 20.191406 -8.292969 C 18.855469 -8.066406 17.300781 -7.9375 15.523438 -7.90625 L 15.492188 -9.605469 L 17.191406 -9.605469 C 17.191406 -8.414062 17.207031 -7.335938 17.238281 -6.371094 C 17.269531 -5.375 17.285156 -4.457031 17.285156 -3.625 C 17.285156 -2.273438 16.96875 -1.191406 16.34375 -0.371094 C 15.738281 0.421875 14.988281 0.964844 14.09375 1.253906 C 13.363281 1.492188 12.652344 1.609375 11.960938 1.609375 Z M 11.960938 -1.789062 C 12.292969 -1.789062 12.65625 -1.851562 13.042969 -1.980469 C 13.265625 -2.050781 13.46875 -2.203125 13.644531 -2.4375 C 13.804688 -2.644531 13.886719 -3.042969 13.886719 -3.625 C 13.886719 -4.421875 13.871094 -5.304688 13.839844 -6.265625 C 13.808594 -7.265625 13.792969 -8.378906 13.792969 -9.605469 L 13.792969 -11.273438 L 15.464844 -11.304688 C 17.070312 -11.332031 18.457031 -11.445312 19.628906 -11.640625 C 20.5625 -11.800781 21.238281 -12.066406 21.660156 -12.4375 C 21.945312 -12.691406 22.085938 -13.132812 22.085938 -13.773438 C 22.085938 -14.320312 21.992188 -14.738281 21.8125 -15.027344 C 21.660156 -15.261719 21.410156 -15.445312 21.058594 -15.570312 C 19.796875 -16.023438 17.898438 -16.277344 15.367188 -16.332031 L 13.496094 -16.375 L 13.714844 -18.230469 C 13.863281 -19.492188 14.226562 -20.613281 14.800781 -21.585938 C 15.511719 -22.800781 16.679688 -23.5625 18.300781 -23.867188 C 19.46875 -24.089844 20.457031 -24.5 21.261719 -25.085938 C 21.8125 -25.488281 22.085938 -26.203125 22.085938 -27.226562 C 22.085938 -27.722656 22.003906 -28.132812 21.835938 -28.457031 C 21.6875 -28.742188 21.457031 -28.984375 21.140625 -29.183594 C 20.253906 -29.738281 19.203125 -30.011719 17.984375 -30.011719 C 15.585938 -30.011719 13.769531 -29.546875 12.53125 -28.613281 C 11.273438 -27.664062 10.363281 -26.316406 9.792969 -24.570312 C 9.160156 -22.628906 8.769531 -20.386719 8.628906 -17.84375 L 8.546875 -16.390625 L 7.097656 -16.25 C 5.5 -16.09375 4.304688 -15.78125 3.503906 -15.316406 C 3.289062 -15.191406 3.132812 -15.027344 3.03125 -14.824219 C 2.898438 -14.5625 2.832031 -14.210938 2.832031 -13.773438 C 2.832031 -13.332031 2.898438 -12.984375 3.027344 -12.730469 C 3.125 -12.535156 3.28125 -12.378906 3.488281 -12.261719 C 4.28125 -11.808594 5.476562 -11.519531 7.070312 -11.386719 L 8.535156 -11.269531 L 8.628906 -9.800781 C 8.742188 -8 8.960938 -6.425781 9.285156 -5.089844 C 9.570312 -3.917969 9.96875 -3.027344 10.488281 -2.414062 C 10.84375 -2 11.335938 -1.789062 11.960938 -1.789062 Z M 11.960938 -1.789062 "/></g></g></g><g fill="#cb6ce6" fill-opacity="1"><g transform="translate(245.03755, 51.942432)"><g><path d="M 6.433594 -20.273438 C 4.46875 -20.273438 2.808594 -20.984375 1.445312 -22.40625 C 0.105469 -23.804688 -0.566406 -25.503906 -0.566406 -27.5 C -0.566406 -28.828125 -0.257812 -30.03125 0.359375 -31.109375 C 0.972656 -32.171875 1.796875 -33.027344 2.839844 -33.675781 C 3.914062 -34.34375 5.113281 -34.679688 6.433594 -34.679688 C 7.722656 -34.679688 8.90625 -34.34375 9.980469 -33.675781 C 11.015625 -33.03125 11.847656 -32.183594 12.46875 -31.128906 C 13.113281 -30.046875 13.433594 -28.835938 13.433594 -27.5 C 13.433594 -26.167969 13.113281 -24.953125 12.476562 -23.859375 C 11.851562 -22.785156 11.019531 -21.925781 9.980469 -21.277344 C 8.90625 -20.609375 7.722656 -20.273438 6.433594 -20.273438 Z M 6.433594 -23.671875 C 7.074219 -23.671875 7.660156 -23.835938 8.183594 -24.160156 C 8.746094 -24.511719 9.199219 -24.980469 9.539062 -25.566406 C 9.871094 -26.132812 10.035156 -26.777344 10.035156 -27.5 C 10.035156 -28.214844 9.871094 -28.847656 9.546875 -29.394531 C 9.203125 -29.972656 8.75 -30.4375 8.183594 -30.789062 C 7.660156 -31.117188 7.074219 -31.28125 6.433594 -31.28125 C 5.761719 -31.28125 5.160156 -31.117188 4.636719 -30.789062 C 4.078125 -30.441406 3.632812 -29.984375 3.308594 -29.417969 C 2.992188 -28.863281 2.832031 -28.222656 2.832031 -27.5 C 2.832031 -26.414062 3.1875 -25.5 3.898438 -24.753906 C 4.59375 -24.03125 5.4375 -23.671875 6.433594 -23.671875 Z M 6.433594 1.699219 C 4.699219 1.699219 3.371094 1.152344 2.441406 0.0585938 C 1.640625 -0.890625 1.117188 -2.242188 0.875 -4.003906 C 0.671875 -5.507812 0.550781 -7.429688 0.519531 -9.761719 C 0.519531 -12.121094 0.625 -14.058594 0.832031 -15.585938 C 1.074219 -17.378906 1.613281 -18.742188 2.445312 -19.679688 C 3.386719 -20.738281 4.714844 -21.269531 6.433594 -21.269531 C 8.160156 -21.269531 9.484375 -20.734375 10.414062 -19.664062 C 11.21875 -18.734375 11.75 -17.378906 12.011719 -15.601562 C 12.234375 -14.070312 12.34375 -12.132812 12.34375 -9.785156 C 12.375 -7.445312 12.28125 -5.511719 12.054688 -3.988281 C 11.796875 -2.226562 11.253906 -0.871094 10.433594 0.0742188 C 9.492188 1.15625 8.15625 1.699219 6.433594 1.699219 Z M 6.433594 -1.699219 C 7.125 -1.699219 7.605469 -1.851562 7.867188 -2.15625 C 8.253906 -2.601562 8.53125 -3.375 8.695312 -4.484375 C 8.890625 -5.828125 8.976562 -7.597656 8.945312 -9.785156 C 8.945312 -11.96875 8.847656 -13.746094 8.648438 -15.113281 C 8.484375 -16.234375 8.214844 -17.007812 7.84375 -17.4375 C 7.59375 -17.726562 7.125 -17.871094 6.433594 -17.871094 C 5.734375 -17.871094 5.25 -17.722656 4.984375 -17.421875 C 4.609375 -17 4.347656 -16.238281 4.199219 -15.128906 C 4.011719 -13.753906 3.917969 -11.980469 3.917969 -9.808594 C 3.949219 -7.613281 4.054688 -5.832031 4.242188 -4.464844 C 4.394531 -3.359375 4.65625 -2.582031 5.035156 -2.140625 C 5.28125 -1.847656 5.75 -1.699219 6.433594 -1.699219 Z M 6.433594 -1.699219 "/></g></g></g><g fill="#cb6ce6" fill-opacity="1"><g transform="translate(257.902577, 51.942432)"><g><path d="M 19.027344 1.699219 C 17.246094 1.699219 15.933594 1.128906 15.097656 -0.015625 C 14.410156 -0.949219 14.007812 -2.097656 13.890625 -3.453125 C 13.796875 -4.546875 13.75 -5.644531 13.75 -6.75 C 13.75 -8.101562 13.574219 -9.15625 13.226562 -9.910156 C 13.144531 -10.089844 13.046875 -10.214844 12.941406 -10.28125 C 12.8125 -10.359375 12.621094 -10.398438 12.367188 -10.398438 C 12.191406 -10.398438 12.054688 -10.367188 11.957031 -10.304688 C 11.839844 -10.226562 11.730469 -10.085938 11.628906 -9.875 C 11.261719 -9.128906 11.078125 -8.085938 11.078125 -6.75 C 11.078125 -5.652344 11.039062 -4.566406 10.960938 -3.5 C 10.859375 -2.15625 10.476562 -1.015625 9.8125 -0.078125 C 8.988281 1.074219 7.652344 1.652344 5.796875 1.652344 C 4.355469 1.652344 3.152344 1.117188 2.199219 0.0429688 C 1.410156 -0.839844 0.8125 -1.960938 0.410156 -3.320312 C 0.046875 -4.539062 -0.207031 -5.851562 -0.351562 -7.253906 C -0.496094 -8.609375 -0.566406 -9.921875 -0.566406 -11.191406 C -0.566406 -12.453125 -0.503906 -13.742188 -0.378906 -15.066406 C -0.246094 -16.441406 -0.0078125 -17.722656 0.339844 -18.914062 C 0.730469 -20.253906 1.316406 -21.351562 2.09375 -22.207031 C 3.035156 -23.246094 4.242188 -23.761719 5.707031 -23.761719 C 6.9375 -23.761719 7.972656 -23.457031 8.808594 -22.84375 C 9.664062 -22.214844 10.25 -21.316406 10.566406 -20.148438 L 8.925781 -19.707031 L 7.675781 -20.859375 C 8.199219 -21.425781 8.972656 -21.933594 9.992188 -22.375 C 11.007812 -22.816406 12.148438 -23.035156 13.410156 -23.035156 C 16.132812 -23.035156 18.386719 -22.324219 20.175781 -20.902344 C 21.921875 -19.511719 23.1875 -17.621094 23.972656 -15.230469 C 24.710938 -12.984375 25.0625 -10.40625 25.03125 -7.5 C 25.03125 -5.996094 24.886719 -4.617188 24.601562 -3.363281 C 24.28125 -1.9375 23.707031 -0.777344 22.886719 0.125 C 21.933594 1.175781 20.644531 1.699219 19.027344 1.699219 Z M 19.027344 -1.699219 C 19.644531 -1.699219 20.09375 -1.855469 20.375 -2.164062 C 20.792969 -2.621094 21.097656 -3.273438 21.289062 -4.113281 C 21.519531 -5.121094 21.632812 -6.265625 21.632812 -7.539062 C 21.660156 -10.070312 21.363281 -12.28125 20.742188 -14.171875 C 20.167969 -15.917969 19.273438 -17.273438 18.058594 -18.242188 C 16.890625 -19.171875 15.339844 -19.640625 13.410156 -19.640625 C 12.617188 -19.640625 11.929688 -19.511719 11.34375 -19.257812 C 10.765625 -19.007812 10.375 -18.769531 10.171875 -18.554688 L 8.085938 -16.292969 L 7.285156 -19.265625 C 7.175781 -19.667969 7.015625 -19.945312 6.800781 -20.101562 C 6.5625 -20.277344 6.199219 -20.363281 5.707031 -20.363281 C 5.242188 -20.363281 4.875 -20.214844 4.609375 -19.921875 C 4.183594 -19.453125 3.84375 -18.796875 3.601562 -17.960938 C 3.316406 -16.976562 3.117188 -15.90625 3.003906 -14.742188 C 2.890625 -13.527344 2.832031 -12.34375 2.832031 -11.191406 C 2.832031 -10.039062 2.898438 -8.847656 3.027344 -7.605469 C 3.152344 -6.414062 3.363281 -5.304688 3.667969 -4.289062 C 3.925781 -3.414062 4.28125 -2.722656 4.734375 -2.21875 C 5.015625 -1.902344 5.371094 -1.746094 5.796875 -1.746094 C 6.222656 -1.746094 6.550781 -1.792969 6.792969 -1.882812 C 6.914062 -1.929688 6.996094 -1.984375 7.042969 -2.050781 C 7.339844 -2.472656 7.519531 -3.039062 7.570312 -3.75 C 7.640625 -4.734375 7.679688 -5.734375 7.679688 -6.75 C 7.679688 -8.613281 7.976562 -10.15625 8.578125 -11.375 C 8.957031 -12.144531 9.464844 -12.738281 10.105469 -13.152344 C 10.765625 -13.582031 11.519531 -13.796875 12.367188 -13.796875 C 13.261719 -13.796875 14.042969 -13.589844 14.71875 -13.175781 C 15.410156 -12.75 15.941406 -12.136719 16.3125 -11.335938 C 16.867188 -10.128906 17.148438 -8.601562 17.148438 -6.75 C 17.148438 -5.742188 17.191406 -4.742188 17.277344 -3.75 C 17.339844 -3.023438 17.527344 -2.449219 17.835938 -2.023438 C 17.996094 -1.808594 18.394531 -1.699219 19.027344 -1.699219 Z M 19.027344 -1.699219 "/></g></g></g><g fill="#cb6ce6" fill-opacity="1"><g transform="translate(282.364252, 51.942432)"><g><path d="M 11.914062 1.699219 C 9.34375 1.699219 7.105469 1.078125 5.207031 -0.164062 C 3.339844 -1.386719 1.90625 -2.976562 0.910156 -4.9375 C -0.0742188 -6.871094 -0.566406 -8.894531 -0.566406 -11.007812 C -0.566406 -13.691406 -0.00390625 -15.925781 1.121094 -17.714844 C 2.242188 -19.492188 3.683594 -20.820312 5.445312 -21.703125 C 7.164062 -22.5625 8.960938 -22.992188 10.828125 -22.992188 C 11.699219 -22.992188 12.589844 -22.894531 13.488281 -22.707031 C 14.445312 -22.503906 15.347656 -22.164062 16.195312 -21.683594 L 15.359375 -20.207031 L 13.664062 -20.046875 C 13.558594 -21.222656 13.316406 -22.375 12.949219 -23.507812 C 12.484375 -24.933594 12.253906 -26.382812 12.253906 -27.863281 C 12.253906 -29.746094 12.878906 -31.171875 14.132812 -32.148438 C 15.253906 -33.019531 16.480469 -33.457031 17.804688 -33.457031 C 19.320312 -33.457031 20.632812 -32.96875 21.738281 -31.988281 C 22.691406 -31.144531 23.5 -30.046875 24.15625 -28.695312 C 24.773438 -27.433594 25.257812 -26.023438 25.621094 -24.460938 C 25.96875 -22.957031 26.222656 -21.414062 26.382812 -19.832031 C 26.539062 -18.265625 26.617188 -16.757812 26.617188 -15.3125 C 26.617188 -14.832031 26.59375 -14.109375 26.546875 -13.144531 C 26.496094 -12.121094 26.339844 -10.988281 26.082031 -9.753906 C 25.8125 -8.484375 25.390625 -7.207031 24.8125 -5.917969 C 24.207031 -4.5625 23.359375 -3.316406 22.273438 -2.179688 C 21.15625 -1.011719 19.75 -0.0703125 18.050781 0.640625 C 16.363281 1.34375 14.316406 1.699219 11.914062 1.699219 Z M 11.914062 -1.699219 C 13.863281 -1.699219 15.46875 -1.964844 16.742188 -2.496094 C 18.003906 -3.023438 19.027344 -3.699219 19.8125 -4.527344 C 20.632812 -5.382812 21.265625 -6.308594 21.714844 -7.308594 C 22.191406 -8.375 22.539062 -9.425781 22.753906 -10.453125 C 22.980469 -11.511719 23.109375 -12.464844 23.152344 -13.3125 C 23.195312 -14.21875 23.21875 -14.886719 23.21875 -15.3125 C 23.21875 -16.644531 23.144531 -18.039062 23 -19.492188 C 22.855469 -20.929688 22.625 -22.332031 22.308594 -23.695312 C 22.007812 -25.003906 21.605469 -26.175781 21.101562 -27.207031 C 20.640625 -28.152344 20.101562 -28.898438 19.488281 -29.441406 C 19.023438 -29.851562 18.460938 -30.058594 17.804688 -30.058594 C 17.257812 -30.058594 16.726562 -29.859375 16.21875 -29.464844 C 15.839844 -29.171875 15.652344 -28.636719 15.652344 -27.863281 C 15.652344 -26.742188 15.828125 -25.640625 16.179688 -24.558594 C 16.628906 -23.1875 16.917969 -21.785156 17.050781 -20.363281 L 17.351562 -17.128906 L 14.523438 -18.726562 C 13.980469 -19.03125 13.402344 -19.25 12.785156 -19.382812 C 12.117188 -19.523438 11.464844 -19.59375 10.828125 -19.59375 C 9.496094 -19.59375 8.207031 -19.28125 6.964844 -18.664062 C 5.769531 -18.0625 4.78125 -17.144531 3.996094 -15.902344 C 3.21875 -14.667969 2.832031 -13.039062 2.832031 -11.007812 C 2.832031 -9.4375 3.199219 -7.929688 3.9375 -6.480469 C 4.660156 -5.054688 5.707031 -3.898438 7.070312 -3.007812 C 8.402344 -2.136719 10.015625 -1.699219 11.914062 -1.699219 Z M 12.1875 -8.855469 C 12.523438 -8.855469 12.828125 -8.996094 13.097656 -9.273438 C 13.382812 -9.5625 13.523438 -9.898438 13.523438 -10.285156 C 13.523438 -10.675781 13.378906 -11.027344 13.085938 -11.332031 C 12.816406 -11.613281 12.515625 -11.757812 12.1875 -11.757812 C 11.847656 -11.757812 11.535156 -11.609375 11.25 -11.316406 C 10.953125 -11.011719 10.804688 -10.667969 10.804688 -10.285156 C 10.804688 -9.90625 10.949219 -9.574219 11.234375 -9.289062 C 11.523438 -9 11.839844 -8.855469 12.1875 -8.855469 Z M 12.1875 -5.457031 C 10.902344 -5.457031 9.785156 -5.933594 8.832031 -6.886719 C 7.882812 -7.835938 7.40625 -8.96875 7.40625 -10.285156 C 7.40625 -11.589844 7.878906 -12.726562 8.820312 -13.691406 C 9.769531 -14.667969 10.894531 -15.152344 12.1875 -15.152344 C 13.488281 -15.152344 14.605469 -14.660156 15.546875 -13.675781 C 16.460938 -12.714844 16.921875 -11.582031 16.921875 -10.285156 C 16.921875 -8.976562 16.457031 -7.847656 15.53125 -6.898438 C 14.59375 -5.9375 13.480469 -5.457031 12.1875 -5.457031 Z M 12.1875 -5.457031 "/></g></g></g><g fill="#cb6ce6" fill-opacity="1"><g transform="translate(308.411408, 51.942432)"><g><path d="M 12.503906 1.699219 C 9.960938 1.699219 7.710938 1.1875 5.761719 0.167969 C 3.773438 -0.867188 2.226562 -2.296875 1.109375 -4.121094 C -0.0078125 -5.945312 -0.566406 -8.03125 -0.566406 -10.375 C -0.566406 -12.640625 -0.015625 -14.734375 1.085938 -16.65625 C 2.183594 -18.574219 3.699219 -20.109375 5.632812 -21.257812 C 7.578125 -22.414062 9.792969 -22.992188 12.277344 -22.992188 C 14.597656 -22.992188 16.613281 -22.511719 18.320312 -21.550781 C 20.027344 -20.589844 21.339844 -19.359375 22.265625 -17.855469 C 23.203125 -16.328125 23.671875 -14.710938 23.671875 -13.003906 C 23.671875 -11.25 23.25 -9.78125 22.40625 -8.597656 C 21.597656 -7.460938 20.550781 -6.59375 19.265625 -6 C 18.097656 -5.460938 16.851562 -5.101562 15.535156 -4.929688 C 14.257812 -4.761719 13.023438 -4.738281 11.835938 -4.855469 C 10.652344 -4.972656 9.640625 -5.171875 8.796875 -5.457031 L 9.332031 -7.066406 L 10.777344 -7.964844 C 11.117188 -7.410156 11.527344 -7.046875 12 -6.863281 C 12.609375 -6.632812 13.253906 -6.535156 13.9375 -6.566406 C 14.773438 -6.609375 15.53125 -6.695312 16.203125 -6.832031 L 16.535156 -5.164062 L 16.160156 -6.820312 C 17.492188 -7.121094 18.640625 -7.03125 19.605469 -6.546875 C 20.179688 -6.261719 20.632812 -5.867188 20.957031 -5.371094 C 21.285156 -4.871094 21.464844 -4.296875 21.496094 -3.65625 C 21.546875 -2.710938 21.246094 -1.800781 20.589844 -0.929688 C 19.976562 -0.113281 18.984375 0.542969 17.605469 1.035156 C 16.363281 1.476562 14.664062 1.699219 12.503906 1.699219 Z M 12.503906 -1.699219 C 14.269531 -1.699219 15.589844 -1.855469 16.460938 -2.167969 C 17.199219 -2.429688 17.667969 -2.695312 17.871094 -2.96875 C 18.03125 -3.179688 18.109375 -3.359375 18.101562 -3.5 C 18.097656 -3.527344 18.097656 -3.542969 18.09375 -3.550781 C 18.097656 -3.539062 18.105469 -3.523438 18.117188 -3.507812 C 18.125 -3.492188 18.136719 -3.480469 18.144531 -3.476562 C 18.132812 -3.484375 18.113281 -3.496094 18.085938 -3.507812 C 17.84375 -3.628906 17.453125 -3.628906 16.910156 -3.507812 L 16.890625 -3.503906 L 16.867188 -3.5 C 16.03125 -3.332031 15.109375 -3.222656 14.105469 -3.171875 C 12.945312 -3.117188 11.839844 -3.289062 10.789062 -3.691406 C 9.601562 -4.144531 8.632812 -4.972656 7.890625 -6.171875 L 5.410156 -10.167969 L 9.871094 -8.679688 C 10.476562 -8.476562 11.242188 -8.332031 12.175781 -8.238281 C 13.101562 -8.144531 14.074219 -8.164062 15.089844 -8.300781 C 16.066406 -8.425781 16.984375 -8.6875 17.839844 -9.085938 C 18.578125 -9.425781 19.175781 -9.921875 19.636719 -10.566406 C 20.0625 -11.164062 20.273438 -11.976562 20.273438 -13.003906 C 20.273438 -14.070312 19.972656 -15.097656 19.371094 -16.078125 C 18.753906 -17.078125 17.847656 -17.917969 16.652344 -18.589844 C 15.464844 -19.257812 14.003906 -19.59375 12.277344 -19.59375 C 10.414062 -19.59375 8.777344 -19.175781 7.371094 -18.335938 C 5.949219 -17.492188 4.835938 -16.367188 4.035156 -14.964844 C 3.234375 -13.566406 2.832031 -12.035156 2.832031 -10.375 C 2.832031 -8.667969 3.222656 -7.175781 4.007812 -5.890625 C 4.796875 -4.605469 5.90625 -3.589844 7.332031 -2.84375 C 8.792969 -2.082031 10.515625 -1.699219 12.503906 -1.699219 Z M 10.910156 -13.496094 C 10.996094 -13.351562 11.140625 -13.25 11.332031 -13.183594 C 11.671875 -13.066406 12.011719 -13.027344 12.351562 -13.0625 C 12.664062 -13.09375 12.90625 -13.167969 13.078125 -13.28125 C 13.046875 -13.261719 13.015625 -13.222656 12.984375 -13.164062 C 12.949219 -13.101562 12.933594 -13.046875 12.933594 -13.003906 C 12.933594 -13.046875 12.894531 -13.105469 12.820312 -13.183594 C 12.8125 -13.191406 12.777344 -13.203125 12.71875 -13.222656 C 12.566406 -13.273438 12.359375 -13.296875 12.097656 -13.296875 C 11.769531 -13.296875 11.550781 -13.230469 11.4375 -13.097656 C 11.257812 -12.886719 11.167969 -12.71875 11.167969 -12.59375 L 9.46875 -12.59375 Z M 8.027344 -11.695312 L 7.769531 -12.105469 L 7.769531 -12.59375 C 7.769531 -13.558594 8.132812 -14.460938 8.859375 -15.308594 C 9.648438 -16.230469 10.730469 -16.695312 12.097656 -16.695312 C 13.441406 -16.695312 14.484375 -16.324219 15.222656 -15.585938 C 15.960938 -14.847656 16.332031 -13.984375 16.332031 -13.003906 C 16.332031 -12.472656 16.214844 -11.988281 15.976562 -11.550781 C 15.738281 -11.113281 15.402344 -10.746094 14.964844 -10.457031 C 14.324219 -10.027344 13.566406 -9.769531 12.699219 -9.679688 C 11.863281 -9.59375 11.042969 -9.691406 10.230469 -9.96875 C 9.277344 -10.292969 8.542969 -10.871094 8.027344 -11.695312 Z M 8.027344 -11.695312 "/></g></g></g><g fill="#cb6ce6" fill-opacity="1"><g transform="translate(331.514111, 51.942432)"><g><path d="M 5.980469 1.699219 C 4.46875 1.699219 3.222656 1.183594 2.238281 0.15625 C 1.394531 -0.726562 0.769531 -1.875 0.359375 -3.289062 C -0.00390625 -4.542969 -0.25 -5.96875 -0.378906 -7.5625 C -0.503906 -9.089844 -0.566406 -10.660156 -0.566406 -12.277344 C -0.566406 -13.359375 -0.542969 -14.460938 -0.496094 -15.585938 C -0.445312 -16.816406 -0.277344 -17.964844 0.015625 -19.023438 C 0.355469 -20.265625 0.949219 -21.285156 1.796875 -22.09375 C 2.742188 -22.996094 4.015625 -23.445312 5.617188 -23.445312 C 6.730469 -23.445312 7.753906 -23.183594 8.675781 -22.65625 C 9.769531 -22.035156 10.460938 -21.109375 10.757812 -19.875 L 9.105469 -19.480469 L 7.960938 -20.734375 C 8.859375 -21.554688 9.976562 -22.144531 11.316406 -22.503906 C 12.53125 -22.828125 13.789062 -22.992188 15.085938 -22.992188 C 16.304688 -22.992188 17.527344 -22.703125 18.753906 -22.128906 C 19.972656 -21.554688 21.007812 -20.769531 21.859375 -19.765625 C 22.828125 -18.632812 23.308594 -17.34375 23.308594 -15.902344 C 23.308594 -14.617188 22.855469 -13.425781 21.945312 -12.328125 C 20.957031 -11.128906 19.605469 -10.53125 17.894531 -10.53125 C 17.160156 -10.53125 16.519531 -10.644531 15.984375 -10.863281 L 15.039062 -11.246094 C 14.941406 -11.285156 14.792969 -11.304688 14.585938 -11.304688 C 13.929688 -11.304688 13.304688 -11.015625 12.710938 -10.445312 C 12.136719 -9.886719 11.847656 -9.09375 11.847656 -8.0625 C 11.847656 -7.25 11.824219 -6.371094 11.777344 -5.421875 C 11.726562 -4.378906 11.570312 -3.375 11.3125 -2.414062 C 11 -1.25 10.4375 -0.292969 9.621094 0.457031 C 8.722656 1.285156 7.507812 1.699219 5.980469 1.699219 Z M 5.980469 -1.699219 C 6.625 -1.699219 7.070312 -1.8125 7.320312 -2.042969 C 7.652344 -2.347656 7.890625 -2.765625 8.03125 -3.292969 C 8.226562 -4.023438 8.34375 -4.789062 8.382812 -5.585938 C 8.425781 -6.480469 8.449219 -7.304688 8.449219 -8.0625 C 8.449219 -10.054688 9.082031 -11.660156 10.347656 -12.886719 C 11.597656 -14.097656 13.011719 -14.699219 14.585938 -14.699219 C 15.230469 -14.699219 15.804688 -14.597656 16.3125 -14.394531 L 17.269531 -14.007812 C 17.394531 -13.957031 17.605469 -13.929688 17.894531 -13.929688 C 18.539062 -13.929688 19.015625 -14.117188 19.328125 -14.492188 C 19.714844 -14.964844 19.910156 -15.433594 19.910156 -15.902344 C 19.910156 -16.511719 19.699219 -17.066406 19.273438 -17.5625 C 18.738281 -18.191406 18.082031 -18.6875 17.308594 -19.050781 C 16.539062 -19.414062 15.800781 -19.59375 15.085938 -19.59375 C 14.085938 -19.59375 13.125 -19.46875 12.195312 -19.222656 C 11.390625 -19.003906 10.742188 -18.671875 10.25 -18.226562 L 8.125 -16.285156 L 7.453125 -19.082031 C 7.386719 -19.359375 7.234375 -19.566406 7 -19.703125 C 6.59375 -19.929688 6.132812 -20.046875 5.617188 -20.046875 C 4.921875 -20.046875 4.429688 -19.90625 4.136719 -19.632812 C 3.746094 -19.257812 3.464844 -18.757812 3.292969 -18.125 C 3.070312 -17.3125 2.9375 -16.421875 2.898438 -15.445312 C 2.855469 -14.367188 2.832031 -13.3125 2.832031 -12.277344 C 2.832031 -10.753906 2.890625 -9.273438 3.007812 -7.839844 C 3.117188 -6.472656 3.324219 -5.269531 3.625 -4.234375 C 3.878906 -3.351562 4.238281 -2.671875 4.695312 -2.191406 C 5.007812 -1.863281 5.4375 -1.699219 5.980469 -1.699219 Z M 5.980469 -1.699219 "/></g></g></g><g fill="#ebcdff" fill-opacity="1"><g transform="translate(1.954777, 51.942432)"><g><path d="M 6.203125 0 C 4.929688 0 3.945312 -0.367188 3.25 -1.109375 C 2.5625 -1.847656 2.066406 -2.828125 1.765625 -4.046875 C 1.460938 -5.273438 1.28125 -6.628906 1.21875 -8.109375 C 1.15625 -9.585938 1.125 -11.066406 1.125 -12.546875 C 1.125 -13.273438 1.128906 -14.21875 1.140625 -15.375 C 1.160156 -16.539062 1.175781 -17.734375 1.1875 -18.953125 C 1.207031 -20.179688 1.234375 -21.269531 1.265625 -22.21875 C 1.296875 -23.164062 1.328125 -23.820312 1.359375 -24.1875 C 1.421875 -26.363281 1.875 -28.160156 2.71875 -29.578125 C 3.5625 -30.992188 4.816406 -31.703125 6.484375 -31.703125 C 8.378906 -31.703125 9.679688 -30.878906 10.390625 -29.234375 C 11.097656 -27.585938 11.453125 -25.226562 11.453125 -22.15625 C 11.453125 -21.820312 11.453125 -21.367188 11.453125 -20.796875 C 12.035156 -21.847656 12.738281 -22.992188 13.5625 -24.234375 C 14.394531 -25.472656 15.304688 -26.648438 16.296875 -27.765625 C 17.296875 -28.878906 18.351562 -29.789062 19.46875 -30.5 C 20.59375 -31.21875 21.726562 -31.578125 22.875 -31.578125 C 24.289062 -31.578125 25.457031 -31.039062 26.375 -29.96875 C 27.300781 -28.894531 27.765625 -27.570312 27.765625 -26 C 27.765625 -24.582031 27.347656 -23.203125 26.515625 -21.859375 C 25.691406 -20.515625 24.550781 -19.296875 23.09375 -18.203125 C 21.644531 -17.117188 19.957031 -16.226562 18.03125 -15.53125 C 19.144531 -15.019531 20.273438 -14.410156 21.421875 -13.703125 C 22.566406 -12.992188 23.613281 -12.207031 24.5625 -11.34375 C 25.519531 -10.488281 26.285156 -9.5625 26.859375 -8.5625 C 27.429688 -7.5625 27.71875 -6.488281 27.71875 -5.34375 C 27.71875 -4.070312 27.46875 -3.046875 26.96875 -2.265625 C 26.476562 -1.484375 25.835938 -0.910156 25.046875 -0.546875 C 24.265625 -0.179688 23.4375 0 22.5625 0 C 21.019531 0 19.582031 -0.492188 18.25 -1.484375 C 16.925781 -2.484375 15.695312 -3.785156 14.5625 -5.390625 C 13.425781 -6.992188 12.378906 -8.671875 11.421875 -10.421875 C 11.421875 -9.085938 11.363281 -7.800781 11.25 -6.5625 C 11.144531 -5.320312 10.925781 -4.203125 10.59375 -3.203125 C 10.257812 -2.210938 9.742188 -1.429688 9.046875 -0.859375 C 8.359375 -0.285156 7.410156 0 6.203125 0 Z M 6.203125 0 "/></g></g></g><g fill="#ebcdff" fill-opacity="1"><g transform="translate(30.855805, 51.942432)"><g><path d="M 16.578125 0.046875 C 14.492188 0.078125 12.53125 -0.296875 10.6875 -1.078125 C 8.84375 -1.867188 7.210938 -2.988281 5.796875 -4.4375 C 4.378906 -5.882812 3.257812 -7.570312 2.4375 -9.5 C 1.625 -11.4375 1.1875 -13.539062 1.125 -15.8125 C 1.101562 -17.976562 1.484375 -20.015625 2.265625 -21.921875 C 3.046875 -23.828125 4.144531 -25.503906 5.5625 -26.953125 C 6.988281 -28.398438 8.632812 -29.539062 10.5 -30.375 C 12.375 -31.207031 14.398438 -31.625 16.578125 -31.625 C 18.660156 -31.644531 20.625 -31.265625 22.46875 -30.484375 C 24.3125 -29.703125 25.941406 -28.59375 27.359375 -27.15625 C 28.773438 -25.71875 29.898438 -24.03125 30.734375 -22.09375 C 31.566406 -20.164062 32 -18.070312 32.03125 -15.8125 C 32.082031 -13.632812 31.707031 -11.59375 30.90625 -9.6875 C 30.113281 -7.789062 29.003906 -6.125 27.578125 -4.6875 C 26.160156 -3.25 24.507812 -2.113281 22.625 -1.28125 C 20.738281 -0.457031 18.722656 -0.015625 16.578125 0.046875 Z M 16.71875 -8.78125 C 18.039062 -8.78125 19.207031 -9.265625 20.21875 -10.234375 C 21.238281 -11.203125 21.734375 -12.515625 21.703125 -14.171875 C 21.703125 -15.867188 21.203125 -17.195312 20.203125 -18.15625 C 19.203125 -19.125 18.039062 -19.609375 16.71875 -19.609375 C 15.382812 -19.609375 14.21875 -19.125 13.21875 -18.15625 C 12.226562 -17.195312 11.734375 -15.867188 11.734375 -14.171875 C 11.734375 -12.515625 12.226562 -11.203125 13.21875 -10.234375 C 14.21875 -9.265625 15.382812 -8.78125 16.71875 -8.78125 Z M 16.71875 -8.78125 "/></g></g></g><g fill="#ebcdff" fill-opacity="1"><g transform="translate(64.017856, 51.942432)"><g/></g></g><g fill="#ebcdff" fill-opacity="1"><g transform="translate(77.607681, 51.942432)"><g/></g></g><g fill="#ebcdff" fill-opacity="1"><g transform="translate(91.197506, 51.942432)"><g/></g></g><g fill="#ebcdff" fill-opacity="1"><g transform="translate(104.78733, 51.942432)"><g/></g></g><g fill="#ebcdff" fill-opacity="1"><g transform="translate(118.377155, 51.942432)"><g/></g></g><g fill="#ebcdff" fill-opacity="1"><g transform="translate(131.96698, 51.942432)"><g/></g></g><g fill="#ebcdff" fill-opacity="1"><g transform="translate(145.560034, 51.942432)"><g><path d="M 16.125 -0.046875 C 12.894531 -0.078125 10.160156 -0.601562 7.921875 -1.625 C 5.691406 -2.65625 4 -4.3125 2.84375 -6.59375 C 1.695312 -8.875 1.125 -11.898438 1.125 -15.671875 C 1.125 -18.960938 1.660156 -21.800781 2.734375 -24.1875 C 3.804688 -26.570312 5.367188 -28.421875 7.421875 -29.734375 C 9.484375 -31.046875 12.007812 -31.703125 15 -31.703125 C 17.625 -31.703125 19.914062 -31.320312 21.875 -30.5625 C 23.84375 -29.8125 25.390625 -28.734375 26.515625 -27.328125 C 27.648438 -25.929688 28.28125 -24.265625 28.40625 -22.328125 C 28.519531 -20.484375 28.207031 -18.878906 27.46875 -17.515625 C 26.726562 -16.160156 25.632812 -14.957031 24.1875 -13.90625 C 25.25 -13.726562 26.207031 -13.140625 27.0625 -12.140625 C 27.925781 -11.140625 28.359375 -9.929688 28.359375 -8.515625 C 28.359375 -7.546875 28.160156 -6.5625 27.765625 -5.5625 C 27.367188 -4.570312 26.710938 -3.65625 25.796875 -2.8125 C 24.878906 -1.96875 23.625 -1.296875 22.03125 -0.796875 C 20.445312 -0.296875 18.476562 -0.046875 16.125 -0.046875 Z M 13 -16.9375 C 13.632812 -16.664062 14.390625 -16.535156 15.265625 -16.546875 C 16.140625 -16.566406 16.914062 -16.800781 17.59375 -17.25 C 18.269531 -17.707031 18.609375 -18.40625 18.609375 -19.34375 C 18.609375 -20.039062 18.40625 -20.597656 18 -21.015625 C 17.59375 -21.441406 17.085938 -21.738281 16.484375 -21.90625 C 15.878906 -22.070312 15.257812 -22.140625 14.625 -22.109375 C 13.988281 -22.078125 13.445312 -21.941406 13 -21.703125 C 12.425781 -21.429688 12.039062 -20.960938 11.84375 -20.296875 C 11.644531 -19.628906 11.644531 -18.96875 11.84375 -18.3125 C 12.039062 -17.664062 12.425781 -17.207031 13 -16.9375 Z M 13 -6.34375 C 13.632812 -6.101562 14.390625 -5.988281 15.265625 -6 C 16.140625 -6.019531 16.914062 -6.222656 17.59375 -6.609375 C 18.269531 -7.003906 18.609375 -7.609375 18.609375 -8.421875 C 18.609375 -9.023438 18.40625 -9.515625 18 -9.890625 C 17.59375 -10.273438 17.085938 -10.539062 16.484375 -10.6875 C 15.878906 -10.84375 15.257812 -10.894531 14.625 -10.84375 C 13.988281 -10.800781 13.445312 -10.691406 13 -10.515625 C 12.425781 -10.265625 12.039062 -9.851562 11.84375 -9.28125 C 11.644531 -8.707031 11.644531 -8.132812 11.84375 -7.5625 C 12.039062 -6.988281 12.425781 -6.582031 13 -6.34375 Z M 13 -6.34375 "/></g></g></g><g fill="#ebcdff" fill-opacity="1"><g transform="translate(175.095251, 51.942432)"><g><path d="M 8.203125 0.09375 C 6.117188 0.09375 4.476562 -0.914062 3.28125 -2.9375 C 2.09375 -4.96875 1.390625 -7.628906 1.171875 -10.921875 C 0.929688 -14.992188 1.378906 -18.59375 2.515625 -21.71875 C 3.648438 -24.84375 5.363281 -27.28125 7.65625 -29.03125 C 9.945312 -30.78125 12.679688 -31.65625 15.859375 -31.65625 C 19.054688 -31.65625 21.796875 -30.78125 24.078125 -29.03125 C 26.359375 -27.28125 28.0625 -24.847656 29.1875 -21.734375 C 30.320312 -18.628906 30.753906 -15.023438 30.484375 -10.921875 C 30.273438 -7.535156 29.570312 -4.859375 28.375 -2.890625 C 27.1875 -0.929688 25.550781 0.046875 23.46875 0.046875 C 22.289062 0.046875 21.382812 -0.171875 20.75 -0.609375 C 20.113281 -1.046875 19.664062 -1.601562 19.40625 -2.28125 C 19.15625 -2.96875 19.03125 -3.664062 19.03125 -4.375 C 19.03125 -5.082031 19.070312 -5.691406 19.15625 -6.203125 C 18.195312 -6.171875 17.066406 -6.144531 15.765625 -6.125 C 14.460938 -6.113281 13.375 -6.140625 12.5 -6.203125 C 12.59375 -5.691406 12.640625 -5.082031 12.640625 -4.375 C 12.640625 -3.664062 12.507812 -2.96875 12.25 -2.28125 C 12 -1.601562 11.554688 -1.035156 10.921875 -0.578125 C 10.285156 -0.128906 9.378906 0.09375 8.203125 0.09375 Z M 12.1875 -14.265625 C 14.570312 -14.359375 16.957031 -14.359375 19.34375 -14.265625 C 19.488281 -15.328125 19.472656 -16.335938 19.296875 -17.296875 C 19.117188 -18.265625 18.738281 -19.050781 18.15625 -19.65625 C 17.582031 -20.257812 16.769531 -20.5625 15.71875 -20.5625 C 14.65625 -20.5625 13.84375 -20.257812 13.28125 -19.65625 C 12.726562 -19.050781 12.367188 -18.273438 12.203125 -17.328125 C 12.035156 -16.378906 12.03125 -15.359375 12.1875 -14.265625 Z M 12.1875 -14.265625 "/></g></g></g><g fill="#ebcdff" fill-opacity="1"><g transform="translate(206.759542, 51.942432)"><g/></g></g><g fill="#ebcdff" fill-opacity="1"><g transform="translate(220.349367, 51.942432)"><g><path d="M 11.953125 -0.09375 C 10.804688 -0.09375 9.882812 -0.5 9.1875 -1.3125 C 8.5 -2.125 7.976562 -3.25 7.625 -4.6875 C 7.28125 -6.125 7.050781 -7.789062 6.9375 -9.6875 C 5.09375 -9.84375 3.660156 -10.207031 2.640625 -10.78125 C 1.628906 -11.351562 1.125 -12.347656 1.125 -13.765625 C 1.125 -15.191406 1.628906 -16.195312 2.640625 -16.78125 C 3.660156 -17.375 5.09375 -17.757812 6.9375 -17.9375 C 7.082031 -20.625 7.492188 -23.007812 8.171875 -25.09375 C 8.847656 -27.175781 9.957031 -28.796875 11.5 -29.953125 C 13.039062 -31.117188 15.203125 -31.703125 17.984375 -31.703125 C 19.523438 -31.703125 20.875 -31.335938 22.03125 -30.609375 C 23.195312 -29.890625 23.78125 -28.757812 23.78125 -27.21875 C 23.78125 -25.625 23.273438 -24.457031 22.265625 -23.71875 C 21.253906 -22.976562 20.035156 -22.472656 18.609375 -22.203125 C 17.492188 -21.984375 16.707031 -21.488281 16.25 -20.71875 C 15.800781 -19.945312 15.519531 -19.050781 15.40625 -18.03125 C 18.125 -17.96875 20.195312 -17.675781 21.625 -17.15625 C 23.0625 -16.644531 23.78125 -15.515625 23.78125 -13.765625 C 23.78125 -12.617188 23.445312 -11.75 22.78125 -11.15625 C 22.113281 -10.570312 21.15625 -10.171875 19.90625 -9.953125 C 18.65625 -9.742188 17.179688 -9.628906 15.484375 -9.609375 C 15.484375 -8.398438 15.5 -7.300781 15.53125 -6.3125 C 15.5625 -5.332031 15.578125 -4.4375 15.578125 -3.625 C 15.578125 -2.65625 15.378906 -1.914062 14.984375 -1.40625 C 14.597656 -0.894531 14.125 -0.546875 13.5625 -0.359375 C 13.007812 -0.179688 12.472656 -0.09375 11.953125 -0.09375 Z M 11.953125 -0.09375 "/></g></g></g><g fill="#ebcdff" fill-opacity="1"><g transform="translate(245.03755, 51.942432)"><g><path d="M 6.4375 -21.96875 C 4.957031 -21.96875 3.703125 -22.503906 2.671875 -23.578125 C 1.640625 -24.648438 1.125 -25.957031 1.125 -27.5 C 1.125 -28.519531 1.359375 -29.4375 1.828125 -30.25 C 2.296875 -31.070312 2.929688 -31.726562 3.734375 -32.21875 C 4.535156 -32.71875 5.4375 -32.96875 6.4375 -32.96875 C 7.394531 -32.96875 8.273438 -32.71875 9.078125 -32.21875 C 9.878906 -31.726562 10.519531 -31.070312 11 -30.25 C 11.488281 -29.4375 11.734375 -28.519531 11.734375 -27.5 C 11.734375 -26.46875 11.488281 -25.535156 11 -24.703125 C 10.519531 -23.878906 9.878906 -23.21875 9.078125 -22.71875 C 8.273438 -22.21875 7.394531 -21.96875 6.4375 -21.96875 Z M 6.4375 0 C 5.226562 0 4.328125 -0.34375 3.734375 -1.03125 C 3.148438 -1.726562 2.757812 -2.796875 2.5625 -4.234375 C 2.363281 -5.671875 2.25 -7.519531 2.21875 -9.78125 C 2.21875 -12.050781 2.316406 -13.910156 2.515625 -15.359375 C 2.710938 -16.804688 3.113281 -17.867188 3.71875 -18.546875 C 4.320312 -19.222656 5.226562 -19.5625 6.4375 -19.5625 C 7.644531 -19.5625 8.539062 -19.222656 9.125 -18.546875 C 9.71875 -17.867188 10.117188 -16.804688 10.328125 -15.359375 C 10.535156 -13.910156 10.640625 -12.050781 10.640625 -9.78125 C 10.671875 -7.519531 10.582031 -5.671875 10.375 -4.234375 C 10.164062 -2.796875 9.757812 -1.726562 9.15625 -1.03125 C 8.550781 -0.34375 7.644531 0 6.4375 0 Z M 6.4375 0 "/></g></g></g><g fill="#ebcdff" fill-opacity="1"><g transform="translate(257.902577, 51.942432)"><g><path d="M 19.03125 0 C 17.820312 0 16.96875 -0.335938 16.46875 -1.015625 C 15.96875 -1.691406 15.671875 -2.550781 15.578125 -3.59375 C 15.492188 -4.632812 15.453125 -5.6875 15.453125 -6.75 C 15.453125 -8.351562 15.222656 -9.644531 14.765625 -10.625 C 14.316406 -11.601562 13.515625 -12.09375 12.359375 -12.09375 C 11.335938 -12.09375 10.582031 -11.601562 10.09375 -10.625 C 9.613281 -9.644531 9.375 -8.351562 9.375 -6.75 C 9.375 -5.6875 9.335938 -4.640625 9.265625 -3.609375 C 9.191406 -2.585938 8.910156 -1.738281 8.421875 -1.0625 C 7.941406 -0.382812 7.066406 -0.046875 5.796875 -0.046875 C 4.859375 -0.046875 4.078125 -0.390625 3.453125 -1.078125 C 2.835938 -1.773438 2.363281 -2.679688 2.03125 -3.796875 C 1.707031 -4.921875 1.472656 -6.128906 1.328125 -7.421875 C 1.191406 -8.722656 1.125 -9.976562 1.125 -11.1875 C 1.125 -12.394531 1.1875 -13.632812 1.3125 -14.90625 C 1.4375 -16.175781 1.65625 -17.351562 1.96875 -18.4375 C 2.289062 -19.519531 2.753906 -20.394531 3.359375 -21.0625 C 3.960938 -21.726562 4.742188 -22.0625 5.703125 -22.0625 C 7.429688 -22.0625 8.503906 -21.273438 8.921875 -19.703125 C 9.285156 -20.097656 9.867188 -20.46875 10.671875 -20.8125 C 11.472656 -21.15625 12.382812 -21.328125 13.40625 -21.328125 C 15.726562 -21.328125 17.628906 -20.738281 19.109375 -19.5625 C 20.585938 -18.382812 21.664062 -16.757812 22.34375 -14.6875 C 23.03125 -12.625 23.359375 -10.234375 23.328125 -7.515625 C 23.328125 -6.128906 23.195312 -4.867188 22.9375 -3.734375 C 22.6875 -2.597656 22.25 -1.691406 21.625 -1.015625 C 21.007812 -0.335938 20.144531 0 19.03125 0 Z M 19.03125 0 "/></g></g></g><g fill="#ebcdff" fill-opacity="1"><g transform="translate(282.364252, 51.942432)"><g><path d="M 11.90625 0 C 9.675781 0 7.753906 -0.523438 6.140625 -1.578125 C 4.523438 -2.640625 3.285156 -4.015625 2.421875 -5.703125 C 1.554688 -7.398438 1.125 -9.164062 1.125 -11 C 1.125 -13.363281 1.597656 -15.296875 2.546875 -16.796875 C 3.503906 -18.304688 4.722656 -19.429688 6.203125 -20.171875 C 7.679688 -20.921875 9.222656 -21.296875 10.828125 -21.296875 C 11.578125 -21.296875 12.34375 -21.210938 13.125 -21.046875 C 13.914062 -20.878906 14.660156 -20.597656 15.359375 -20.203125 C 15.234375 -21.503906 14.96875 -22.78125 14.5625 -24.03125 C 14.15625 -25.28125 13.953125 -26.554688 13.953125 -27.859375 C 13.953125 -29.179688 14.359375 -30.160156 15.171875 -30.796875 C 15.984375 -31.429688 16.859375 -31.75 17.796875 -31.75 C 18.890625 -31.75 19.828125 -31.398438 20.609375 -30.703125 C 21.390625 -30.015625 22.0625 -29.097656 22.625 -27.953125 C 23.1875 -26.804688 23.628906 -25.515625 23.953125 -24.078125 C 24.285156 -22.640625 24.523438 -21.164062 24.671875 -19.65625 C 24.828125 -18.144531 24.90625 -16.695312 24.90625 -15.3125 C 24.90625 -14.851562 24.882812 -14.15625 24.84375 -13.21875 C 24.800781 -12.289062 24.65625 -11.25 24.40625 -10.09375 C 24.164062 -8.945312 23.78125 -7.785156 23.25 -6.609375 C 22.726562 -5.429688 21.988281 -4.34375 21.03125 -3.34375 C 20.082031 -2.351562 18.867188 -1.546875 17.390625 -0.921875 C 15.910156 -0.304688 14.082031 0 11.90625 0 Z M 12.1875 -7.15625 C 13 -7.15625 13.707031 -7.460938 14.3125 -8.078125 C 14.914062 -8.703125 15.21875 -9.4375 15.21875 -10.28125 C 15.21875 -11.125 14.914062 -11.863281 14.3125 -12.5 C 13.707031 -13.132812 13 -13.453125 12.1875 -13.453125 C 11.375 -13.453125 10.65625 -13.132812 10.03125 -12.5 C 9.414062 -11.863281 9.109375 -11.125 9.109375 -10.28125 C 9.109375 -9.4375 9.414062 -8.703125 10.03125 -8.078125 C 10.65625 -7.460938 11.375 -7.15625 12.1875 -7.15625 Z M 12.1875 -7.15625 "/></g></g></g><g fill="#ebcdff" fill-opacity="1"><g transform="translate(308.411408, 51.942432)"><g><path d="M 12.5 0 C 10.238281 0 8.253906 -0.441406 6.546875 -1.328125 C 4.835938 -2.222656 3.503906 -3.445312 2.546875 -5 C 1.597656 -6.5625 1.125 -8.351562 1.125 -10.375 C 1.125 -12.332031 1.597656 -14.140625 2.546875 -15.796875 C 3.503906 -17.460938 4.820312 -18.796875 6.5 -19.796875 C 8.175781 -20.796875 10.101562 -21.296875 12.28125 -21.296875 C 14.300781 -21.296875 16.035156 -20.882812 17.484375 -20.0625 C 18.929688 -19.25 20.039062 -18.210938 20.8125 -16.953125 C 21.582031 -15.703125 21.96875 -14.382812 21.96875 -13 C 21.96875 -11.613281 21.648438 -10.472656 21.015625 -9.578125 C 20.378906 -8.691406 19.554688 -8.015625 18.546875 -7.546875 C 17.535156 -7.078125 16.457031 -6.765625 15.3125 -6.609375 C 14.164062 -6.460938 13.0625 -6.441406 12 -6.546875 C 10.945312 -6.648438 10.054688 -6.820312 9.328125 -7.0625 C 9.867188 -6.1875 10.554688 -5.585938 11.390625 -5.265625 C 12.222656 -4.953125 13.097656 -4.816406 14.015625 -4.859375 C 14.941406 -4.910156 15.78125 -5.007812 16.53125 -5.15625 C 17.46875 -5.375 18.238281 -5.332031 18.84375 -5.03125 C 19.445312 -4.726562 19.765625 -4.242188 19.796875 -3.578125 C 19.828125 -3.035156 19.632812 -2.488281 19.21875 -1.9375 C 18.8125 -1.394531 18.082031 -0.9375 17.03125 -0.5625 C 15.976562 -0.1875 14.46875 0 12.5 0 Z M 9.46875 -12.59375 C 9.769531 -12.113281 10.207031 -11.773438 10.78125 -11.578125 C 11.351562 -11.378906 11.929688 -11.304688 12.515625 -11.359375 C 13.109375 -11.421875 13.609375 -11.585938 14.015625 -11.859375 C 14.421875 -12.140625 14.625 -12.519531 14.625 -13 C 14.625 -13.507812 14.421875 -13.96875 14.015625 -14.375 C 13.609375 -14.789062 12.96875 -15 12.09375 -15 C 11.25 -15 10.597656 -14.734375 10.140625 -14.203125 C 9.691406 -13.671875 9.46875 -13.132812 9.46875 -12.59375 Z M 9.46875 -12.59375 "/></g></g></g><g fill="#ebcdff" fill-opacity="1"><g transform="translate(331.514111, 51.942432)"><g><path d="M 5.984375 0 C 4.953125 0 4.109375 -0.335938 3.453125 -1.015625 C 2.804688 -1.691406 2.316406 -2.601562 1.984375 -3.75 C 1.660156 -4.90625 1.4375 -6.222656 1.3125 -7.703125 C 1.1875 -9.179688 1.125 -10.707031 1.125 -12.28125 C 1.125 -13.332031 1.144531 -14.410156 1.1875 -15.515625 C 1.238281 -16.617188 1.390625 -17.632812 1.640625 -18.5625 C 1.898438 -19.5 2.335938 -20.265625 2.953125 -20.859375 C 3.578125 -21.453125 4.460938 -21.75 5.609375 -21.75 C 6.429688 -21.75 7.171875 -21.554688 7.828125 -21.171875 C 8.492188 -20.796875 8.921875 -20.234375 9.109375 -19.484375 C 9.796875 -20.109375 10.675781 -20.566406 11.75 -20.859375 C 12.820312 -21.148438 13.929688 -21.296875 15.078125 -21.296875 C 16.046875 -21.296875 17.023438 -21.0625 18.015625 -20.59375 C 19.015625 -20.125 19.863281 -19.476562 20.5625 -18.65625 C 21.257812 -17.84375 21.609375 -16.925781 21.609375 -15.90625 C 21.609375 -15.019531 21.28125 -14.1875 20.625 -13.40625 C 19.976562 -12.625 19.066406 -12.234375 17.890625 -12.234375 C 17.378906 -12.234375 16.957031 -12.300781 16.625 -12.4375 C 16.289062 -12.570312 15.972656 -12.695312 15.671875 -12.8125 C 15.367188 -12.9375 15.003906 -13 14.578125 -13 C 13.460938 -13 12.441406 -12.550781 11.515625 -11.65625 C 10.597656 -10.769531 10.140625 -9.570312 10.140625 -8.0625 C 10.140625 -7.28125 10.117188 -6.425781 10.078125 -5.5 C 10.035156 -4.582031 9.898438 -3.695312 9.671875 -2.84375 C 9.441406 -2 9.039062 -1.3125 8.46875 -0.78125 C 7.894531 -0.257812 7.066406 0 5.984375 0 Z M 5.984375 0 "/></g></g></g></g></g><g transform="matrix(1, 0, 0, 1, 72, 9)"><g clip-path="url(#1b6001aabd)"><g fill="#cb6ce6" fill-opacity="1"><g transform="translate(3.129286, 64.051846)"><g><path d="M 20.816406 1.96875 C 18.292969 1.96875 16.339844 1.09375 14.960938 -0.65625 C 13.769531 -2.167969 12.972656 -4.320312 12.566406 -7.113281 C 12.199219 -9.632812 12.019531 -12.742188 12.019531 -16.429688 C 12.019531 -17.75 12.035156 -18.992188 12.074219 -20.160156 L 12.183594 -23.386719 L 14.265625 -23.3125 L 14.160156 -21.234375 C 9.429688 -21.472656 5.898438 -22.171875 3.566406 -23.339844 C 2.15625 -24.042969 1.089844 -25.023438 0.363281 -26.285156 C -0.34375 -27.503906 -0.695312 -28.9375 -0.695312 -30.585938 C -0.695312 -32.640625 -0.148438 -34.390625 0.941406 -35.835938 C 2.003906 -37.246094 3.546875 -38.300781 5.570312 -38.992188 C 9.027344 -40.179688 14.125 -40.769531 20.871094 -40.769531 C 27.648438 -40.769531 32.800781 -40.179688 36.324219 -38.996094 C 38.382812 -38.308594 39.953125 -37.261719 41.039062 -35.851562 C 42.15625 -34.40625 42.714844 -32.648438 42.714844 -30.585938 C 42.714844 -28.949219 42.355469 -27.523438 41.644531 -26.308594 C 40.914062 -25.0625 39.84375 -24.082031 38.433594 -23.371094 C 36.082031 -22.183594 32.554688 -21.472656 27.859375 -21.234375 L 27.753906 -23.3125 L 29.832031 -23.46875 C 29.90625 -22.4375 29.964844 -21.335938 30 -20.160156 C 30.039062 -18.992188 30.058594 -17.75 30.058594 -16.429688 C 30.058594 -10.511719 29.511719 -6.128906 28.421875 -3.28125 C 27.769531 -1.574219 26.792969 -0.273438 25.496094 0.621094 C 24.195312 1.519531 22.636719 1.96875 20.816406 1.96875 Z M 20.816406 -2.191406 C 21.769531 -2.191406 22.542969 -2.394531 23.128906 -2.800781 C 23.71875 -3.210938 24.1875 -3.867188 24.535156 -4.769531 C 25.441406 -7.136719 25.894531 -11.023438 25.894531 -16.429688 C 25.894531 -17.703125 25.875 -18.902344 25.839844 -20.027344 C 25.804688 -21.144531 25.75 -22.191406 25.679688 -23.160156 L 25.519531 -25.285156 L 27.648438 -25.390625 C 31.761719 -25.601562 34.730469 -26.164062 36.558594 -27.085938 C 37.238281 -27.429688 37.734375 -27.871094 38.050781 -28.410156 C 38.382812 -28.976562 38.550781 -29.703125 38.550781 -30.585938 C 38.550781 -31.703125 38.28125 -32.613281 37.742188 -33.308594 C 37.171875 -34.050781 36.257812 -34.628906 35.003906 -35.050781 C 31.90625 -36.089844 27.195312 -36.609375 20.871094 -36.609375 C 14.589844 -36.609375 9.9375 -36.089844 6.917969 -35.054688 C 5.703125 -34.636719 4.816406 -34.0625 4.265625 -33.328125 C 3.734375 -32.625 3.46875 -31.710938 3.46875 -30.585938 C 3.46875 -29.679688 3.636719 -28.941406 3.96875 -28.363281 C 4.277344 -27.828125 4.765625 -27.394531 5.425781 -27.0625 C 7.238281 -26.15625 10.21875 -25.601562 14.371094 -25.390625 L 16.417969 -25.289062 L 16.234375 -20.027344 C 16.199219 -18.902344 16.179688 -17.703125 16.179688 -16.429688 C 16.179688 -12.941406 16.347656 -10.035156 16.6875 -7.710938 C 16.984375 -5.652344 17.5 -4.160156 18.230469 -3.230469 C 18.777344 -2.539062 19.640625 -2.191406 20.816406 -2.191406 Z M 20.816406 -2.191406 "/></g></g></g><g fill="#cb6ce6" fill-opacity="1"><g transform="translate(45.149226, 64.051846)"><g><path d="M 20.347656 2.136719 C 17.5 2.179688 14.8125 1.660156 12.285156 0.582031 C 9.773438 -0.488281 7.550781 -2.011719 5.617188 -3.984375 C 3.695312 -5.949219 2.179688 -8.234375 1.078125 -10.847656 C -0.0195312 -13.457031 -0.613281 -16.28125 -0.691406 -19.316406 C -0.734375 -22.285156 -0.21875 -25.066406 0.851562 -27.660156 C 1.917969 -30.242188 3.414062 -32.515625 5.339844 -34.484375 C 7.265625 -36.449219 9.496094 -37.996094 12.035156 -39.121094 C 14.597656 -40.257812 17.359375 -40.828125 20.316406 -40.828125 C 23.144531 -40.867188 25.820312 -40.347656 28.347656 -39.273438 C 30.855469 -38.203125 33.074219 -36.691406 35.007812 -34.742188 C 36.929688 -32.796875 38.453125 -30.519531 39.574219 -27.910156 C 40.703125 -25.289062 41.285156 -22.453125 41.324219 -19.398438 C 41.40625 -16.457031 40.898438 -13.679688 39.804688 -11.070312 C 38.71875 -8.492188 37.210938 -6.230469 35.285156 -4.28125 C 33.359375 -2.335938 31.121094 -0.800781 28.566406 0.324219 C 26.003906 1.449219 23.273438 2.054688 20.375 2.136719 Z M 20.257812 -2.023438 C 22.613281 -2.089844 24.824219 -2.578125 26.886719 -3.488281 C 28.960938 -4.398438 30.773438 -5.640625 32.324219 -7.210938 C 33.875 -8.777344 35.089844 -10.601562 35.964844 -12.6875 C 36.832031 -14.742188 37.230469 -16.960938 37.164062 -19.34375 C 37.128906 -21.84375 36.660156 -24.152344 35.75 -26.265625 C 34.835938 -28.394531 33.601562 -30.242188 32.046875 -31.8125 C 30.5 -33.378906 28.722656 -34.585938 26.714844 -35.441406 C 24.730469 -36.289062 22.597656 -36.695312 20.316406 -36.664062 C 17.945312 -36.664062 15.746094 -36.214844 13.722656 -35.316406 C 11.671875 -34.40625 9.867188 -33.15625 8.316406 -31.570312 C 6.765625 -29.988281 5.558594 -28.15625 4.699219 -26.070312 C 3.847656 -24.003906 3.4375 -21.789062 3.46875 -19.429688 C 3.535156 -16.914062 4.019531 -14.59375 4.914062 -12.464844 C 5.8125 -10.339844 7.039062 -8.484375 8.59375 -6.894531 C 10.136719 -5.316406 11.914062 -4.101562 13.917969 -3.246094 C 15.902344 -2.398438 18.027344 -1.992188 20.285156 -2.027344 Z M 20.484375 -12.851562 C 21.554688 -12.851562 22.507812 -13.25 23.347656 -14.050781 C 24.144531 -14.8125 24.535156 -15.910156 24.507812 -17.335938 C 24.507812 -18.847656 24.105469 -19.988281 23.308594 -20.765625 C 22.492188 -21.558594 21.546875 -21.953125 20.484375 -21.953125 C 19.417969 -21.953125 18.476562 -21.558594 17.65625 -20.765625 C 16.859375 -19.988281 16.457031 -18.859375 16.457031 -17.375 C 16.457031 -15.925781 16.859375 -14.816406 17.65625 -14.039062 C 18.476562 -13.246094 19.417969 -12.851562 20.484375 -12.851562 Z M 20.484375 -8.6875 C 18.292969 -8.6875 16.382812 -9.476562 14.757812 -11.050781 C 13.117188 -12.644531 12.296875 -14.75 12.296875 -17.375 C 12.296875 -20.035156 13.117188 -22.160156 14.757812 -23.753906 C 16.382812 -25.328125 18.292969 -26.117188 20.484375 -26.117188 C 22.671875 -26.117188 24.582031 -25.328125 26.207031 -23.753906 C 27.847656 -22.160156 28.671875 -20.046875 28.667969 -17.410156 C 28.71875 -14.769531 27.902344 -12.644531 26.222656 -11.039062 C 24.582031 -9.472656 22.667969 -8.6875 20.484375 -8.6875 Z M 20.484375 -8.6875 "/></g></g></g><g fill="#ebcdff" fill-opacity="1"><g transform="translate(3.129286, 64.051846)"><g><path d="M 20.8125 -0.109375 C 18.96875 -0.109375 17.5625 -0.71875 16.59375 -1.9375 C 15.632812 -3.164062 14.976562 -4.988281 14.625 -7.40625 C 14.269531 -9.832031 14.09375 -12.84375 14.09375 -16.4375 C 14.09375 -17.726562 14.113281 -18.945312 14.15625 -20.09375 C 14.195312 -21.238281 14.234375 -22.3125 14.265625 -23.3125 C 9.828125 -23.539062 6.570312 -24.171875 4.5 -25.203125 C 2.425781 -26.242188 1.390625 -28.039062 1.390625 -30.59375 C 1.390625 -33.769531 3.007812 -35.910156 6.25 -37.015625 C 9.488281 -38.128906 14.363281 -38.6875 20.875 -38.6875 C 27.425781 -38.6875 32.359375 -38.128906 35.671875 -37.015625 C 38.984375 -35.910156 40.640625 -33.769531 40.640625 -30.59375 C 40.640625 -28.070312 39.59375 -26.285156 37.5 -25.234375 C 35.40625 -24.179688 32.15625 -23.539062 27.75 -23.3125 C 27.832031 -22.3125 27.890625 -21.238281 27.921875 -20.09375 C 27.960938 -18.945312 27.984375 -17.726562 27.984375 -16.4375 C 27.984375 -10.769531 27.484375 -6.628906 26.484375 -4.015625 C 25.484375 -1.410156 23.59375 -0.109375 20.8125 -0.109375 Z M 20.8125 -0.109375 "/></g></g></g><g fill="#ebcdff" fill-opacity="1"><g transform="translate(45.149226, 64.051846)"><g><path d="M 20.3125 0.0625 C 17.757812 0.09375 15.351562 -0.367188 13.09375 -1.328125 C 10.84375 -2.296875 8.847656 -3.664062 7.109375 -5.4375 C 5.367188 -7.21875 4 -9.289062 3 -11.65625 C 2 -14.03125 1.460938 -16.601562 1.390625 -19.375 C 1.347656 -22.039062 1.804688 -24.535156 2.765625 -26.859375 C 3.734375 -29.191406 5.085938 -31.25 6.828125 -33.03125 C 8.566406 -34.8125 10.582031 -36.207031 12.875 -37.21875 C 15.175781 -38.238281 17.65625 -38.75 20.3125 -38.75 C 22.875 -38.789062 25.28125 -38.328125 27.53125 -37.359375 C 29.789062 -36.398438 31.789062 -35.039062 33.53125 -33.28125 C 35.269531 -31.519531 36.644531 -29.453125 37.65625 -27.078125 C 38.675781 -24.710938 39.207031 -22.144531 39.25 -19.375 C 39.320312 -16.707031 38.867188 -14.207031 37.890625 -11.875 C 36.910156 -9.550781 35.550781 -7.507812 33.8125 -5.75 C 32.070312 -3.988281 30.046875 -2.597656 27.734375 -1.578125 C 25.421875 -0.566406 22.945312 -0.0195312 20.3125 0.0625 Z M 20.484375 -10.765625 C 22.109375 -10.765625 23.539062 -11.359375 24.78125 -12.546875 C 26.019531 -13.734375 26.625 -15.34375 26.59375 -17.375 C 26.59375 -19.445312 25.976562 -21.070312 24.75 -22.25 C 23.53125 -23.4375 22.109375 -24.03125 20.484375 -24.03125 C 18.859375 -24.03125 17.429688 -23.4375 16.203125 -22.25 C 14.984375 -21.070312 14.375 -19.445312 14.375 -17.375 C 14.375 -15.34375 14.984375 -13.734375 16.203125 -12.546875 C 17.429688 -11.359375 18.859375 -10.765625 20.484375 -10.765625 Z M 20.484375 -10.765625 "/></g></g></g></g></g><g clip-path="url(#fa1bce8de4)"><g clip-path="url(#88837a302a)"><g clip-path="url(#3fd92a357b)"><path fill="#111012" d="M 78.113281 31.476562 C 66.707031 53.085938 75 79.953125 96.617188 91.363281 C 118.230469 102.765625 145.09375 94.46875 156.5 72.851562 C 167.910156 51.238281 159.609375 24.375 137.996094 12.96875 C 116.382812 1.5625 89.519531 9.867188 78.113281 31.476562 Z M 134.820312 18.984375 C 153.117188 28.644531 160.144531 51.386719 150.484375 69.679688 C 140.828125 87.976562 118.085938 95 99.792969 85.347656 C 81.492188 75.6875 74.472656 52.945312 84.125 34.652344 C 93.785156 16.359375 116.523438 9.328125 134.820312 18.984375 Z M 134.820312 18.984375 " fill-opacity="1" fill-rule="nonzero"/></g></g></g><g clip-path="url(#707c659169)"><g clip-path="url(#9643972287)"><g clip-path="url(#a850e31489)"><path fill="#111012" d="M 167.613281 70.035156 L 166.574219 72.070312 L 200.4375 83.757812 C 205.765625 85.878906 208.109375 92.136719 205.480469 97.242188 C 202.851562 102.339844 196.394531 104.066406 191.574219 100.957031 L 162.429688 80.1875 L 161.273438 82.449219 C 159.710938 85.511719 156.042969 86.804688 152.929688 85.457031 C 155.855469 82.386719 158.40625 78.871094 160.484375 74.9375 C 160.585938 74.746094 160.683594 74.550781 160.78125 74.359375 C 160.785156 74.355469 160.785156 74.355469 160.785156 74.355469 C 162.878906 70.253906 164.347656 65.933594 165.175781 61.519531 C 166.566406 62.347656 167.546875 63.628906 168.011719 65.082031 C 168.519531 66.664062 168.429688 68.4375 167.613281 70.035156 Z M 167.613281 70.035156 " fill-opacity="1" fill-rule="nonzero"/></g></g></g><g clip-path="url(#c103a5dd00)"><g clip-path="url(#c4fbc8ff32)"><g clip-path="url(#1317b28f1f)"><path fill="#d2eaff" d="M 110.597656 79.347656 C 112.269531 80.203125 113.984375 80.902344 115.71875 81.449219 C 111.441406 81.554688 107.078125 80.625 103 78.539062 C 89.921875 71.859375 84.734375 55.847656 91.417969 42.773438 C 92.441406 40.765625 93.679688 38.949219 95.101562 37.332031 C 88.570312 53.082031 95.148438 71.460938 110.597656 79.347656 Z M 110.597656 79.347656 " fill-opacity="1" fill-rule="nonzero"/></g></g></g></svg>