<svg xmlns="http://www.w3.org/2000/svg" xmlns:xlink="http://www.w3.org/1999/xlink" width="500" zoomAndPan="magnify" viewBox="0 0 375 374.999991" height="500" preserveAspectRatio="xMidYMid meet" version="1.0"><defs><g/><clipPath id="727b8c8148"><rect x="0" width="76" y="0" height="69"/></clipPath><clipPath id="acaa593fc6"><path d="M 49.832031 0.40625 L 126 0.40625 L 126 77 L 49.832031 77 Z M 49.832031 0.40625 " clip-rule="nonzero"/></clipPath><clipPath id="688102b880"><path d="M 107 58 L 150.28125 58 L 150.28125 100.601562 L 107 100.601562 Z M 107 58 " clip-rule="nonzero"/></clipPath><clipPath id="b3fee7808e"><rect x="0" width="306" y="0" height="101"/></clipPath></defs><rect x="-37.5" width="450" fill="#ffffff" y="-37.499999" height="449.999989" fill-opacity="1"/><rect x="-37.5" width="450" fill="#ffffff" y="-37.499999" height="449.999989" fill-opacity="1"/><g transform="matrix(1, 0, 0, 1, 35, 137)"><g clip-path="url(#b3fee7808e)"><g fill="#cb6ce6" fill-opacity="1"><g transform="translate(1.887851, 55.350108)"><g><path d="M 5.304688 1.453125 C 3.804688 1.453125 2.609375 0.984375 1.730469 0.046875 C 0.960938 -0.773438 0.417969 -1.828125 0.101562 -3.117188 C -0.179688 -4.257812 -0.351562 -5.511719 -0.40625 -6.875 C -0.457031 -8.160156 -0.484375 -9.445312 -0.484375 -10.730469 C -0.484375 -11.355469 -0.476562 -12.167969 -0.464844 -13.167969 L -0.425781 -16.230469 C -0.414062 -17.285156 -0.394531 -18.222656 -0.367188 -19.046875 C -0.339844 -19.882812 -0.3125 -20.46875 -0.285156 -20.804688 L 1.160156 -20.683594 L -0.289062 -20.722656 C -0.230469 -22.835938 0.222656 -24.605469 1.074219 -26.035156 C 1.570312 -26.863281 2.195312 -27.492188 2.953125 -27.921875 C 3.710938 -28.351562 4.574219 -28.566406 5.539062 -28.566406 C 6.632812 -28.566406 7.574219 -28.316406 8.371094 -27.816406 C 9.183594 -27.304688 9.800781 -26.558594 10.222656 -25.578125 C 10.910156 -23.988281 11.253906 -21.773438 11.253906 -18.941406 L 11.253906 -17.777344 L 9.800781 -17.777344 L 8.523438 -18.472656 C 9.035156 -19.414062 9.660156 -20.4375 10.394531 -21.53125 C 11.140625 -22.644531 11.964844 -23.707031 12.859375 -24.710938 C 13.800781 -25.765625 14.808594 -26.632812 15.875 -27.3125 C 17.070312 -28.070312 18.296875 -28.449219 19.5625 -28.449219 C 21.21875 -28.449219 22.585938 -27.824219 23.664062 -26.570312 C 24.6875 -25.378906 25.195312 -23.933594 25.195312 -22.234375 C 25.195312 -20.746094 24.769531 -19.308594 23.914062 -17.925781 C 23.109375 -16.621094 22.011719 -15.449219 20.625 -14.410156 C 19.269531 -13.390625 17.695312 -12.5625 15.90625 -11.917969 L 15.417969 -13.285156 L 16.023438 -14.605469 C 17.03125 -14.140625 18.054688 -13.589844 19.085938 -12.953125 C 20.140625 -12.300781 21.109375 -11.574219 21.988281 -10.78125 C 22.914062 -9.941406 23.660156 -9.03125 24.226562 -8.046875 C 24.847656 -6.96875 25.15625 -5.8125 25.15625 -4.570312 C 25.15625 -3.203125 24.871094 -2.066406 24.292969 -1.160156 C 23.714844 -0.246094 22.960938 0.425781 22.027344 0.855469 C 21.164062 1.253906 20.25 1.453125 19.289062 1.453125 C 17.648438 1.453125 16.132812 0.929688 14.738281 -0.117188 C 13.480469 -1.058594 12.324219 -2.277344 11.265625 -3.769531 C 10.265625 -5.183594 9.339844 -6.660156 8.488281 -8.207031 L 9.761719 -8.910156 L 11.214844 -8.910156 C 11.214844 -7.730469 11.167969 -6.59375 11.074219 -5.492188 C 10.972656 -4.320312 10.761719 -3.253906 10.441406 -2.289062 C 10.070312 -1.175781 9.480469 -0.285156 8.671875 0.382812 C 7.808594 1.097656 6.6875 1.453125 5.304688 1.453125 Z M 5.304688 -1.453125 C 5.992188 -1.453125 6.496094 -1.585938 6.820312 -1.855469 C 7.203125 -2.167969 7.488281 -2.621094 7.6875 -3.210938 C 7.933594 -3.953125 8.097656 -4.796875 8.179688 -5.738281 C 8.265625 -6.757812 8.308594 -7.8125 8.308594 -8.910156 L 11.03125 -9.609375 C 11.832031 -8.160156 12.703125 -6.773438 13.640625 -5.449219 C 14.519531 -4.203125 15.46875 -3.203125 16.480469 -2.441406 C 17.359375 -1.78125 18.296875 -1.453125 19.289062 -1.453125 C 19.824219 -1.453125 20.332031 -1.5625 20.8125 -1.785156 C 21.222656 -1.972656 21.566406 -2.285156 21.839844 -2.714844 C 22.113281 -3.148438 22.253906 -3.765625 22.253906 -4.570312 C 22.253906 -5.292969 22.070312 -5.96875 21.710938 -6.597656 C 21.296875 -7.316406 20.738281 -7.992188 20.039062 -8.625 C 19.289062 -9.300781 18.464844 -9.921875 17.558594 -10.480469 C 16.625 -11.058594 15.710938 -11.550781 14.808594 -11.964844 L 11.578125 -13.449219 L 14.925781 -14.652344 C 16.441406 -15.199219 17.761719 -15.890625 18.882812 -16.734375 C 19.976562 -17.554688 20.828125 -18.460938 21.441406 -19.453125 C 22.007812 -20.367188 22.292969 -21.292969 22.292969 -22.234375 C 22.292969 -23.21875 22.015625 -24.03125 21.460938 -24.675781 C 20.964844 -25.253906 20.328125 -25.546875 19.5625 -25.546875 C 18.859375 -25.546875 18.152344 -25.316406 17.433594 -24.859375 C 16.59375 -24.328125 15.789062 -23.632812 15.027344 -22.777344 C 14.222656 -21.871094 13.480469 -20.917969 12.808594 -19.914062 C 12.121094 -18.890625 11.546875 -17.949219 11.078125 -17.085938 L 8.347656 -17.777344 L 8.347656 -18.941406 C 8.347656 -21.375 8.082031 -23.203125 7.554688 -24.425781 C 7.371094 -24.855469 7.125 -25.164062 6.824219 -25.355469 C 6.5 -25.558594 6.074219 -25.660156 5.539062 -25.660156 C 5.085938 -25.660156 4.699219 -25.574219 4.386719 -25.394531 C 4.074219 -25.21875 3.800781 -24.9375 3.570312 -24.550781 C 2.976562 -23.554688 2.660156 -22.25 2.613281 -20.644531 L 2.613281 -20.605469 L 2.609375 -20.5625 C 2.585938 -20.277344 2.5625 -19.742188 2.535156 -18.953125 C 2.511719 -18.148438 2.492188 -17.230469 2.480469 -16.191406 L 2.441406 -13.132812 C 2.425781 -12.144531 2.421875 -11.34375 2.421875 -10.730469 C 2.421875 -9.484375 2.445312 -8.238281 2.496094 -6.992188 C 2.546875 -5.824219 2.6875 -4.765625 2.921875 -3.816406 C 3.117188 -3.015625 3.425781 -2.390625 3.847656 -1.941406 C 4.15625 -1.617188 4.640625 -1.453125 5.304688 -1.453125 Z M 5.304688 -1.453125 "/></g></g></g><g fill="#cb6ce6" fill-opacity="1"><g transform="translate(26.598235, 55.350108)"><g><path d="M 14.199219 1.492188 C 12.210938 1.519531 10.335938 1.160156 8.570312 0.40625 C 6.820312 -0.339844 5.269531 -1.402344 3.921875 -2.78125 C 2.578125 -4.152344 1.523438 -5.746094 0.753906 -7.570312 C -0.015625 -9.390625 -0.425781 -11.359375 -0.484375 -13.480469 C -0.511719 -15.550781 -0.152344 -17.492188 0.59375 -19.300781 C 1.335938 -21.101562 2.382812 -22.6875 3.726562 -24.0625 C 5.070312 -25.433594 6.625 -26.515625 8.398438 -27.300781 C 10.1875 -28.09375 12.113281 -28.488281 14.175781 -28.488281 C 16.148438 -28.519531 18.019531 -28.15625 19.78125 -27.40625 C 21.53125 -26.660156 23.082031 -25.605469 24.429688 -24.242188 C 25.769531 -22.886719 26.832031 -21.296875 27.617188 -19.476562 C 28.402344 -17.644531 28.808594 -15.667969 28.835938 -13.539062 C 28.894531 -11.484375 28.539062 -9.546875 27.773438 -7.726562 C 27.019531 -5.925781 25.96875 -4.347656 24.621094 -2.988281 C 23.277344 -1.628906 21.714844 -0.558594 19.933594 0.226562 C 18.144531 1.011719 16.242188 1.433594 14.21875 1.492188 Z M 14.136719 -1.414062 C 15.78125 -1.460938 17.320312 -1.800781 18.761719 -2.433594 C 20.207031 -3.070312 21.472656 -3.933594 22.554688 -5.03125 C 23.636719 -6.125 24.484375 -7.398438 25.097656 -8.851562 C 25.699219 -10.285156 25.980469 -11.835938 25.933594 -13.5 C 25.910156 -15.242188 25.582031 -16.851562 24.945312 -18.328125 C 24.308594 -19.8125 23.449219 -21.101562 22.363281 -22.199219 C 21.28125 -23.289062 20.042969 -24.136719 18.640625 -24.730469 C 17.257812 -25.324219 15.765625 -25.605469 14.175781 -25.582031 C 12.523438 -25.582031 10.988281 -25.269531 9.574219 -24.644531 C 8.144531 -24.007812 6.886719 -23.136719 5.800781 -22.03125 C 4.71875 -20.925781 3.878906 -19.644531 3.28125 -18.191406 C 2.683594 -16.75 2.398438 -15.203125 2.421875 -13.558594 C 2.46875 -11.800781 2.804688 -10.183594 3.429688 -8.699219 C 4.054688 -7.214844 4.910156 -5.921875 5.996094 -4.8125 C 7.074219 -3.710938 8.3125 -2.863281 9.710938 -2.265625 C 11.097656 -1.675781 12.578125 -1.390625 14.15625 -1.414062 Z M 14.292969 -8.96875 C 15.039062 -8.96875 15.707031 -9.246094 16.292969 -9.804688 C 16.847656 -10.335938 17.121094 -11.101562 17.101562 -12.097656 C 17.101562 -13.152344 16.820312 -13.949219 16.265625 -14.488281 C 15.695312 -15.042969 15.035156 -15.320312 14.292969 -15.320312 C 13.550781 -15.320312 12.890625 -15.042969 12.320312 -14.488281 C 11.765625 -13.949219 11.484375 -13.160156 11.484375 -12.125 C 11.484375 -11.113281 11.765625 -10.335938 12.320312 -9.796875 C 12.890625 -9.242188 13.550781 -8.96875 14.292969 -8.96875 Z M 14.292969 -6.0625 C 12.765625 -6.0625 11.433594 -6.613281 10.300781 -7.710938 C 9.152344 -8.824219 8.578125 -10.292969 8.578125 -12.125 C 8.578125 -13.980469 9.152344 -15.464844 10.300781 -16.574219 C 11.433594 -17.675781 12.765625 -18.226562 14.292969 -18.226562 C 15.820312 -18.226562 17.152344 -17.675781 18.285156 -16.574219 C 19.433594 -15.464844 20.007812 -13.988281 20.007812 -12.148438 C 20.039062 -10.304688 19.46875 -8.824219 18.296875 -7.703125 C 17.152344 -6.609375 15.816406 -6.0625 14.292969 -6.0625 Z M 14.292969 -6.0625 "/></g></g></g><g fill="#cb6ce6" fill-opacity="1"><g transform="translate(54.951795, 55.350108)"><g/></g></g><g fill="#cb6ce6" fill-opacity="1"><g transform="translate(66.571098, 55.350108)"><g/></g></g><g fill="#cb6ce6" fill-opacity="1"><g transform="translate(78.1904, 55.350108)"><g/></g></g><g fill="#cb6ce6" fill-opacity="1"><g transform="translate(89.809703, 55.350108)"><g/></g></g><g fill="#cb6ce6" fill-opacity="1"><g transform="translate(101.429006, 55.350108)"><g/></g></g><g fill="#cb6ce6" fill-opacity="1"><g transform="translate(113.048308, 55.350108)"><g/></g></g><g fill="#cb6ce6" fill-opacity="1"><g transform="translate(124.670373, 55.350108)"><g><path d="M 13.777344 1.414062 C 10.804688 1.386719 8.269531 0.890625 6.171875 -0.0742188 C 3.953125 -1.09375 2.277344 -2.730469 1.144531 -4.984375 C 0.0585938 -7.136719 -0.484375 -9.945312 -0.484375 -13.402344 C -0.484375 -16.425781 0.015625 -19.050781 1.019531 -21.28125 C 2.054688 -23.582031 3.570312 -25.375 5.570312 -26.652344 C 7.5625 -27.929688 9.980469 -28.566406 12.820312 -28.566406 C 15.246094 -28.566406 17.382812 -28.210938 19.230469 -27.5 C 21.152344 -26.761719 22.679688 -25.691406 23.808594 -24.289062 C 24.972656 -22.847656 25.613281 -21.148438 25.734375 -19.1875 C 25.859375 -17.335938 25.535156 -15.703125 24.769531 -14.296875 C 24.03125 -12.941406 22.957031 -11.75 21.539062 -10.71875 L 20.683594 -11.890625 L 20.929688 -13.324219 C 22.175781 -13.109375 23.28125 -12.445312 24.242188 -11.332031 C 25.214844 -10.207031 25.699219 -8.855469 25.699219 -7.28125 C 25.699219 -6.273438 25.5 -5.253906 25.097656 -4.230469 C 24.679688 -3.171875 23.992188 -2.207031 23.042969 -1.332031 C 22.09375 -0.460938 20.839844 0.21875 19.28125 0.707031 C 17.78125 1.179688 15.953125 1.414062 13.789062 1.414062 Z M 13.789062 -1.492188 C 15.65625 -1.492188 17.195312 -1.683594 18.410156 -2.0625 C 19.558594 -2.425781 20.449219 -2.894531 21.078125 -3.472656 C 21.699219 -4.042969 22.136719 -4.652344 22.390625 -5.296875 C 22.660156 -5.976562 22.792969 -6.640625 22.792969 -7.28125 C 22.792969 -8.136719 22.542969 -8.851562 22.042969 -9.429688 C 21.535156 -10.019531 21 -10.363281 20.4375 -10.460938 L 17.050781 -11.039062 L 19.828125 -13.066406 C 20.890625 -13.839844 21.6875 -14.714844 22.214844 -15.683594 C 22.714844 -16.601562 22.921875 -17.707031 22.835938 -19.003906 C 22.753906 -20.351562 22.324219 -21.503906 21.546875 -22.464844 C 20.742188 -23.460938 19.621094 -24.238281 18.1875 -24.789062 C 16.675781 -25.371094 14.886719 -25.660156 12.820312 -25.660156 C 10.546875 -25.660156 8.652344 -25.175781 7.136719 -24.207031 C 5.621094 -23.238281 4.46875 -21.867188 3.667969 -20.089844 C 2.835938 -18.238281 2.421875 -16.007812 2.421875 -13.402344 C 2.421875 -10.402344 2.859375 -8.03125 3.738281 -6.289062 C 4.566406 -4.640625 5.78125 -3.449219 7.386719 -2.714844 C 9.109375 -1.921875 11.246094 -1.515625 13.804688 -1.492188 Z M 11.6875 -15.820312 C 12.039062 -15.671875 12.488281 -15.601562 13.027344 -15.609375 C 13.492188 -15.617188 13.898438 -15.738281 14.242188 -15.964844 C 14.316406 -16.015625 14.367188 -16.070312 14.398438 -16.132812 C 14.445312 -16.226562 14.46875 -16.363281 14.46875 -16.539062 C 14.46875 -16.742188 14.429688 -16.882812 14.351562 -16.964844 C 14.1875 -17.132812 13.972656 -17.253906 13.714844 -17.328125 C 13.347656 -17.429688 12.96875 -17.46875 12.582031 -17.453125 C 12.253906 -17.4375 11.996094 -17.375 11.800781 -17.273438 L 11.769531 -17.253906 L 11.738281 -17.242188 C 11.640625 -17.195312 11.566406 -17.09375 11.523438 -16.941406 C 11.4375 -16.652344 11.433594 -16.367188 11.519531 -16.089844 C 11.5625 -15.945312 11.636719 -15.847656 11.738281 -15.800781 L 11.117188 -14.488281 Z M 10.542969 -13.152344 L 10.519531 -13.160156 L 10.496094 -13.171875 C 9.617188 -13.589844 9.03125 -14.28125 8.738281 -15.246094 C 8.488281 -16.078125 8.484375 -16.917969 8.734375 -17.765625 C 9.027344 -18.75 9.613281 -19.449219 10.496094 -19.867188 L 11.117188 -18.554688 L 10.433594 -19.835938 C 11.011719 -20.144531 11.683594 -20.316406 12.441406 -20.351562 C 13.136719 -20.386719 13.820312 -20.3125 14.484375 -20.128906 C 15.257812 -19.917969 15.910156 -19.535156 16.441406 -18.980469 C 17.0625 -18.339844 17.371094 -17.523438 17.371094 -16.539062 C 17.371094 -15.914062 17.25 -15.355469 17.007812 -14.855469 C 16.746094 -14.324219 16.363281 -13.886719 15.855469 -13.550781 C 15.035156 -13.003906 14.113281 -12.722656 13.078125 -12.703125 C 12.121094 -12.6875 11.277344 -12.835938 10.542969 -13.152344 Z M 11.632812 -6.78125 C 12 -6.640625 12.464844 -6.574219 13.027344 -6.585938 C 13.527344 -6.59375 13.957031 -6.703125 14.320312 -6.914062 C 14.382812 -6.949219 14.421875 -6.980469 14.4375 -7.007812 C 14.457031 -7.042969 14.46875 -7.109375 14.46875 -7.203125 C 14.46875 -7.296875 14.449219 -7.363281 14.410156 -7.398438 C 14.242188 -7.550781 14.023438 -7.664062 13.746094 -7.730469 C 13.378906 -7.824219 13.003906 -7.855469 12.613281 -7.828125 C 12.222656 -7.800781 11.902344 -7.738281 11.65625 -7.636719 C 11.582031 -7.605469 11.53125 -7.550781 11.503906 -7.46875 C 11.441406 -7.292969 11.441406 -7.117188 11.503906 -6.9375 C 11.53125 -6.859375 11.589844 -6.800781 11.679688 -6.761719 L 11.117188 -5.421875 Z M 10.597656 -4.066406 L 10.574219 -4.074219 L 10.554688 -4.082031 C 9.664062 -4.457031 9.0625 -5.097656 8.753906 -6 C 8.480469 -6.800781 8.480469 -7.605469 8.753906 -8.410156 C 9.0625 -9.3125 9.671875 -9.953125 10.578125 -10.335938 C 11.105469 -10.546875 11.714844 -10.675781 12.40625 -10.726562 C 13.105469 -10.777344 13.785156 -10.71875 14.453125 -10.550781 C 15.207031 -10.359375 15.851562 -10.019531 16.382812 -9.53125 C 17.042969 -8.917969 17.371094 -8.144531 17.371094 -7.203125 C 17.371094 -6.601562 17.238281 -6.0625 16.96875 -5.582031 C 16.691406 -5.09375 16.296875 -4.699219 15.773438 -4.398438 C 14.976562 -3.9375 14.078125 -3.695312 13.078125 -3.679688 C 12.144531 -3.664062 11.316406 -3.792969 10.597656 -4.066406 Z M 10.597656 -4.066406 "/></g></g></g><g fill="#cb6ce6" fill-opacity="1"><g transform="translate(149.922989, 55.350108)"><g><path d="M 7.011719 1.53125 C 5.84375 1.53125 4.796875 1.242188 3.859375 0.664062 C 2.957031 0.105469 2.1875 -0.707031 1.558594 -1.78125 C 0.417969 -3.710938 -0.246094 -6.195312 -0.441406 -9.242188 C -0.660156 -12.933594 -0.253906 -16.207031 0.785156 -19.066406 C 1.847656 -22.007812 3.476562 -24.3125 5.664062 -25.984375 C 7.886719 -27.679688 10.519531 -28.527344 13.558594 -28.527344 C 16.625 -28.527344 19.261719 -27.679688 21.472656 -25.980469 C 23.644531 -24.3125 25.265625 -22.015625 26.328125 -19.089844 C 27.367188 -16.238281 27.761719 -12.953125 27.519531 -9.238281 C 27.324219 -6.113281 26.652344 -3.605469 25.507812 -1.722656 C 24.875 -0.679688 24.105469 0.113281 23.199219 0.65625 C 22.269531 1.210938 21.222656 1.492188 20.0625 1.492188 C 18.753906 1.492188 17.707031 1.21875 16.914062 0.671875 C 16.125 0.125 15.566406 -0.578125 15.238281 -1.441406 C 14.957031 -2.1875 14.816406 -2.953125 14.816406 -3.738281 C 14.816406 -4.429688 14.863281 -5.035156 14.953125 -5.558594 L 16.382812 -5.304688 L 16.429688 -3.855469 C 15.59375 -3.828125 14.617188 -3.808594 13.496094 -3.796875 C 12.347656 -3.78125 11.378906 -3.804688 10.589844 -3.855469 L 10.691406 -5.304688 L 12.121094 -5.558594 C 12.214844 -5.035156 12.257812 -4.429688 12.257812 -3.738281 C 12.257812 -2.953125 12.117188 -2.1875 11.835938 -1.441406 C 11.511719 -0.585938 10.960938 0.121094 10.179688 0.679688 C 9.382812 1.246094 8.328125 1.53125 7.011719 1.53125 Z M 7.011719 -1.375 C 7.707031 -1.375 8.199219 -1.480469 8.492188 -1.6875 C 8.792969 -1.902344 9.003906 -2.164062 9.117188 -2.46875 C 9.277344 -2.886719 9.355469 -3.308594 9.355469 -3.738281 C 9.355469 -4.261719 9.324219 -4.699219 9.261719 -5.054688 L 8.9375 -6.882812 L 10.789062 -6.757812 C 11.5 -6.707031 12.390625 -6.6875 13.460938 -6.699219 C 14.5625 -6.714844 15.523438 -6.734375 16.339844 -6.757812 L 18.125 -6.816406 L 17.816406 -5.054688 C 17.753906 -4.699219 17.722656 -4.261719 17.722656 -3.738281 C 17.722656 -3.308594 17.800781 -2.886719 17.957031 -2.46875 C 18.070312 -2.171875 18.273438 -1.921875 18.566406 -1.71875 C 18.859375 -1.515625 19.359375 -1.414062 20.0625 -1.414062 C 20.6875 -1.414062 21.234375 -1.554688 21.703125 -1.835938 C 22.199219 -2.132812 22.640625 -2.597656 23.027344 -3.234375 C 23.921875 -4.707031 24.453125 -6.773438 24.617188 -9.429688 C 24.835938 -12.738281 24.496094 -15.628906 23.597656 -18.09375 C 22.726562 -20.492188 21.429688 -22.351562 19.703125 -23.675781 C 18.011719 -24.972656 15.964844 -25.621094 13.558594 -25.621094 C 11.171875 -25.621094 9.128906 -24.972656 7.425781 -23.671875 C 5.691406 -22.347656 4.386719 -20.484375 3.515625 -18.078125 C 2.617188 -15.59375 2.261719 -12.710938 2.457031 -9.429688 C 2.621094 -6.84375 3.15625 -4.785156 4.058594 -3.253906 C 4.449219 -2.597656 4.890625 -2.113281 5.386719 -1.808594 C 5.855469 -1.519531 6.394531 -1.375 7.011719 -1.375 Z M 10.363281 -13.652344 C 12.441406 -13.730469 14.519531 -13.730469 16.59375 -13.652344 L 16.539062 -12.203125 L 15.101562 -12.40625 C 15.207031 -13.152344 15.199219 -13.859375 15.074219 -14.527344 C 14.96875 -15.074219 14.773438 -15.5 14.480469 -15.808594 C 14.273438 -16.023438 13.929688 -16.132812 13.441406 -16.132812 C 12.960938 -16.132812 12.625 -16.03125 12.433594 -15.824219 C 12.152344 -15.515625 11.960938 -15.097656 11.871094 -14.566406 C 11.753906 -13.902344 11.75 -13.179688 11.859375 -12.402344 L 10.417969 -12.203125 Z M 10.476562 -10.75 L 9.160156 -10.699219 L 8.980469 -12 C 8.832031 -13.082031 8.839844 -14.101562 9.007812 -15.066406 C 9.199219 -16.160156 9.628906 -17.070312 10.300781 -17.796875 C 11.066406 -18.625 12.113281 -19.039062 13.441406 -19.039062 C 14.761719 -19.039062 15.808594 -18.628906 16.585938 -17.8125 C 17.273438 -17.085938 17.722656 -16.171875 17.929688 -15.0625 C 18.113281 -14.082031 18.128906 -13.058594 17.976562 -11.996094 L 17.792969 -10.699219 L 16.484375 -10.75 C 14.480469 -10.824219 12.476562 -10.824219 10.476562 -10.75 Z M 10.476562 -10.75 "/></g></g></g><g fill="#cb6ce6" fill-opacity="1"><g transform="translate(176.995964, 55.350108)"><g/></g></g><g fill="#cb6ce6" fill-opacity="1"><g transform="translate(188.615266, 55.350108)"><g><path d="M 10.226562 1.375 C 8.796875 1.375 7.640625 0.855469 6.757812 -0.179688 C 6.011719 -1.054688 5.464844 -2.214844 5.113281 -3.667969 C 4.796875 -4.976562 4.585938 -6.484375 4.476562 -8.195312 L 5.925781 -8.289062 L 5.808594 -6.839844 C 4.019531 -6.988281 2.601562 -7.359375 1.550781 -7.957031 C 0.863281 -8.34375 0.34375 -8.882812 -0.00390625 -9.566406 C -0.324219 -10.199219 -0.484375 -10.9375 -0.484375 -11.773438 C -0.484375 -12.613281 -0.324219 -13.347656 -0.00390625 -13.984375 C 0.339844 -14.667969 0.855469 -15.210938 1.535156 -15.605469 C 2.582031 -16.214844 4 -16.609375 5.785156 -16.785156 L 5.925781 -15.339844 L 4.476562 -15.421875 C 4.613281 -17.84375 4.988281 -20.007812 5.609375 -21.910156 C 6.285156 -23.980469 7.402344 -25.605469 8.964844 -26.78125 C 10.539062 -27.972656 12.675781 -28.566406 15.378906 -28.566406 C 16.972656 -28.566406 18.382812 -28.183594 19.613281 -27.417969 C 20.335938 -26.964844 20.882812 -26.378906 21.253906 -25.65625 C 21.609375 -24.964844 21.789062 -24.171875 21.789062 -23.277344 C 21.789062 -21.417969 21.15625 -20.027344 19.894531 -19.105469 C 18.855469 -18.34375 17.621094 -17.828125 16.191406 -17.554688 C 15.667969 -17.453125 15.320312 -17.265625 15.15625 -16.984375 C 14.875 -16.5 14.691406 -15.921875 14.613281 -15.246094 L 13.167969 -15.417969 L 13.203125 -16.867188 C 15.683594 -16.8125 17.609375 -16.539062 18.984375 -16.046875 C 19.910156 -15.714844 20.617188 -15.167969 21.101562 -14.402344 C 21.558594 -13.679688 21.789062 -12.804688 21.789062 -11.773438 C 21.789062 -10.359375 21.339844 -9.253906 20.445312 -8.460938 C 19.671875 -7.773438 18.609375 -7.316406 17.265625 -7.089844 C 16.121094 -6.894531 14.792969 -6.785156 13.273438 -6.757812 L 13.246094 -8.210938 L 14.699219 -8.210938 C 14.699219 -7.195312 14.710938 -6.273438 14.738281 -5.449219 C 14.765625 -4.59375 14.777344 -3.8125 14.777344 -3.097656 C 14.777344 -1.945312 14.511719 -1.019531 13.976562 -0.316406 C 13.457031 0.359375 12.8125 0.824219 12.050781 1.070312 C 11.425781 1.273438 10.816406 1.375 10.226562 1.375 Z M 10.226562 -1.53125 C 10.511719 -1.53125 10.820312 -1.585938 11.152344 -1.691406 C 11.34375 -1.753906 11.515625 -1.882812 11.667969 -2.082031 C 11.804688 -2.261719 11.871094 -2.601562 11.871094 -3.097656 C 11.871094 -3.78125 11.859375 -4.535156 11.832031 -5.359375 C 11.808594 -6.210938 11.792969 -7.164062 11.792969 -8.210938 L 11.792969 -9.640625 L 13.222656 -9.664062 C 14.59375 -9.6875 15.78125 -9.785156 16.78125 -9.953125 C 17.578125 -10.089844 18.160156 -10.316406 18.519531 -10.636719 C 18.761719 -10.851562 18.882812 -11.230469 18.882812 -11.773438 C 18.882812 -12.242188 18.804688 -12.601562 18.648438 -12.847656 C 18.519531 -13.050781 18.304688 -13.207031 18.007812 -13.3125 C 16.925781 -13.699219 15.304688 -13.914062 13.136719 -13.964844 L 11.539062 -14 L 11.726562 -15.585938 C 11.855469 -16.667969 12.164062 -17.625 12.652344 -18.457031 C 13.261719 -19.496094 14.261719 -20.144531 15.648438 -20.40625 C 16.644531 -20.597656 17.492188 -20.945312 18.179688 -21.449219 C 18.648438 -21.792969 18.882812 -22.402344 18.882812 -23.277344 C 18.882812 -23.703125 18.8125 -24.054688 18.671875 -24.328125 C 18.542969 -24.574219 18.347656 -24.78125 18.074219 -24.953125 C 17.316406 -25.425781 16.417969 -25.660156 15.378906 -25.660156 C 13.328125 -25.660156 11.773438 -25.261719 10.714844 -24.464844 C 9.640625 -23.652344 8.859375 -22.5 8.371094 -21.007812 C 7.832031 -19.347656 7.5 -17.429688 7.375 -15.257812 L 7.308594 -14.015625 L 6.070312 -13.894531 C 4.703125 -13.757812 3.679688 -13.492188 2.996094 -13.09375 C 2.8125 -12.988281 2.675781 -12.847656 2.589844 -12.675781 C 2.476562 -12.453125 2.421875 -12.152344 2.421875 -11.773438 C 2.421875 -11.398438 2.476562 -11.101562 2.589844 -10.882812 C 2.671875 -10.71875 2.804688 -10.582031 2.984375 -10.480469 C 3.660156 -10.097656 4.683594 -9.847656 6.046875 -9.738281 L 7.296875 -9.632812 L 7.375 -8.382812 C 7.472656 -6.839844 7.660156 -5.496094 7.9375 -4.351562 C 8.179688 -3.347656 8.523438 -2.585938 8.96875 -2.066406 C 9.273438 -1.707031 9.691406 -1.53125 10.226562 -1.53125 Z M 10.226562 -1.53125 "/></g></g></g><g fill="#cb6ce6" fill-opacity="1"><g transform="translate(209.723668, 55.350108)"><g><path d="M 5.5 -17.332031 C 3.820312 -17.332031 2.398438 -17.941406 1.234375 -19.15625 C 0.0898438 -20.355469 -0.484375 -21.804688 -0.484375 -23.511719 C -0.484375 -24.648438 -0.21875 -25.675781 0.308594 -26.597656 C 0.832031 -27.507812 1.535156 -28.238281 2.425781 -28.792969 C 3.347656 -29.363281 4.371094 -29.652344 5.5 -29.652344 C 6.601562 -29.652344 7.613281 -29.363281 8.535156 -28.792969 C 9.417969 -28.242188 10.128906 -27.515625 10.664062 -26.613281 C 11.210938 -25.691406 11.484375 -24.65625 11.484375 -23.511719 C 11.484375 -22.371094 11.210938 -21.335938 10.667969 -20.398438 C 10.132812 -19.480469 9.421875 -18.746094 8.535156 -18.191406 C 7.613281 -17.621094 6.601562 -17.332031 5.5 -17.332031 Z M 5.5 -20.238281 C 6.050781 -20.238281 6.550781 -20.378906 7 -20.660156 C 7.476562 -20.957031 7.863281 -21.359375 8.15625 -21.859375 C 8.4375 -22.34375 8.578125 -22.894531 8.578125 -23.511719 C 8.578125 -24.125 8.441406 -24.664062 8.164062 -25.132812 C 7.871094 -25.628906 7.480469 -26.023438 7 -26.324219 C 6.550781 -26.605469 6.050781 -26.746094 5.5 -26.746094 C 4.925781 -26.746094 4.414062 -26.605469 3.964844 -26.324219 C 3.484375 -26.027344 3.109375 -25.636719 2.828125 -25.152344 C 2.558594 -24.679688 2.421875 -24.132812 2.421875 -23.511719 C 2.421875 -22.582031 2.726562 -21.800781 3.335938 -21.164062 C 3.925781 -20.546875 4.648438 -20.238281 5.5 -20.238281 Z M 5.5 1.453125 C 4.019531 1.453125 2.882812 0.984375 2.085938 0.046875 C 1.402344 -0.761719 0.957031 -1.917969 0.75 -3.425781 C 0.574219 -4.710938 0.472656 -6.351562 0.445312 -8.347656 C 0.445312 -10.363281 0.535156 -12.023438 0.710938 -13.324219 C 0.917969 -14.859375 1.378906 -16.023438 2.089844 -16.828125 C 2.894531 -17.734375 4.03125 -18.1875 5.5 -18.1875 C 6.976562 -18.1875 8.109375 -17.726562 8.902344 -16.8125 C 9.59375 -16.019531 10.046875 -14.859375 10.269531 -13.339844 C 10.460938 -12.03125 10.554688 -10.375 10.554688 -8.367188 C 10.582031 -6.367188 10.5 -4.714844 10.308594 -3.410156 C 10.085938 -1.902344 9.621094 -0.746094 8.921875 0.0625 C 8.113281 0.988281 6.972656 1.453125 5.5 1.453125 Z M 5.5 -1.453125 C 6.09375 -1.453125 6.5 -1.582031 6.726562 -1.84375 C 7.058594 -2.222656 7.292969 -2.886719 7.433594 -3.832031 C 7.601562 -4.984375 7.675781 -6.496094 7.648438 -8.367188 C 7.648438 -10.234375 7.566406 -11.75 7.394531 -12.921875 C 7.253906 -13.878906 7.023438 -14.542969 6.707031 -14.910156 C 6.492188 -15.15625 6.089844 -15.28125 5.5 -15.28125 C 4.902344 -15.28125 4.488281 -15.152344 4.261719 -14.898438 C 3.941406 -14.535156 3.71875 -13.882812 3.589844 -12.9375 C 3.429688 -11.761719 3.351562 -10.246094 3.351562 -8.386719 C 3.375 -6.507812 3.46875 -4.984375 3.628906 -3.820312 C 3.757812 -2.871094 3.984375 -2.207031 4.304688 -1.832031 C 4.515625 -1.578125 4.914062 -1.453125 5.5 -1.453125 Z M 5.5 -1.453125 "/></g></g></g><g fill="#cb6ce6" fill-opacity="1"><g transform="translate(220.723268, 55.350108)"><g><path d="M 16.269531 1.453125 C 14.746094 1.453125 13.625 0.964844 12.910156 -0.0117188 C 12.320312 -0.8125 11.976562 -1.792969 11.878906 -2.953125 C 11.796875 -3.886719 11.753906 -4.824219 11.753906 -5.769531 C 11.753906 -6.925781 11.605469 -7.828125 11.308594 -8.472656 C 11.238281 -8.628906 11.15625 -8.734375 11.0625 -8.789062 C 10.953125 -8.855469 10.792969 -8.890625 10.574219 -8.890625 C 10.421875 -8.890625 10.304688 -8.863281 10.222656 -8.808594 C 10.125 -8.746094 10.03125 -8.621094 9.941406 -8.441406 C 9.628906 -7.804688 9.472656 -6.914062 9.472656 -5.769531 C 9.472656 -4.832031 9.4375 -3.90625 9.371094 -2.992188 C 9.285156 -1.84375 8.957031 -0.871094 8.386719 -0.0664062 C 7.6875 0.917969 6.542969 1.414062 4.957031 1.414062 C 3.722656 1.414062 2.695312 0.953125 1.878906 0.0351562 C 1.207031 -0.71875 0.695312 -1.675781 0.351562 -2.839844 C 0.0390625 -3.882812 -0.175781 -5 -0.300781 -6.203125 C -0.421875 -7.363281 -0.484375 -8.484375 -0.484375 -9.566406 C -0.484375 -10.644531 -0.429688 -11.75 -0.324219 -12.882812 C -0.210938 -14.058594 -0.0078125 -15.152344 0.289062 -16.171875 C 0.625 -17.316406 1.125 -18.253906 1.792969 -18.988281 C 2.597656 -19.875 3.625 -20.316406 4.878906 -20.316406 C 5.933594 -20.316406 6.816406 -20.054688 7.53125 -19.53125 C 8.261719 -18.996094 8.765625 -18.226562 9.035156 -17.226562 L 7.628906 -16.847656 L 6.5625 -17.835938 C 7.011719 -18.320312 7.671875 -18.753906 8.542969 -19.132812 C 9.414062 -19.507812 10.386719 -19.695312 11.464844 -19.695312 C 13.792969 -19.695312 15.71875 -19.085938 17.25 -17.871094 C 18.742188 -16.683594 19.824219 -15.066406 20.496094 -13.023438 C 21.125 -11.101562 21.429688 -8.898438 21.402344 -6.414062 C 21.402344 -5.128906 21.277344 -3.949219 21.035156 -2.875 C 20.757812 -1.65625 20.269531 -0.664062 19.570312 0.105469 C 18.753906 1.003906 17.652344 1.453125 16.269531 1.453125 Z M 16.269531 -1.453125 C 16.796875 -1.453125 17.179688 -1.585938 17.421875 -1.851562 C 17.777344 -2.242188 18.039062 -2.796875 18.203125 -3.515625 C 18.398438 -4.378906 18.496094 -5.355469 18.496094 -6.445312 C 18.519531 -8.609375 18.265625 -10.5 17.734375 -12.117188 C 17.246094 -13.609375 16.480469 -14.769531 15.441406 -15.597656 C 14.441406 -16.394531 13.117188 -16.792969 11.464844 -16.792969 C 10.789062 -16.792969 10.199219 -16.683594 9.699219 -16.464844 C 9.203125 -16.25 8.871094 -16.050781 8.699219 -15.863281 L 6.914062 -13.929688 L 6.226562 -16.472656 C 6.136719 -16.816406 5.996094 -17.054688 5.8125 -17.1875 C 5.609375 -17.335938 5.300781 -17.410156 4.878906 -17.410156 C 4.484375 -17.410156 4.167969 -17.285156 3.941406 -17.035156 C 3.574219 -16.632812 3.289062 -16.074219 3.078125 -15.359375 C 2.835938 -14.515625 2.664062 -13.597656 2.570312 -12.605469 C 2.46875 -11.566406 2.421875 -10.554688 2.421875 -9.566406 C 2.421875 -8.585938 2.476562 -7.5625 2.585938 -6.503906 C 2.695312 -5.484375 2.878906 -4.539062 3.136719 -3.667969 C 3.359375 -2.917969 3.660156 -2.328125 4.046875 -1.894531 C 4.289062 -1.625 4.589844 -1.492188 4.957031 -1.492188 C 5.320312 -1.492188 5.601562 -1.53125 5.808594 -1.609375 C 5.910156 -1.652344 5.980469 -1.699219 6.019531 -1.753906 C 6.277344 -2.113281 6.425781 -2.597656 6.472656 -3.207031 C 6.535156 -4.046875 6.566406 -4.902344 6.566406 -5.769531 C 6.566406 -7.367188 6.820312 -8.683594 7.335938 -9.726562 C 7.660156 -10.382812 8.09375 -10.890625 8.640625 -11.246094 C 9.203125 -11.613281 9.847656 -11.792969 10.574219 -11.792969 C 11.339844 -11.792969 12.007812 -11.617188 12.582031 -11.265625 C 13.175781 -10.902344 13.628906 -10.378906 13.945312 -9.691406 C 14.421875 -8.660156 14.660156 -7.351562 14.660156 -5.769531 C 14.660156 -4.910156 14.699219 -4.054688 14.773438 -3.207031 C 14.824219 -2.585938 14.984375 -2.09375 15.25 -1.730469 C 15.386719 -1.546875 15.726562 -1.453125 16.269531 -1.453125 Z M 16.269531 -1.453125 "/></g></g></g><g fill="#cb6ce6" fill-opacity="1"><g transform="translate(241.638005, 55.350108)"><g><path d="M 10.1875 1.453125 C 7.988281 1.453125 6.078125 0.921875 4.453125 -0.140625 C 2.855469 -1.183594 1.628906 -2.546875 0.777344 -4.222656 C -0.0625 -5.875 -0.484375 -7.605469 -0.484375 -9.414062 C -0.484375 -11.707031 -0.00390625 -13.617188 0.960938 -15.144531 C 1.917969 -16.664062 3.148438 -17.800781 4.65625 -18.554688 C 6.125 -19.289062 7.660156 -19.65625 9.257812 -19.65625 C 10.003906 -19.65625 10.761719 -19.578125 11.535156 -19.414062 C 12.351562 -19.242188 13.121094 -18.949219 13.847656 -18.539062 L 13.132812 -17.277344 L 11.683594 -17.140625 C 11.589844 -18.144531 11.386719 -19.128906 11.070312 -20.097656 C 10.675781 -21.316406 10.476562 -22.558594 10.476562 -23.820312 C 10.476562 -25.429688 11.011719 -26.652344 12.085938 -27.484375 C 13.042969 -28.230469 14.089844 -28.605469 15.222656 -28.605469 C 16.519531 -28.605469 17.640625 -28.1875 18.585938 -27.351562 C 19.402344 -26.628906 20.089844 -25.691406 20.652344 -24.535156 C 21.179688 -23.453125 21.597656 -22.25 21.90625 -20.914062 C 22.203125 -19.628906 22.421875 -18.308594 22.554688 -16.957031 C 22.691406 -15.617188 22.757812 -14.328125 22.757812 -13.09375 C 22.757812 -12.679688 22.738281 -12.0625 22.695312 -11.238281 C 22.652344 -10.363281 22.523438 -9.394531 22.300781 -8.339844 C 22.070312 -7.253906 21.710938 -6.164062 21.214844 -5.058594 C 20.695312 -3.902344 19.972656 -2.835938 19.042969 -1.863281 C 18.089844 -0.863281 16.886719 -0.0625 15.433594 0.546875 C 13.988281 1.152344 12.242188 1.453125 10.1875 1.453125 Z M 10.1875 -1.453125 C 11.851562 -1.453125 13.226562 -1.679688 14.3125 -2.132812 C 15.390625 -2.585938 16.269531 -3.164062 16.941406 -3.871094 C 17.640625 -4.601562 18.179688 -5.394531 18.566406 -6.25 C 18.972656 -7.160156 19.269531 -8.058594 19.457031 -8.9375 C 19.648438 -9.84375 19.757812 -10.65625 19.792969 -11.378906 C 19.832031 -12.15625 19.851562 -12.726562 19.851562 -13.09375 C 19.851562 -14.230469 19.789062 -15.421875 19.664062 -16.667969 C 19.542969 -17.894531 19.34375 -19.09375 19.074219 -20.257812 C 18.816406 -21.378906 18.472656 -22.378906 18.042969 -23.261719 C 17.648438 -24.070312 17.1875 -24.707031 16.660156 -25.171875 C 16.265625 -25.523438 15.785156 -25.699219 15.222656 -25.699219 C 14.753906 -25.699219 14.304688 -25.53125 13.867188 -25.191406 C 13.542969 -24.941406 13.382812 -24.484375 13.382812 -23.820312 C 13.382812 -22.863281 13.535156 -21.921875 13.835938 -20.996094 C 14.214844 -19.824219 14.464844 -18.628906 14.578125 -17.410156 L 14.835938 -14.644531 L 12.417969 -16.011719 C 11.953125 -16.273438 11.457031 -16.460938 10.933594 -16.570312 C 10.359375 -16.691406 9.800781 -16.753906 9.257812 -16.753906 C 8.117188 -16.753906 7.015625 -16.488281 5.957031 -15.957031 C 4.933594 -15.445312 4.085938 -14.65625 3.417969 -13.597656 C 2.753906 -12.542969 2.421875 -11.148438 2.421875 -9.414062 C 2.421875 -8.070312 2.738281 -6.777344 3.367188 -5.539062 C 3.984375 -4.324219 4.878906 -3.332031 6.042969 -2.570312 C 7.183594 -1.824219 8.566406 -1.453125 10.1875 -1.453125 Z M 10.417969 -7.574219 C 10.707031 -7.574219 10.96875 -7.691406 11.199219 -7.929688 C 11.441406 -8.175781 11.5625 -8.464844 11.5625 -8.792969 C 11.5625 -9.128906 11.4375 -9.425781 11.1875 -9.6875 C 10.957031 -9.929688 10.703125 -10.050781 10.417969 -10.050781 C 10.128906 -10.050781 9.863281 -9.925781 9.621094 -9.675781 C 9.367188 -9.414062 9.238281 -9.121094 9.238281 -8.792969 C 9.238281 -8.472656 9.359375 -8.1875 9.605469 -7.941406 C 9.851562 -7.695312 10.125 -7.574219 10.417969 -7.574219 Z M 10.417969 -4.667969 C 9.320312 -4.667969 8.367188 -5.074219 7.550781 -5.886719 C 6.738281 -6.699219 6.332031 -7.667969 6.332031 -8.792969 C 6.332031 -9.910156 6.734375 -10.882812 7.539062 -11.707031 C 8.355469 -12.539062 9.3125 -12.957031 10.417969 -12.957031 C 11.53125 -12.957031 12.488281 -12.535156 13.292969 -11.691406 C 14.074219 -10.871094 14.46875 -9.902344 14.46875 -8.792969 C 14.46875 -7.675781 14.070312 -6.710938 13.28125 -5.898438 C 12.476562 -5.078125 11.523438 -4.667969 10.417969 -4.667969 Z M 10.417969 -4.667969 "/></g></g></g><g fill="#cb6ce6" fill-opacity="1"><g transform="translate(263.908328, 55.350108)"><g><path d="M 10.691406 1.453125 C 8.515625 1.453125 6.59375 1.015625 4.925781 0.144531 C 3.226562 -0.742188 1.902344 -1.964844 0.949219 -3.523438 C -0.0078125 -5.085938 -0.484375 -6.867188 -0.484375 -8.871094 C -0.484375 -10.804688 -0.0117188 -12.597656 0.929688 -14.242188 C 1.867188 -15.882812 3.164062 -17.191406 4.816406 -18.175781 C 6.476562 -19.164062 8.371094 -19.65625 10.496094 -19.65625 C 12.480469 -19.65625 14.203125 -19.246094 15.664062 -18.425781 C 17.121094 -17.605469 18.246094 -16.550781 19.035156 -15.265625 C 19.839844 -13.960938 20.238281 -12.578125 20.238281 -11.117188 C 20.238281 -9.621094 19.878906 -8.363281 19.15625 -7.351562 C 18.464844 -6.378906 17.570312 -5.640625 16.472656 -5.128906 C 15.472656 -4.667969 14.410156 -4.363281 13.28125 -4.214844 C 12.1875 -4.070312 11.136719 -4.050781 10.121094 -4.152344 C 9.109375 -4.253906 8.242188 -4.421875 7.519531 -4.664062 L 7.980469 -6.042969 L 9.214844 -6.808594 C 9.507812 -6.335938 9.855469 -6.023438 10.261719 -5.871094 C 10.78125 -5.671875 11.332031 -5.585938 11.917969 -5.613281 C 12.632812 -5.648438 13.277344 -5.726562 13.851562 -5.839844 L 14.136719 -4.414062 L 13.816406 -5.832031 C 14.957031 -6.089844 15.9375 -6.011719 16.761719 -5.597656 C 17.253906 -5.351562 17.640625 -5.019531 17.917969 -4.59375 C 18.199219 -4.164062 18.351562 -3.675781 18.378906 -3.125 C 18.421875 -2.320312 18.164062 -1.542969 17.605469 -0.792969 C 17.082031 -0.0976562 16.230469 0.464844 15.050781 0.882812 C 13.992188 1.261719 12.535156 1.453125 10.691406 1.453125 Z M 10.691406 -1.453125 C 12.203125 -1.453125 13.328125 -1.585938 14.074219 -1.851562 C 14.703125 -2.078125 15.105469 -2.304688 15.28125 -2.539062 C 15.417969 -2.71875 15.480469 -2.871094 15.476562 -2.992188 C 15.476562 -3.015625 15.472656 -3.03125 15.472656 -3.035156 C 15.472656 -3.023438 15.480469 -3.011719 15.488281 -3 C 15.496094 -2.988281 15.503906 -2.976562 15.511719 -2.972656 C 15.503906 -2.980469 15.488281 -2.988281 15.464844 -3 C 15.257812 -3.105469 14.921875 -3.101562 14.457031 -3 L 14.441406 -2.996094 L 14.421875 -2.992188 C 13.707031 -2.847656 12.917969 -2.753906 12.058594 -2.714844 C 11.070312 -2.664062 10.125 -2.8125 9.222656 -3.15625 C 8.207031 -3.542969 7.382812 -4.25 6.746094 -5.277344 L 4.625 -8.691406 L 8.4375 -7.421875 C 8.957031 -7.25 9.613281 -7.121094 10.410156 -7.042969 C 11.203125 -6.964844 12.03125 -6.980469 12.902344 -7.09375 C 13.738281 -7.207031 14.519531 -7.429688 15.25 -7.769531 C 15.882812 -8.058594 16.394531 -8.480469 16.789062 -9.035156 C 17.152344 -9.542969 17.332031 -10.238281 17.332031 -11.117188 C 17.332031 -12.03125 17.074219 -12.90625 16.5625 -13.746094 C 16.035156 -14.601562 15.261719 -15.320312 14.238281 -15.894531 C 13.222656 -16.464844 11.972656 -16.753906 10.496094 -16.753906 C 8.902344 -16.753906 7.503906 -16.394531 6.300781 -15.679688 C 5.085938 -14.957031 4.136719 -13.996094 3.449219 -12.796875 C 2.765625 -11.601562 2.421875 -10.289062 2.421875 -8.871094 C 2.421875 -7.414062 2.757812 -6.136719 3.429688 -5.039062 C 4.101562 -3.9375 5.046875 -3.066406 6.269531 -2.429688 C 7.519531 -1.777344 8.992188 -1.453125 10.691406 -1.453125 Z M 9.328125 -11.539062 C 9.402344 -11.417969 9.523438 -11.328125 9.6875 -11.269531 C 9.980469 -11.171875 10.269531 -11.136719 10.5625 -11.167969 C 10.828125 -11.195312 11.035156 -11.257812 11.183594 -11.355469 C 11.15625 -11.339844 11.128906 -11.304688 11.101562 -11.253906 C 11.074219 -11.199219 11.058594 -11.15625 11.058594 -11.117188 C 11.058594 -11.15625 11.027344 -11.207031 10.960938 -11.269531 C 10.953125 -11.277344 10.925781 -11.289062 10.875 -11.304688 C 10.742188 -11.347656 10.566406 -11.367188 10.34375 -11.367188 C 10.0625 -11.367188 9.875 -11.3125 9.78125 -11.199219 C 9.625 -11.019531 9.546875 -10.875 9.546875 -10.769531 L 8.09375 -10.769531 Z M 6.863281 -10 L 6.644531 -10.351562 L 6.644531 -10.769531 C 6.644531 -11.589844 6.953125 -12.363281 7.574219 -13.089844 C 8.25 -13.878906 9.171875 -14.273438 10.34375 -14.273438 C 11.492188 -14.273438 12.382812 -13.957031 13.015625 -13.324219 C 13.648438 -12.691406 13.964844 -11.957031 13.964844 -11.117188 C 13.964844 -10.664062 13.863281 -10.25 13.660156 -9.875 C 13.457031 -9.5 13.167969 -9.191406 12.792969 -8.941406 C 12.246094 -8.574219 11.601562 -8.351562 10.859375 -8.277344 C 10.144531 -8.203125 9.441406 -8.285156 8.75 -8.523438 C 7.933594 -8.800781 7.304688 -9.292969 6.863281 -10 Z M 6.863281 -10 "/></g></g></g><g fill="#cb6ce6" fill-opacity="1"><g transform="translate(283.661144, 55.350108)"><g><path d="M 5.113281 1.453125 C 3.820312 1.453125 2.753906 1.011719 1.914062 0.132812 C 1.195312 -0.621094 0.660156 -1.601562 0.308594 -2.8125 C -0.00390625 -3.886719 -0.214844 -5.105469 -0.324219 -6.464844 C -0.429688 -7.769531 -0.484375 -9.113281 -0.484375 -10.496094 C -0.484375 -11.421875 -0.464844 -12.363281 -0.425781 -13.324219 C -0.382812 -14.378906 -0.234375 -15.359375 0.0117188 -16.265625 C 0.304688 -17.324219 0.8125 -18.199219 1.535156 -18.890625 C 2.34375 -19.660156 3.433594 -20.046875 4.804688 -20.046875 C 5.757812 -20.046875 6.628906 -19.820312 7.417969 -19.371094 C 8.351562 -18.839844 8.945312 -18.046875 9.199219 -16.996094 L 7.785156 -16.65625 L 6.804688 -17.730469 C 7.574219 -18.429688 8.53125 -18.933594 9.675781 -19.242188 C 10.714844 -19.519531 11.789062 -19.65625 12.898438 -19.65625 C 13.941406 -19.65625 14.984375 -19.410156 16.035156 -18.917969 C 17.074219 -18.429688 17.960938 -17.757812 18.691406 -16.902344 C 19.515625 -15.933594 19.929688 -14.832031 19.929688 -13.597656 C 19.929688 -12.5 19.539062 -11.480469 18.761719 -10.539062 C 17.917969 -9.515625 16.761719 -9.003906 15.300781 -9.003906 C 14.671875 -9.003906 14.125 -9.101562 13.664062 -9.289062 L 12.855469 -9.613281 C 12.777344 -9.648438 12.648438 -9.664062 12.472656 -9.664062 C 11.910156 -9.664062 11.375 -9.417969 10.867188 -8.929688 C 10.375 -8.453125 10.128906 -7.773438 10.128906 -6.894531 C 10.128906 -6.199219 10.109375 -5.445312 10.070312 -4.636719 C 10.027344 -3.742188 9.894531 -2.886719 9.671875 -2.0625 C 9.40625 -1.070312 8.925781 -0.25 8.226562 0.390625 C 7.457031 1.097656 6.421875 1.453125 5.113281 1.453125 Z M 5.113281 -1.453125 C 5.664062 -1.453125 6.046875 -1.550781 6.257812 -1.746094 C 6.542969 -2.007812 6.746094 -2.363281 6.867188 -2.816406 C 7.035156 -3.4375 7.132812 -4.09375 7.167969 -4.777344 C 7.203125 -5.542969 7.222656 -6.246094 7.222656 -6.894531 C 7.222656 -8.597656 7.765625 -9.972656 8.847656 -11.019531 C 9.917969 -12.050781 11.125 -12.570312 12.472656 -12.570312 C 13.019531 -12.570312 13.511719 -12.484375 13.945312 -12.308594 L 14.765625 -11.976562 C 14.875 -11.933594 15.050781 -11.910156 15.300781 -11.910156 C 15.851562 -11.910156 16.257812 -12.070312 16.523438 -12.390625 C 16.855469 -12.792969 17.023438 -13.195312 17.023438 -13.597656 C 17.023438 -14.117188 16.84375 -14.589844 16.480469 -15.015625 C 16.019531 -15.554688 15.460938 -15.980469 14.796875 -16.289062 C 14.140625 -16.597656 13.507812 -16.753906 12.898438 -16.753906 C 12.042969 -16.753906 11.222656 -16.644531 10.425781 -16.433594 C 9.738281 -16.25 9.183594 -15.964844 8.765625 -15.582031 L 6.949219 -13.921875 L 6.371094 -16.316406 C 6.316406 -16.554688 6.1875 -16.730469 5.984375 -16.84375 C 5.636719 -17.042969 5.246094 -17.140625 4.804688 -17.140625 C 4.207031 -17.140625 3.789062 -17.019531 3.539062 -16.785156 C 3.203125 -16.464844 2.964844 -16.039062 2.816406 -15.496094 C 2.625 -14.800781 2.511719 -14.039062 2.476562 -13.207031 C 2.441406 -12.285156 2.421875 -11.382812 2.421875 -10.496094 C 2.421875 -9.195312 2.472656 -7.929688 2.570312 -6.703125 C 2.667969 -5.535156 2.84375 -4.507812 3.101562 -3.617188 C 3.316406 -2.867188 3.621094 -2.285156 4.011719 -1.875 C 4.28125 -1.59375 4.648438 -1.453125 5.113281 -1.453125 Z M 5.113281 -1.453125 "/></g></g></g><g fill="#ebcdff" fill-opacity="1"><g transform="translate(1.887851, 55.350108)"><g><path d="M 5.3125 0 C 4.226562 0 3.382812 -0.3125 2.78125 -0.9375 C 2.1875 -1.570312 1.757812 -2.410156 1.5 -3.453125 C 1.25 -4.503906 1.097656 -5.660156 1.046875 -6.921875 C 0.992188 -8.191406 0.96875 -9.460938 0.96875 -10.734375 C 0.96875 -11.347656 0.972656 -12.148438 0.984375 -13.140625 C 0.992188 -14.140625 1.003906 -15.160156 1.015625 -16.203125 C 1.035156 -17.253906 1.054688 -18.1875 1.078125 -19 C 1.109375 -19.8125 1.132812 -20.375 1.15625 -20.6875 C 1.207031 -22.539062 1.59375 -24.070312 2.3125 -25.28125 C 3.039062 -26.5 4.113281 -27.109375 5.53125 -27.109375 C 7.164062 -27.109375 8.285156 -26.40625 8.890625 -25 C 9.492188 -23.59375 9.796875 -21.570312 9.796875 -18.9375 C 9.796875 -18.65625 9.796875 -18.269531 9.796875 -17.78125 C 10.285156 -18.6875 10.882812 -19.664062 11.59375 -20.71875 C 12.3125 -21.78125 13.09375 -22.785156 13.9375 -23.734375 C 14.789062 -24.691406 15.695312 -25.472656 16.65625 -26.078125 C 17.613281 -26.691406 18.582031 -27 19.5625 -27 C 20.769531 -27 21.769531 -26.539062 22.5625 -25.625 C 23.351562 -24.707031 23.75 -23.578125 23.75 -22.234375 C 23.75 -21.015625 23.390625 -19.832031 22.671875 -18.6875 C 21.960938 -17.539062 20.988281 -16.5 19.75 -15.5625 C 18.507812 -14.632812 17.066406 -13.875 15.421875 -13.28125 C 16.367188 -12.84375 17.332031 -12.320312 18.3125 -11.71875 C 19.300781 -11.113281 20.203125 -10.441406 21.015625 -9.703125 C 21.828125 -8.960938 22.476562 -8.164062 22.96875 -7.3125 C 23.457031 -6.46875 23.703125 -5.554688 23.703125 -4.578125 C 23.703125 -3.484375 23.488281 -2.597656 23.0625 -1.921875 C 22.632812 -1.253906 22.082031 -0.765625 21.40625 -0.453125 C 20.738281 -0.148438 20.035156 0 19.296875 0 C 17.972656 0 16.742188 -0.425781 15.609375 -1.28125 C 14.472656 -2.132812 13.421875 -3.242188 12.453125 -4.609375 C 11.484375 -5.972656 10.585938 -7.40625 9.765625 -8.90625 C 9.765625 -7.769531 9.71875 -6.671875 9.625 -5.609375 C 9.53125 -4.554688 9.34375 -3.601562 9.0625 -2.75 C 8.78125 -1.894531 8.34375 -1.222656 7.75 -0.734375 C 7.15625 -0.242188 6.34375 0 5.3125 0 Z M 5.3125 0 "/></g></g></g><g fill="#ebcdff" fill-opacity="1"><g transform="translate(26.598235, 55.350108)"><g><path d="M 14.171875 0.03125 C 12.390625 0.0625 10.710938 -0.253906 9.140625 -0.921875 C 7.566406 -1.597656 6.171875 -2.554688 4.953125 -3.796875 C 3.742188 -5.035156 2.789062 -6.476562 2.09375 -8.125 C 1.394531 -9.78125 1.019531 -11.578125 0.96875 -13.515625 C 0.9375 -15.378906 1.253906 -17.125 1.921875 -18.75 C 2.597656 -20.375 3.539062 -21.804688 4.75 -23.046875 C 5.96875 -24.285156 7.378906 -25.257812 8.984375 -25.96875 C 10.585938 -26.675781 12.316406 -27.03125 14.171875 -27.03125 C 15.953125 -27.0625 17.628906 -26.738281 19.203125 -26.0625 C 20.785156 -25.394531 22.179688 -24.445312 23.390625 -23.21875 C 24.609375 -21.988281 25.570312 -20.546875 26.28125 -18.890625 C 26.988281 -17.242188 27.359375 -15.453125 27.390625 -13.515625 C 27.441406 -11.660156 27.125 -9.914062 26.4375 -8.28125 C 25.75 -6.65625 24.796875 -5.226562 23.578125 -4 C 22.367188 -2.78125 20.957031 -1.8125 19.34375 -1.09375 C 17.726562 -0.382812 16.003906 -0.0078125 14.171875 0.03125 Z M 14.296875 -7.515625 C 15.429688 -7.515625 16.429688 -7.925781 17.296875 -8.75 C 18.160156 -9.582031 18.578125 -10.707031 18.546875 -12.125 C 18.546875 -13.570312 18.117188 -14.707031 17.265625 -15.53125 C 16.421875 -16.351562 15.429688 -16.765625 14.296875 -16.765625 C 13.160156 -16.765625 12.164062 -16.351562 11.3125 -15.53125 C 10.457031 -14.707031 10.03125 -13.570312 10.03125 -12.125 C 10.03125 -10.707031 10.457031 -9.582031 11.3125 -8.75 C 12.164062 -7.925781 13.160156 -7.515625 14.296875 -7.515625 Z M 14.296875 -7.515625 "/></g></g></g><g fill="#ebcdff" fill-opacity="1"><g transform="translate(54.951795, 55.350108)"><g/></g></g><g fill="#ebcdff" fill-opacity="1"><g transform="translate(66.571098, 55.350108)"><g/></g></g><g fill="#ebcdff" fill-opacity="1"><g transform="translate(78.1904, 55.350108)"><g/></g></g><g fill="#ebcdff" fill-opacity="1"><g transform="translate(89.809703, 55.350108)"><g/></g></g><g fill="#ebcdff" fill-opacity="1"><g transform="translate(101.429006, 55.350108)"><g/></g></g><g fill="#ebcdff" fill-opacity="1"><g transform="translate(113.048308, 55.350108)"><g/></g></g><g fill="#ebcdff" fill-opacity="1"><g transform="translate(124.670373, 55.350108)"><g><path d="M 13.796875 -0.03125 C 11.023438 -0.0625 8.679688 -0.515625 6.765625 -1.390625 C 4.859375 -2.273438 3.414062 -3.691406 2.4375 -5.640625 C 1.457031 -7.585938 0.96875 -10.175781 0.96875 -13.40625 C 0.96875 -16.21875 1.425781 -18.644531 2.34375 -20.6875 C 3.257812 -22.726562 4.59375 -24.304688 6.34375 -25.421875 C 8.101562 -26.546875 10.265625 -27.109375 12.828125 -27.109375 C 15.066406 -27.109375 17.023438 -26.785156 18.703125 -26.140625 C 20.378906 -25.492188 21.703125 -24.570312 22.671875 -23.375 C 23.640625 -22.175781 24.175781 -20.75 24.28125 -19.09375 C 24.382812 -17.519531 24.117188 -16.148438 23.484375 -14.984375 C 22.859375 -13.828125 21.925781 -12.796875 20.6875 -11.890625 C 21.59375 -11.734375 22.410156 -11.226562 23.140625 -10.375 C 23.878906 -9.53125 24.25 -8.5 24.25 -7.28125 C 24.25 -6.457031 24.078125 -5.617188 23.734375 -4.765625 C 23.398438 -3.910156 22.835938 -3.117188 22.046875 -2.390625 C 21.265625 -1.671875 20.195312 -1.097656 18.84375 -0.671875 C 17.488281 -0.242188 15.804688 -0.03125 13.796875 -0.03125 Z M 11.109375 -14.484375 C 11.660156 -14.253906 12.304688 -14.144531 13.046875 -14.15625 C 13.796875 -14.164062 14.460938 -14.363281 15.046875 -14.75 C 15.628906 -15.144531 15.921875 -15.742188 15.921875 -16.546875 C 15.921875 -17.140625 15.742188 -17.613281 15.390625 -17.96875 C 15.046875 -18.332031 14.613281 -18.582031 14.09375 -18.71875 C 13.582031 -18.863281 13.054688 -18.921875 12.515625 -18.890625 C 11.972656 -18.867188 11.503906 -18.753906 11.109375 -18.546875 C 10.617188 -18.316406 10.289062 -17.914062 10.125 -17.34375 C 9.957031 -16.78125 9.957031 -16.21875 10.125 -15.65625 C 10.289062 -15.101562 10.617188 -14.710938 11.109375 -14.484375 Z M 11.109375 -5.421875 C 11.660156 -5.210938 12.304688 -5.113281 13.046875 -5.125 C 13.796875 -5.144531 14.460938 -5.320312 15.046875 -5.65625 C 15.628906 -5.988281 15.921875 -6.503906 15.921875 -7.203125 C 15.921875 -7.722656 15.742188 -8.144531 15.390625 -8.46875 C 15.046875 -8.789062 14.613281 -9.015625 14.09375 -9.140625 C 13.582031 -9.265625 13.054688 -9.304688 12.515625 -9.265625 C 11.972656 -9.234375 11.503906 -9.140625 11.109375 -8.984375 C 10.617188 -8.773438 10.289062 -8.425781 10.125 -7.9375 C 9.957031 -7.445312 9.957031 -6.957031 10.125 -6.46875 C 10.289062 -5.976562 10.617188 -5.628906 11.109375 -5.421875 Z M 11.109375 -5.421875 "/></g></g></g><g fill="#ebcdff" fill-opacity="1"><g transform="translate(149.922989, 55.350108)"><g><path d="M 7.015625 0.078125 C 5.234375 0.078125 3.832031 -0.785156 2.8125 -2.515625 C 1.789062 -4.242188 1.1875 -6.515625 1 -9.328125 C 0.800781 -12.816406 1.1875 -15.894531 2.15625 -18.5625 C 3.125 -21.238281 4.585938 -23.328125 6.546875 -24.828125 C 8.503906 -26.328125 10.84375 -27.078125 13.5625 -27.078125 C 16.289062 -27.078125 18.628906 -26.328125 20.578125 -24.828125 C 22.535156 -23.328125 24 -21.25 24.96875 -18.59375 C 25.9375 -15.9375 26.300781 -12.847656 26.0625 -9.328125 C 25.882812 -6.441406 25.285156 -4.160156 24.265625 -2.484375 C 23.242188 -0.804688 21.84375 0.03125 20.0625 0.03125 C 19.050781 0.03125 18.273438 -0.148438 17.734375 -0.515625 C 17.191406 -0.890625 16.8125 -1.367188 16.59375 -1.953125 C 16.375 -2.535156 16.265625 -3.128906 16.265625 -3.734375 C 16.265625 -4.335938 16.304688 -4.863281 16.390625 -5.3125 C 15.554688 -5.28125 14.582031 -5.257812 13.46875 -5.25 C 12.363281 -5.238281 11.4375 -5.257812 10.6875 -5.3125 C 10.769531 -4.863281 10.8125 -4.335938 10.8125 -3.734375 C 10.8125 -3.128906 10.695312 -2.535156 10.46875 -1.953125 C 10.25 -1.367188 9.867188 -0.882812 9.328125 -0.5 C 8.785156 -0.113281 8.015625 0.078125 7.015625 0.078125 Z M 10.421875 -12.203125 C 12.460938 -12.273438 14.503906 -12.273438 16.546875 -12.203125 C 16.671875 -13.109375 16.65625 -13.972656 16.5 -14.796875 C 16.34375 -15.617188 16.019531 -16.285156 15.53125 -16.796875 C 15.039062 -17.316406 14.34375 -17.578125 13.4375 -17.578125 C 12.53125 -17.578125 11.835938 -17.316406 11.359375 -16.796875 C 10.890625 -16.285156 10.582031 -15.625 10.4375 -14.8125 C 10.289062 -14 10.285156 -13.128906 10.421875 -12.203125 Z M 10.421875 -12.203125 "/></g></g></g><g fill="#ebcdff" fill-opacity="1"><g transform="translate(176.995964, 55.350108)"><g/></g></g><g fill="#ebcdff" fill-opacity="1"><g transform="translate(188.615266, 55.350108)"><g><path d="M 10.21875 -0.078125 C 9.238281 -0.078125 8.453125 -0.425781 7.859375 -1.125 C 7.265625 -1.820312 6.816406 -2.78125 6.515625 -4 C 6.222656 -5.226562 6.023438 -6.660156 5.921875 -8.296875 C 4.347656 -8.421875 3.128906 -8.726562 2.265625 -9.21875 C 1.398438 -9.707031 0.96875 -10.5625 0.96875 -11.78125 C 0.96875 -12.988281 1.398438 -13.84375 2.265625 -14.34375 C 3.128906 -14.851562 4.347656 -15.1875 5.921875 -15.34375 C 6.054688 -17.632812 6.410156 -19.671875 6.984375 -21.453125 C 7.566406 -23.234375 8.515625 -24.617188 9.828125 -25.609375 C 11.148438 -26.609375 13 -27.109375 15.375 -27.109375 C 16.695312 -27.109375 17.851562 -26.796875 18.84375 -26.171875 C 19.832031 -25.554688 20.328125 -24.59375 20.328125 -23.28125 C 20.328125 -21.90625 19.894531 -20.898438 19.03125 -20.265625 C 18.164062 -19.640625 17.128906 -19.210938 15.921875 -18.984375 C 14.960938 -18.796875 14.289062 -18.375 13.90625 -17.71875 C 13.519531 -17.0625 13.273438 -16.296875 13.171875 -15.421875 C 15.492188 -15.367188 17.265625 -15.117188 18.484375 -14.671875 C 19.710938 -14.234375 20.328125 -13.269531 20.328125 -11.78125 C 20.328125 -10.789062 20.039062 -10.046875 19.46875 -9.546875 C 18.90625 -9.046875 18.085938 -8.703125 17.015625 -8.515625 C 15.953125 -8.335938 14.695312 -8.238281 13.25 -8.21875 C 13.25 -7.175781 13.257812 -6.234375 13.28125 -5.390625 C 13.3125 -4.554688 13.328125 -3.789062 13.328125 -3.09375 C 13.328125 -2.269531 13.15625 -1.640625 12.8125 -1.203125 C 12.476562 -0.765625 12.070312 -0.46875 11.59375 -0.3125 C 11.125 -0.15625 10.664062 -0.078125 10.21875 -0.078125 Z M 10.21875 -0.078125 "/></g></g></g><g fill="#ebcdff" fill-opacity="1"><g transform="translate(209.723668, 55.350108)"><g><path d="M 5.5 -18.78125 C 4.238281 -18.78125 3.164062 -19.238281 2.28125 -20.15625 C 1.40625 -21.070312 0.96875 -22.191406 0.96875 -23.515625 C 0.96875 -24.390625 1.164062 -25.175781 1.5625 -25.875 C 1.96875 -26.570312 2.507812 -27.132812 3.1875 -27.5625 C 3.875 -27.988281 4.644531 -28.203125 5.5 -28.203125 C 6.320312 -28.203125 7.078125 -27.988281 7.765625 -27.5625 C 8.453125 -27.132812 9 -26.570312 9.40625 -25.875 C 9.820312 -25.175781 10.03125 -24.390625 10.03125 -23.515625 C 10.03125 -22.628906 9.820312 -21.832031 9.40625 -21.125 C 9 -20.414062 8.453125 -19.847656 7.765625 -19.421875 C 7.078125 -18.992188 6.320312 -18.78125 5.5 -18.78125 Z M 5.5 0 C 4.46875 0 3.695312 -0.296875 3.1875 -0.890625 C 2.6875 -1.484375 2.351562 -2.394531 2.1875 -3.625 C 2.019531 -4.851562 1.921875 -6.429688 1.890625 -8.359375 C 1.890625 -10.296875 1.972656 -11.882812 2.140625 -13.125 C 2.316406 -14.363281 2.660156 -15.273438 3.171875 -15.859375 C 3.691406 -16.441406 4.46875 -16.734375 5.5 -16.734375 C 6.53125 -16.734375 7.296875 -16.441406 7.796875 -15.859375 C 8.304688 -15.273438 8.648438 -14.363281 8.828125 -13.125 C 9.015625 -11.882812 9.109375 -10.296875 9.109375 -8.359375 C 9.128906 -6.429688 9.046875 -4.851562 8.859375 -3.625 C 8.679688 -2.394531 8.332031 -1.484375 7.8125 -0.890625 C 7.300781 -0.296875 6.53125 0 5.5 0 Z M 5.5 0 "/></g></g></g><g fill="#ebcdff" fill-opacity="1"><g transform="translate(220.723268, 55.350108)"><g><path d="M 16.265625 0 C 15.234375 0 14.503906 -0.289062 14.078125 -0.875 C 13.648438 -1.457031 13.394531 -2.191406 13.3125 -3.078125 C 13.238281 -3.972656 13.203125 -4.867188 13.203125 -5.765625 C 13.203125 -7.140625 13.007812 -8.242188 12.625 -9.078125 C 12.238281 -9.921875 11.554688 -10.34375 10.578125 -10.34375 C 9.691406 -10.34375 9.039062 -9.921875 8.625 -9.078125 C 8.21875 -8.242188 8.015625 -7.140625 8.015625 -5.765625 C 8.015625 -4.867188 7.984375 -3.976562 7.921875 -3.09375 C 7.859375 -2.21875 7.617188 -1.488281 7.203125 -0.90625 C 6.785156 -0.320312 6.035156 -0.03125 4.953125 -0.03125 C 4.148438 -0.03125 3.484375 -0.328125 2.953125 -0.921875 C 2.429688 -1.523438 2.023438 -2.300781 1.734375 -3.25 C 1.453125 -4.207031 1.253906 -5.238281 1.140625 -6.34375 C 1.023438 -7.457031 0.96875 -8.53125 0.96875 -9.5625 C 0.96875 -10.59375 1.019531 -11.648438 1.125 -12.734375 C 1.226562 -13.828125 1.414062 -14.835938 1.6875 -15.765625 C 1.957031 -16.691406 2.347656 -17.4375 2.859375 -18 C 3.378906 -18.570312 4.050781 -18.859375 4.875 -18.859375 C 6.351562 -18.859375 7.269531 -18.1875 7.625 -16.84375 C 7.9375 -17.1875 8.429688 -17.503906 9.109375 -17.796875 C 9.796875 -18.097656 10.582031 -18.25 11.46875 -18.25 C 13.457031 -18.25 15.082031 -17.742188 16.34375 -16.734375 C 17.613281 -15.722656 18.535156 -14.332031 19.109375 -12.5625 C 19.691406 -10.800781 19.972656 -8.757812 19.953125 -6.4375 C 19.953125 -5.238281 19.84375 -4.15625 19.625 -3.1875 C 19.40625 -2.226562 19.03125 -1.457031 18.5 -0.875 C 17.96875 -0.289062 17.222656 0 16.265625 0 Z M 16.265625 0 "/></g></g></g><g fill="#ebcdff" fill-opacity="1"><g transform="translate(241.638005, 55.350108)"><g><path d="M 10.1875 0 C 8.28125 0 6.632812 -0.453125 5.25 -1.359375 C 3.863281 -2.265625 2.800781 -3.4375 2.0625 -4.875 C 1.332031 -6.320312 0.96875 -7.832031 0.96875 -9.40625 C 0.96875 -11.425781 1.375 -13.082031 2.1875 -14.375 C 3 -15.664062 4.035156 -16.625 5.296875 -17.25 C 6.566406 -17.882812 7.882812 -18.203125 9.25 -18.203125 C 9.894531 -18.203125 10.550781 -18.128906 11.21875 -17.984375 C 11.894531 -17.847656 12.53125 -17.613281 13.125 -17.28125 C 13.019531 -18.382812 12.796875 -19.472656 12.453125 -20.546875 C 12.109375 -21.617188 11.9375 -22.710938 11.9375 -23.828125 C 11.9375 -24.960938 12.28125 -25.800781 12.96875 -26.34375 C 13.664062 -26.882812 14.414062 -27.15625 15.21875 -27.15625 C 16.144531 -27.15625 16.941406 -26.859375 17.609375 -26.265625 C 18.285156 -25.671875 18.863281 -24.878906 19.34375 -23.890625 C 19.820312 -22.910156 20.203125 -21.804688 20.484375 -20.578125 C 20.773438 -19.359375 20.984375 -18.101562 21.109375 -16.8125 C 21.234375 -15.519531 21.296875 -14.28125 21.296875 -13.09375 C 21.296875 -12.707031 21.273438 -12.113281 21.234375 -11.3125 C 21.203125 -10.507812 21.082031 -9.617188 20.875 -8.640625 C 20.664062 -7.660156 20.335938 -6.664062 19.890625 -5.65625 C 19.441406 -4.644531 18.804688 -3.710938 17.984375 -2.859375 C 17.171875 -2.015625 16.128906 -1.328125 14.859375 -0.796875 C 13.597656 -0.265625 12.039062 0 10.1875 0 Z M 10.421875 -6.125 C 11.117188 -6.125 11.722656 -6.382812 12.234375 -6.90625 C 12.753906 -7.4375 13.015625 -8.066406 13.015625 -8.796875 C 13.015625 -9.515625 12.753906 -10.144531 12.234375 -10.6875 C 11.722656 -11.226562 11.117188 -11.5 10.421875 -11.5 C 9.722656 -11.5 9.109375 -11.226562 8.578125 -10.6875 C 8.046875 -10.144531 7.78125 -9.515625 7.78125 -8.796875 C 7.78125 -8.066406 8.046875 -7.4375 8.578125 -6.90625 C 9.109375 -6.382812 9.722656 -6.125 10.421875 -6.125 Z M 10.421875 -6.125 "/></g></g></g><g fill="#ebcdff" fill-opacity="1"><g transform="translate(263.908328, 55.350108)"><g><path d="M 10.6875 0 C 8.75 0 7.050781 -0.378906 5.59375 -1.140625 C 4.132812 -1.898438 3 -2.945312 2.1875 -4.28125 C 1.375 -5.613281 0.96875 -7.144531 0.96875 -8.875 C 0.96875 -10.550781 1.375 -12.097656 2.1875 -13.515625 C 3 -14.941406 4.117188 -16.078125 5.546875 -16.921875 C 6.984375 -17.773438 8.632812 -18.203125 10.5 -18.203125 C 12.226562 -18.203125 13.710938 -17.851562 14.953125 -17.15625 C 16.191406 -16.457031 17.140625 -15.570312 17.796875 -14.5 C 18.453125 -13.4375 18.78125 -12.304688 18.78125 -11.109375 C 18.78125 -9.921875 18.507812 -8.945312 17.96875 -8.1875 C 17.425781 -7.425781 16.722656 -6.84375 15.859375 -6.4375 C 14.992188 -6.039062 14.070312 -5.78125 13.09375 -5.65625 C 12.113281 -5.53125 11.171875 -5.507812 10.265625 -5.59375 C 9.359375 -5.6875 8.597656 -5.835938 7.984375 -6.046875 C 8.441406 -5.296875 9.023438 -4.785156 9.734375 -4.515625 C 10.453125 -4.242188 11.203125 -4.125 11.984375 -4.15625 C 12.773438 -4.195312 13.492188 -4.285156 14.140625 -4.421875 C 14.941406 -4.597656 15.597656 -4.554688 16.109375 -4.296875 C 16.628906 -4.035156 16.898438 -3.625 16.921875 -3.0625 C 16.953125 -2.59375 16.789062 -2.125 16.4375 -1.65625 C 16.09375 -1.195312 15.46875 -0.804688 14.5625 -0.484375 C 13.65625 -0.160156 12.363281 0 10.6875 0 Z M 8.09375 -10.765625 C 8.351562 -10.347656 8.726562 -10.054688 9.21875 -9.890625 C 9.707031 -9.722656 10.203125 -9.664062 10.703125 -9.71875 C 11.210938 -9.769531 11.640625 -9.910156 11.984375 -10.140625 C 12.335938 -10.378906 12.515625 -10.703125 12.515625 -11.109375 C 12.515625 -11.554688 12.335938 -11.953125 11.984375 -12.296875 C 11.640625 -12.648438 11.09375 -12.828125 10.34375 -12.828125 C 9.613281 -12.828125 9.054688 -12.597656 8.671875 -12.140625 C 8.285156 -11.691406 8.09375 -11.234375 8.09375 -10.765625 Z M 8.09375 -10.765625 "/></g></g></g><g fill="#ebcdff" fill-opacity="1"><g transform="translate(283.661144, 55.350108)"><g><path d="M 5.109375 0 C 4.234375 0 3.515625 -0.289062 2.953125 -0.875 C 2.398438 -1.457031 1.984375 -2.238281 1.703125 -3.21875 C 1.421875 -4.195312 1.226562 -5.316406 1.125 -6.578125 C 1.019531 -7.847656 0.96875 -9.15625 0.96875 -10.5 C 0.96875 -11.40625 0.984375 -12.328125 1.015625 -13.265625 C 1.054688 -14.210938 1.1875 -15.082031 1.40625 -15.875 C 1.632812 -16.675781 2.007812 -17.328125 2.53125 -17.828125 C 3.0625 -18.335938 3.816406 -18.59375 4.796875 -18.59375 C 5.492188 -18.59375 6.125 -18.429688 6.6875 -18.109375 C 7.257812 -17.785156 7.625 -17.300781 7.78125 -16.65625 C 8.375 -17.195312 9.128906 -17.585938 10.046875 -17.828125 C 10.960938 -18.078125 11.914062 -18.203125 12.90625 -18.203125 C 13.726562 -18.203125 14.5625 -18 15.40625 -17.59375 C 16.257812 -17.195312 16.984375 -16.648438 17.578125 -15.953125 C 18.171875 -15.253906 18.46875 -14.46875 18.46875 -13.59375 C 18.46875 -12.84375 18.191406 -12.128906 17.640625 -11.453125 C 17.085938 -10.785156 16.304688 -10.453125 15.296875 -10.453125 C 14.859375 -10.453125 14.5 -10.507812 14.21875 -10.625 C 13.9375 -10.75 13.664062 -10.859375 13.40625 -10.953125 C 13.144531 -11.054688 12.832031 -11.109375 12.46875 -11.109375 C 11.519531 -11.109375 10.648438 -10.726562 9.859375 -9.96875 C 9.066406 -9.207031 8.671875 -8.179688 8.671875 -6.890625 C 8.671875 -6.222656 8.648438 -5.492188 8.609375 -4.703125 C 8.578125 -3.921875 8.460938 -3.164062 8.265625 -2.4375 C 8.078125 -1.71875 7.734375 -1.128906 7.234375 -0.671875 C 6.742188 -0.222656 6.035156 0 5.109375 0 Z M 5.109375 0 "/></g></g></g><g transform="matrix(1, 0, 0, 1, 50, 1)"><g clip-path="url(#727b8c8148)"><g fill="#cb6ce6" fill-opacity="1"><g transform="translate(2.482075, 54.443666)"><g><path d="M 17.796875 1.683594 C 15.640625 1.683594 13.972656 0.9375 12.792969 -0.558594 C 11.773438 -1.851562 11.089844 -3.695312 10.746094 -6.082031 C 10.429688 -8.238281 10.273438 -10.894531 10.273438 -14.046875 C 10.273438 -15.175781 10.292969 -16.238281 10.324219 -17.238281 L 10.417969 -19.996094 L 12.195312 -19.933594 L 12.109375 -18.15625 C 8.0625 -18.359375 5.042969 -18.957031 3.046875 -19.953125 C 1.84375 -20.558594 0.929688 -21.394531 0.308594 -22.472656 C -0.292969 -23.515625 -0.59375 -24.742188 -0.59375 -26.148438 C -0.59375 -27.90625 -0.128906 -29.40625 0.804688 -30.640625 C 1.714844 -31.847656 3.035156 -32.746094 4.761719 -33.339844 C 7.71875 -34.351562 12.078125 -34.859375 17.84375 -34.859375 C 23.640625 -34.859375 28.042969 -34.355469 31.058594 -33.34375 C 32.816406 -32.753906 34.160156 -31.859375 35.085938 -30.65625 C 36.042969 -29.417969 36.519531 -27.914062 36.519531 -26.148438 C 36.519531 -24.753906 36.214844 -23.535156 35.605469 -22.492188 C 34.980469 -21.425781 34.066406 -20.589844 32.859375 -19.980469 C 30.847656 -18.964844 27.835938 -18.359375 23.820312 -18.15625 L 23.730469 -19.933594 L 25.503906 -20.066406 C 25.570312 -19.1875 25.617188 -18.242188 25.652344 -17.238281 C 25.683594 -16.238281 25.699219 -15.175781 25.699219 -14.046875 C 25.699219 -8.988281 25.234375 -5.238281 24.300781 -2.804688 C 23.742188 -1.347656 22.910156 -0.234375 21.800781 0.53125 C 20.6875 1.300781 19.355469 1.683594 17.796875 1.683594 Z M 17.796875 -1.875 C 18.613281 -1.875 19.273438 -2.046875 19.777344 -2.394531 C 20.28125 -2.746094 20.679688 -3.304688 20.976562 -4.078125 C 21.753906 -6.101562 22.140625 -9.425781 22.140625 -14.046875 C 22.140625 -15.136719 22.125 -16.160156 22.09375 -17.125 C 22.0625 -18.078125 22.015625 -18.972656 21.953125 -19.800781 L 21.820312 -21.617188 L 23.640625 -21.710938 C 27.15625 -21.886719 29.695312 -22.371094 31.257812 -23.160156 C 31.839844 -23.453125 32.265625 -23.828125 32.535156 -24.289062 C 32.820312 -24.777344 32.960938 -25.394531 32.960938 -26.148438 C 32.960938 -27.105469 32.730469 -27.882812 32.269531 -28.480469 C 31.78125 -29.113281 31 -29.609375 29.925781 -29.96875 C 27.277344 -30.855469 23.25 -31.300781 17.84375 -31.300781 C 12.472656 -31.300781 8.496094 -30.855469 5.917969 -29.972656 C 4.875 -29.617188 4.117188 -29.125 3.644531 -28.496094 C 3.191406 -27.894531 2.964844 -27.113281 2.964844 -26.148438 C 2.964844 -25.375 3.109375 -24.742188 3.390625 -24.25 C 3.65625 -23.792969 4.074219 -23.421875 4.640625 -23.136719 C 6.1875 -22.363281 8.738281 -21.886719 12.285156 -21.710938 L 14.035156 -21.625 L 13.882812 -17.125 C 13.851562 -16.160156 13.835938 -15.136719 13.835938 -14.046875 C 13.835938 -11.066406 13.980469 -8.578125 14.265625 -6.589844 C 14.523438 -4.832031 14.960938 -3.558594 15.589844 -2.761719 C 16.054688 -2.171875 16.792969 -1.875 17.796875 -1.875 Z M 17.796875 -1.875 "/></g></g></g><g fill="#cb6ce6" fill-opacity="1"><g transform="translate(38.409135, 54.443666)"><g><path d="M 17.394531 1.828125 C 14.960938 1.863281 12.664062 1.417969 10.503906 0.5 C 8.355469 -0.417969 6.457031 -1.71875 4.804688 -3.40625 C 3.160156 -5.085938 1.863281 -7.042969 0.921875 -9.273438 C -0.0195312 -11.503906 -0.523438 -13.917969 -0.59375 -16.515625 C -0.628906 -19.054688 -0.1875 -21.429688 0.726562 -23.648438 C 1.636719 -25.855469 2.917969 -27.800781 4.566406 -29.484375 C 6.210938 -31.164062 8.121094 -32.488281 10.289062 -33.449219 C 12.480469 -34.421875 14.839844 -34.90625 17.371094 -34.90625 C 19.789062 -34.941406 22.078125 -34.5 24.238281 -33.578125 C 26.382812 -32.664062 28.28125 -31.371094 29.929688 -29.703125 C 31.574219 -28.042969 32.878906 -26.09375 33.835938 -23.863281 C 34.800781 -21.621094 35.300781 -19.195312 35.332031 -16.585938 C 35.402344 -14.070312 34.96875 -11.695312 34.03125 -9.464844 C 33.105469 -7.261719 31.816406 -5.328125 30.167969 -3.660156 C 28.523438 -1.996094 26.605469 -0.683594 24.421875 0.277344 C 22.234375 1.238281 19.898438 1.757812 17.421875 1.828125 Z M 17.320312 -1.730469 C 19.335938 -1.789062 21.222656 -2.203125 22.988281 -2.980469 C 24.761719 -3.761719 26.308594 -4.820312 27.636719 -6.164062 C 28.964844 -7.503906 30 -9.066406 30.75 -10.847656 C 31.488281 -12.601562 31.832031 -14.5 31.773438 -16.539062 C 31.746094 -18.675781 31.34375 -20.648438 30.566406 -22.457031 C 29.785156 -24.277344 28.730469 -25.855469 27.402344 -27.199219 C 26.078125 -28.539062 24.558594 -29.570312 22.84375 -30.304688 C 21.144531 -31.027344 19.320312 -31.375 17.371094 -31.347656 C 15.34375 -31.347656 13.464844 -30.964844 11.730469 -30.195312 C 9.976562 -29.417969 8.4375 -28.351562 7.109375 -26.992188 C 5.785156 -25.640625 4.753906 -24.070312 4.019531 -22.292969 C 3.289062 -20.523438 2.9375 -18.628906 2.964844 -16.609375 C 3.023438 -14.460938 3.433594 -12.476562 4.203125 -10.660156 C 4.96875 -8.839844 6.015625 -7.253906 7.347656 -5.894531 C 8.667969 -4.546875 10.1875 -3.507812 11.898438 -2.777344 C 13.597656 -2.050781 15.414062 -1.703125 17.34375 -1.730469 Z M 17.511719 -10.988281 C 18.429688 -10.988281 19.246094 -11.328125 19.960938 -12.011719 C 20.644531 -12.664062 20.976562 -13.601562 20.953125 -14.824219 C 20.953125 -16.113281 20.613281 -17.089844 19.929688 -17.753906 C 19.230469 -18.429688 18.425781 -18.769531 17.511719 -18.769531 C 16.601562 -18.769531 15.796875 -18.429688 15.097656 -17.753906 C 14.414062 -17.089844 14.070312 -16.125 14.070312 -14.855469 C 14.070312 -13.617188 14.414062 -12.667969 15.097656 -12.003906 C 15.796875 -11.324219 16.601562 -10.988281 17.511719 -10.988281 Z M 17.511719 -7.425781 C 15.640625 -7.425781 14.007812 -8.101562 12.621094 -9.449219 C 11.214844 -10.808594 10.511719 -12.613281 10.511719 -14.855469 C 10.511719 -17.128906 11.214844 -18.945312 12.621094 -20.308594 C 14.007812 -21.65625 15.640625 -22.328125 17.511719 -22.328125 C 19.386719 -22.328125 21.015625 -21.65625 22.40625 -20.308594 C 23.8125 -18.945312 24.511719 -17.140625 24.511719 -14.886719 C 24.554688 -12.625 23.855469 -10.8125 22.421875 -9.4375 C 21.015625 -8.097656 19.378906 -7.425781 17.511719 -7.425781 Z M 17.511719 -7.425781 "/></g></g></g><g fill="#ebcdff" fill-opacity="1"><g transform="translate(2.482075, 54.443666)"><g><path d="M 17.796875 -0.09375 C 16.210938 -0.09375 15.007812 -0.613281 14.1875 -1.65625 C 13.363281 -2.707031 12.800781 -4.265625 12.5 -6.328125 C 12.195312 -8.398438 12.046875 -10.972656 12.046875 -14.046875 C 12.046875 -15.148438 12.0625 -16.191406 12.09375 -17.171875 C 12.125 -18.160156 12.160156 -19.082031 12.203125 -19.9375 C 8.398438 -20.125 5.613281 -20.660156 3.84375 -21.546875 C 2.070312 -22.429688 1.1875 -23.960938 1.1875 -26.140625 C 1.1875 -28.867188 2.566406 -30.707031 5.328125 -31.65625 C 8.097656 -32.601562 12.269531 -33.078125 17.84375 -33.078125 C 23.4375 -33.078125 27.648438 -32.601562 30.484375 -31.65625 C 33.316406 -30.707031 34.734375 -28.867188 34.734375 -26.140625 C 34.734375 -23.992188 33.835938 -22.46875 32.046875 -21.5625 C 30.265625 -20.664062 27.492188 -20.125 23.734375 -19.9375 C 23.796875 -19.082031 23.84375 -18.160156 23.875 -17.171875 C 23.90625 -16.191406 23.921875 -15.148438 23.921875 -14.046875 C 23.921875 -9.203125 23.492188 -5.664062 22.640625 -3.4375 C 21.785156 -1.207031 20.171875 -0.09375 17.796875 -0.09375 Z M 17.796875 -0.09375 "/></g></g></g><g fill="#ebcdff" fill-opacity="1"><g transform="translate(38.409135, 54.443666)"><g><path d="M 17.375 0.046875 C 15.1875 0.078125 13.125 -0.316406 11.1875 -1.140625 C 9.257812 -1.960938 7.550781 -3.128906 6.0625 -4.640625 C 4.582031 -6.160156 3.414062 -7.929688 2.5625 -9.953125 C 1.707031 -11.984375 1.25 -14.1875 1.1875 -16.5625 C 1.15625 -18.84375 1.550781 -20.976562 2.375 -22.96875 C 3.195312 -24.957031 4.347656 -26.710938 5.828125 -28.234375 C 7.316406 -29.753906 9.039062 -30.945312 11 -31.8125 C 12.96875 -32.6875 15.09375 -33.125 17.375 -33.125 C 19.550781 -33.15625 21.601562 -32.757812 23.53125 -31.9375 C 25.46875 -31.113281 27.175781 -29.945312 28.65625 -28.4375 C 30.144531 -26.9375 31.320312 -25.175781 32.1875 -23.15625 C 33.0625 -21.132812 33.515625 -18.9375 33.546875 -16.5625 C 33.609375 -14.28125 33.21875 -12.144531 32.375 -10.15625 C 31.539062 -8.164062 30.378906 -6.414062 28.890625 -4.90625 C 27.410156 -3.40625 25.679688 -2.21875 23.703125 -1.34375 C 21.722656 -0.476562 19.613281 -0.015625 17.375 0.046875 Z M 17.515625 -9.203125 C 18.898438 -9.203125 20.125 -9.707031 21.1875 -10.71875 C 22.25 -11.738281 22.765625 -13.117188 22.734375 -14.859375 C 22.734375 -16.628906 22.207031 -18.019531 21.15625 -19.03125 C 20.113281 -20.039062 18.898438 -20.546875 17.515625 -20.546875 C 16.117188 -20.546875 14.898438 -20.039062 13.859375 -19.03125 C 12.816406 -18.019531 12.296875 -16.628906 12.296875 -14.859375 C 12.296875 -13.117188 12.816406 -11.738281 13.859375 -10.71875 C 14.898438 -9.707031 16.117188 -9.203125 17.515625 -9.203125 Z M 17.515625 -9.203125 "/></g></g></g></g></g><g clip-path="url(#acaa593fc6)"><path fill="#111012" d="M 61.277344 11.128906 C 46.308594 25.703125 45.976562 49.742188 60.558594 64.71875 C 75.132812 79.6875 99.171875 80.015625 114.144531 65.4375 C 129.121094 50.859375 129.441406 26.816406 114.867188 11.847656 C 100.289062 -3.125 76.25 -3.445312 61.277344 11.128906 Z M 110.699219 15.90625 C 123.039062 28.582031 122.765625 48.933594 110.085938 61.269531 C 97.410156 73.609375 77.058594 73.332031 64.722656 60.660156 C 52.382812 47.984375 52.664062 27.632812 65.332031 15.296875 C 78.007812 2.957031 98.359375 3.230469 110.699219 15.90625 Z M 110.699219 15.90625 " fill-opacity="1" fill-rule="nonzero"/></g><g clip-path="url(#688102b880)"><path fill="#111012" d="M 123.925781 66.070312 L 122.542969 67.453125 L 147.011719 85.878906 C 150.789062 89.007812 151.046875 94.714844 147.5625 98.175781 C 144.082031 101.632812 138.375 101.335938 135.273438 97.539062 L 117.035156 72.964844 L 115.5 74.5 C 113.421875 76.578125 110.097656 76.664062 107.921875 74.75 C 111.109375 73.023438 114.113281 70.832031 116.835938 68.179688 C 116.96875 68.050781 117.101562 67.921875 117.230469 67.789062 C 117.234375 67.785156 117.234375 67.785156 117.234375 67.785156 C 120.019531 65 122.351562 61.871094 124.1875 58.5 C 125.101562 59.542969 125.558594 60.839844 125.554688 62.144531 C 125.550781 63.566406 125.011719 64.984375 123.925781 66.070312 Z M 123.925781 66.070312 " fill-opacity="1" fill-rule="nonzero"/></g><path fill="#d2eaff" d="M 75.09375 58.625 C 76.230469 59.761719 77.4375 60.785156 78.707031 61.6875 C 75.199219 60.644531 71.894531 58.738281 69.125 55.96875 C 60.246094 47.089844 60.246094 32.699219 69.125 23.824219 C 70.488281 22.460938 71.972656 21.308594 73.558594 20.367188 C 64.09375 31.457031 64.605469 48.140625 75.09375 58.625 Z M 75.09375 58.625 " fill-opacity="1" fill-rule="nonzero"/></g></g></svg>