<svg xmlns="http://www.w3.org/2000/svg" xmlns:xlink="http://www.w3.org/1999/xlink" width="500" zoomAndPan="magnify" viewBox="0 0 375 374.999991" height="500" preserveAspectRatio="xMidYMid meet" version="1.0"><defs><clipPath id="e560f16866"><path d="M 66.933594 63.628906 L 308.066406 63.628906 L 308.066406 312 L 66.933594 312 Z M 66.933594 63.628906 " clip-rule="nonzero"/></clipPath><clipPath id="5979880d9c"><path d="M 187.5 63.628906 C 120.914062 63.628906 66.933594 119.085938 66.933594 187.5 C 66.933594 255.914062 120.914062 311.371094 187.5 311.371094 C 254.085938 311.371094 308.066406 255.914062 308.066406 187.5 C 308.066406 119.085938 254.085938 63.628906 187.5 63.628906 Z M 187.5 63.628906 " clip-rule="nonzero"/></clipPath><clipPath id="26e40aa954"><path d="M 0.933594 0.628906 L 242.066406 0.628906 L 242.066406 248.519531 L 0.933594 248.519531 Z M 0.933594 0.628906 " clip-rule="nonzero"/></clipPath><clipPath id="7a1207f228"><path d="M 121.5 0.628906 C 54.914062 0.628906 0.933594 56.085938 0.933594 124.5 C 0.933594 192.914062 54.914062 248.371094 121.5 248.371094 C 188.085938 248.371094 242.066406 192.914062 242.066406 124.5 C 242.066406 56.085938 188.085938 0.628906 121.5 0.628906 Z M 121.5 0.628906 " clip-rule="nonzero"/></clipPath><clipPath id="582c9fa672"><rect x="0" width="243" y="0" height="249"/></clipPath><clipPath id="fe0fb78300"><path d="M 66.933594 63.628906 L 308.433594 63.628906 L 308.433594 311.128906 L 66.933594 311.128906 Z M 66.933594 63.628906 " clip-rule="nonzero"/></clipPath><clipPath id="1e1f5b4d29"><path d="M 187.496094 63.628906 C 120.910156 63.628906 66.933594 119.085938 66.933594 187.496094 C 66.933594 255.90625 120.910156 311.363281 187.496094 311.363281 C 254.078125 311.363281 308.058594 255.90625 308.058594 187.496094 C 308.058594 119.085938 254.078125 63.628906 187.496094 63.628906 Z M 187.496094 63.628906 " clip-rule="nonzero"/></clipPath><clipPath id="a70b15eb59"><path d="M 87.464844 99.949219 L 220 99.949219 L 220 233 L 87.464844 233 Z M 87.464844 99.949219 " clip-rule="nonzero"/></clipPath><clipPath id="70ec98a7a8"><path d="M 188 201 L 262.214844 201 L 262.214844 274.699219 L 188 274.699219 Z M 188 201 " clip-rule="nonzero"/></clipPath></defs><rect x="-37.5" width="450" fill="#ffffff" y="-37.499999" height="449.999989" fill-opacity="1"/><rect x="-37.5" width="450" fill="#ffffff" y="-37.499999" height="449.999989" fill-opacity="1"/><g clip-path="url(#e560f16866)"><g clip-path="url(#5979880d9c)"><g transform="matrix(1, 0, 0, 1, 66, 63)"><g clip-path="url(#582c9fa672)"><g clip-path="url(#26e40aa954)"><g clip-path="url(#7a1207f228)"><path fill="#ebcdff" d="M 0.933594 0.628906 L 242.066406 0.628906 L 242.066406 248.355469 L 0.933594 248.355469 Z M 0.933594 0.628906 " fill-opacity="1" fill-rule="nonzero"/></g></g></g></g></g></g><g clip-path="url(#fe0fb78300)"><g clip-path="url(#1e1f5b4d29)"><path stroke-linecap="butt" transform="matrix(0.75, 0, 0, 0.75, 66.932285, 63.627344)" fill="none" stroke-linejoin="miter" d="M 160.751745 0.00208324 C 71.970495 0.00208324 0.00174513 73.944792 0.00174513 165.158334 C 0.00174513 256.371875 71.970495 330.314584 160.751745 330.314584 C 249.527787 330.314584 321.501746 256.371875 321.501746 165.158334 C 321.501746 73.944792 249.527787 0.00208324 160.751745 0.00208324 Z M 160.751745 0.00208324 " stroke="#cb6ce6" stroke-width="16" stroke-opacity="1" stroke-miterlimit="4"/></g></g><g clip-path="url(#a70b15eb59)"><path fill="#111012" d="M 107.464844 118.691406 C 81.300781 144.164062 80.722656 186.179688 106.203125 212.351562 C 131.679688 238.515625 173.691406 239.089844 199.863281 213.605469 C 226.035156 188.128906 226.601562 146.113281 201.125 119.949219 C 175.648438 93.78125 133.628906 93.222656 107.464844 118.691406 Z M 193.839844 127.039062 C 215.40625 149.195312 214.925781 184.761719 192.773438 206.324219 C 170.617188 227.894531 135.046875 227.410156 113.488281 205.261719 C 91.917969 183.105469 92.40625 147.535156 114.550781 125.976562 C 136.707031 104.410156 172.273438 104.890625 193.839844 127.039062 Z M 193.839844 127.039062 " fill-opacity="1" fill-rule="nonzero"/></g><g clip-path="url(#70ec98a7a8)"><path fill="#111012" d="M 216.957031 214.714844 L 214.542969 217.132812 L 257.304688 249.335938 C 263.90625 254.804688 264.355469 264.78125 258.269531 270.828125 C 252.1875 276.867188 242.214844 276.347656 236.792969 269.714844 L 204.917969 226.761719 L 202.234375 229.445312 C 198.597656 233.082031 192.789062 233.230469 188.984375 229.882812 C 194.558594 226.867188 199.804688 223.039062 204.566406 218.402344 C 204.800781 218.175781 205.027344 217.949219 205.257812 217.722656 C 205.261719 217.714844 205.261719 217.714844 205.261719 217.714844 C 210.128906 212.847656 214.203125 207.378906 217.414062 201.484375 C 219.011719 203.304688 219.8125 205.574219 219.808594 207.859375 C 219.800781 210.339844 218.855469 212.820312 216.957031 214.714844 Z M 216.957031 214.714844 " fill-opacity="1" fill-rule="nonzero"/></g><path fill="#d2eaff" d="M 131.609375 201.707031 C 133.59375 203.691406 135.707031 205.476562 137.925781 207.050781 C 131.796875 205.230469 126.019531 201.902344 121.179688 197.058594 C 105.660156 181.539062 105.660156 156.390625 121.179688 140.878906 C 123.5625 138.496094 126.160156 136.484375 128.925781 134.835938 C 112.386719 154.21875 113.277344 183.378906 131.609375 201.707031 Z M 131.609375 201.707031 " fill-opacity="1" fill-rule="nonzero"/></svg>