<svg xmlns="http://www.w3.org/2000/svg" xmlns:xlink="http://www.w3.org/1999/xlink" width="500" zoomAndPan="magnify" viewBox="0 0 375 374.999991" height="500" preserveAspectRatio="xMidYMid meet" version="1.0"><defs><clipPath id="4a208a080b"><path d="M 19.171875 14.558594 L 352.957031 14.558594 L 352.957031 358 L 19.171875 358 Z M 19.171875 14.558594 " clip-rule="nonzero"/></clipPath><clipPath id="fddac09398"><path d="M 186.066406 14.558594 C 93.894531 14.558594 19.171875 91.328125 19.171875 186.027344 C 19.171875 280.726562 93.894531 357.496094 186.066406 357.496094 C 278.238281 357.496094 352.957031 280.726562 352.957031 186.027344 C 352.957031 91.328125 278.238281 14.558594 186.066406 14.558594 Z M 186.066406 14.558594 " clip-rule="nonzero"/></clipPath><clipPath id="e62f15e86c"><path d="M 0.171875 0.558594 L 333.957031 0.558594 L 333.957031 343.601562 L 0.171875 343.601562 Z M 0.171875 0.558594 " clip-rule="nonzero"/></clipPath><clipPath id="0fb543a7c9"><path d="M 167.066406 0.558594 C 74.894531 0.558594 0.171875 77.328125 0.171875 172.027344 C 0.171875 266.726562 74.894531 343.496094 167.066406 343.496094 C 259.238281 343.496094 333.957031 266.726562 333.957031 172.027344 C 333.957031 77.328125 259.238281 0.558594 167.066406 0.558594 Z M 167.066406 0.558594 " clip-rule="nonzero"/></clipPath><clipPath id="a6a6e048ab"><rect x="0" width="334" y="0" height="344"/></clipPath><clipPath id="0c44b5f2e9"><path d="M 19.171875 14.558594 L 353 14.558594 L 353 357.15625 L 19.171875 357.15625 Z M 19.171875 14.558594 " clip-rule="nonzero"/></clipPath><clipPath id="72ce5a45fd"><path d="M 186.058594 14.558594 C 93.890625 14.558594 19.171875 91.324219 19.171875 186.019531 C 19.171875 280.714844 93.890625 357.480469 186.058594 357.480469 C 278.226562 357.480469 352.945312 280.714844 352.945312 186.019531 C 352.945312 91.324219 278.226562 14.558594 186.058594 14.558594 Z M 186.058594 14.558594 " clip-rule="nonzero"/></clipPath><clipPath id="fc52a69771"><path d="M 47.59375 64.835938 L 231 64.835938 L 231 249 L 47.59375 249 Z M 47.59375 64.835938 " clip-rule="nonzero"/></clipPath><clipPath id="20c4d4a959"><path d="M 188 205 L 289.488281 205 L 289.488281 306.730469 L 188 306.730469 Z M 188 205 " clip-rule="nonzero"/></clipPath><clipPath id="b39d0cae46"><rect x="0" width="375" y="0" height="375"/></clipPath></defs><g transform="matrix(1, 0, 0, 1, 0, 0)"><g clip-path="url(#b39d0cae46)"><g clip-path="url(#4a208a080b)"><g clip-path="url(#fddac09398)"><g transform="matrix(1, 0, 0, 1, 19, 14)"><g clip-path="url(#a6a6e048ab)"><g clip-path="url(#e62f15e86c)"><g clip-path="url(#0fb543a7c9)"><path fill="#ebcdff" d="M 0.171875 0.558594 L 333.957031 0.558594 L 333.957031 343.472656 L 0.171875 343.472656 Z M 0.171875 0.558594 " fill-opacity="1" fill-rule="nonzero"/></g></g></g></g></g></g><g clip-path="url(#0c44b5f2e9)"><g clip-path="url(#72ce5a45fd)"><path stroke-linecap="butt" transform="matrix(1.038169, 0, 0, 1.038169, 19.172979, 14.558888)" fill="none" stroke-linejoin="miter" d="M 160.749874 -0.000283358 C 71.970566 -0.000283358 -0.00106318 73.942965 -0.00106318 165.156696 C -0.00106318 256.370427 71.970566 330.313676 160.749874 330.313676 C 249.529182 330.313676 321.500811 256.370427 321.500811 165.156696 C 321.500811 73.942965 249.529182 -0.000283358 160.749874 -0.000283358 Z M 160.749874 -0.000283358 " stroke="#cb6ce6" stroke-width="11.558806" stroke-opacity="1" stroke-miterlimit="4"/></g></g><g clip-path="url(#fc52a69771)"><path fill="#111012" d="M 75.28125 90.78125 C 39.0625 126.039062 38.261719 184.199219 73.535156 220.425781 C 108.800781 256.644531 166.953125 257.4375 203.179688 222.164062 C 239.40625 186.898438 240.191406 128.738281 204.925781 92.519531 C 169.660156 56.300781 111.5 55.523438 75.28125 90.78125 Z M 194.84375 102.335938 C 224.695312 133.003906 224.03125 182.238281 193.363281 212.082031 C 162.695312 241.941406 113.460938 241.269531 83.617188 210.609375 C 53.757812 179.941406 54.4375 130.707031 85.089844 100.863281 C 115.757812 71.011719 164.988281 71.675781 194.84375 102.335938 Z M 194.84375 102.335938 " fill-opacity="1" fill-rule="nonzero"/></g><g clip-path="url(#20c4d4a959)"><path fill="#111012" d="M 226.84375 223.699219 L 223.5 227.042969 L 282.695312 271.625 C 291.832031 279.195312 292.453125 293 284.027344 301.371094 C 275.609375 309.734375 261.800781 309.015625 254.296875 299.828125 L 210.175781 240.375 L 206.460938 244.089844 C 201.425781 249.125 193.386719 249.324219 188.121094 244.695312 C 195.835938 240.519531 203.097656 235.21875 209.691406 228.804688 C 210.015625 228.488281 210.328125 228.175781 210.644531 227.859375 C 210.652344 227.851562 210.652344 227.851562 210.652344 227.851562 C 217.390625 221.113281 223.03125 213.542969 227.472656 205.382812 C 229.6875 207.902344 230.792969 211.046875 230.785156 214.207031 C 230.777344 217.640625 229.46875 221.074219 226.84375 223.699219 Z M 226.84375 223.699219 " fill-opacity="1" fill-rule="nonzero"/></g><path fill="#d2eaff" d="M 108.703125 205.691406 C 111.449219 208.4375 114.375 210.910156 117.445312 213.089844 C 108.960938 210.570312 100.964844 205.964844 94.265625 199.257812 C 72.785156 177.777344 72.785156 142.964844 94.265625 121.492188 C 97.5625 118.195312 101.15625 115.40625 104.988281 113.128906 C 82.089844 139.960938 83.328125 180.324219 108.703125 205.691406 Z M 108.703125 205.691406 " fill-opacity="1" fill-rule="nonzero"/></g></g></svg>